<?xml version="1.0" encoding="iso-8859-1"?>
<!-- Generator: Adobe Illustrator 19.0.0, SVG Export Plug-In . SVG Version: 6.00 Build 0)  -->
<svg version="1.1" id="Layer_1" xmlns="http://www.w3.org/2000/svg" xmlns:xlink="http://www.w3.org/1999/xlink" x="0px" y="0px"
	 viewBox="0 0 512 512" style="enable-background:new 0 0 512 512;" xml:space="preserve">
<circle style="fill:#FF7069;" cx="256" cy="256" r="256"/>
<path style="fill:#56BF5D;" d="M347.852,144.938v100.734h-15.699V132.062c0-76.428-116.914-76.428-116.914,0v113.609H199.54V144.938
	C199.54,43.998,347.852,44.136,347.852,144.938z"/>
<path style="fill:#EDBC40;" d="M116.914,183.29h284.437v283.404C360.039,495.268,309.982,512,255.931,512
	c-51.296,0-99.012-15.079-139.017-41.037V183.29z"/>
<polygon style="fill:#FAD24D;" points="116.914,183.29 145.764,201.949 116.914,214.205 "/>
<polygon style="fill:#FCD34E;" points="145.764,228.458 86.894,226.944 145.764,201.949 "/>
<polygon style="fill:#FAD24D;" points="401.42,183.29 372.639,201.949 401.42,214.205 "/>
<polygon style="fill:#FCD34E;" points="372.639,228.458 431.509,226.944 372.639,201.949 "/>
<path style="fill:#FFE356;" d="M86.894,226.944h344.615V442.32c-45.857,43.172-107.55,69.612-175.509,69.612
	c-64.861,0-124.006-24.099-169.106-63.828V226.875V226.944z"/>
<circle style="fill:#FCD34E;" cx="259.167" cy="392.951" r="79.871"/>
<path style="fill:#5FDC68;" d="M351.432,146.866v127.793h-18.728V130.548c0-96.947-139.43-96.947-139.43,0v144.112h-18.728V146.866
	c0-125.315,176.818-125.315,176.818,0H351.432z"/>
<circle style="fill:#83CF8F;" cx="259.167" cy="392.951" r="72.09"/>
<g>
	<path style="fill:#FFFFFF;" d="M219.094,373.81l24.719-6.748l6.748,24.719l-5.715-3.305l-11.017,19.141h17.007h-17.007
		c-8.4,14.666,2.272,24.306,18.935,24.306h-22.102c-7.918,0-14.666-3.925-18.659-10.741c-3.925-6.817-3.925-14.666,0-21.483
		l13.013-22.515l-5.853-3.374H219.094z"/>
	<path style="fill:#FFFFFF;" d="M264.469,437.018l-18.178-18.04l18.04-18.178v6.954h20.174l0,0
		c16.8,1.377,19.073-12.807,11.705-25.545l10.122,17.558c3.925,6.817,3.925,14.666,0,21.483s-10.741,10.741-18.659,10.741h-23.342
		v5.026H264.469z"/>
	<path style="fill:#FFFFFF;" d="M277.827,350.261l11.086,19.141l6.059-3.512l-6.541,24.788l-24.788-6.541l5.439-3.167l-9.915-17.145
		c-11.981-21.758-26.509,0.207-27.06,1.102l8.469-14.666c3.925-6.817,10.741-10.741,18.66-10.741s14.666,3.925,18.659,10.741
		H277.827z"/>
</g>
<g>
</g>
<g>
</g>
<g>
</g>
<g>
</g>
<g>
</g>
<g>
</g>
<g>
</g>
<g>
</g>
<g>
</g>
<g>
</g>
<g>
</g>
<g>
</g>
<g>
</g>
<g>
</g>
<g>
</g>
</svg>
