<?xml version="1.0" encoding="iso-8859-1"?>
<!-- Generator: Adobe Illustrator 19.0.0, SVG Export Plug-In . SVG Version: 6.00 Build 0)  -->
<svg version="1.1" id="Layer_1" xmlns="http://www.w3.org/2000/svg" xmlns:xlink="http://www.w3.org/1999/xlink" x="0px" y="0px"
	 viewBox="0 0 512 512" style="enable-background:new 0 0 512 512;" xml:space="preserve">
<circle style="fill:#E4E7ED;" cx="256" cy="256" r="256"/>
<path style="fill:#EEF3F7;" d="M58.939,196.785c-1.171,1.308-2.892,2.134-4.751,2.134c-3.512,0-6.403-2.892-6.403-6.403
	c0-2.823,1.79-5.164,4.269-6.059c0.207-3.236,1.928-6.128,4.476-7.849c-0.207-0.826-0.344-1.652-0.344-2.548
	c0-4.958,3.994-8.951,8.951-8.951c1.171,0,2.341,0.207,3.374,0.689c0.275-0.138,0.62-0.207,0.964-0.275
	c0.964-3.03,3.787-5.233,7.161-5.233c1.239,0,2.341,0.275,3.374,0.826c0.895-3.098,3.787-5.371,7.161-5.371
	c1.239,0,2.41,0.275,3.443,0.826c1.239-1.515,3.03-2.548,5.095-2.892c1.102-2.892,3.856-4.958,7.092-4.958
	c2.823,0,5.302,1.584,6.61,3.856c2.066-1.171,4.476-1.79,7.023-1.79c2.892,0,5.646,0.895,7.918,2.341
	c0.895-2.479,3.236-4.2,5.99-4.2c3.305,0,6.059,2.548,6.335,5.784c1.239-0.757,2.754-1.239,4.338-1.239
	c2.892,0,5.508,1.515,6.954,3.787c0.826-0.344,1.79-0.482,2.685-0.482c4.131,0,7.505,3.374,7.505,7.505
	c0,3.925-3.03,7.161-6.885,7.505c0.413,0.964,0.62,2.066,0.62,3.167c0,4.613-3.718,8.331-8.331,8.331
	c-1.584,0-3.098-0.482-4.338-1.239c0,3.512-2.892,6.335-6.403,6.335c-1.653,0-3.098-0.62-4.2-1.584
	c-0.757,0.964-1.653,1.721-2.685,2.341c0.207,0.689,0.275,1.377,0.275,2.134c0,4.062-3.305,7.299-7.299,7.299
	c-3.58,0-6.61-2.616-7.23-6.059c-0.689,0.138-1.446,0.207-2.203,0.207c-2.272,0-4.338-0.689-6.059-1.928
	c-1.859,3.236-5.371,5.439-9.364,5.439c-4.544,0-8.4-2.754-9.984-6.679c-2.685,2.961-6.61,4.889-10.948,4.889
	c-1.79,0-3.512-0.344-5.095-0.895c-1.653,1.171-3.649,1.79-5.784,1.79C61.074,197.336,59.972,197.13,58.939,196.785z"/>
<path style="fill:#FEFEFE;" d="M128.964,185.769c0.964,0.826,2.134,1.308,3.374,1.308c2.823,0,5.095-2.272,5.095-5.026v-2.272
	l1.928,1.171c1.102,0.689,2.41,1.033,3.718,1.033c3.856,0,7.023-3.167,7.023-7.023c0-0.895-0.207-1.859-0.551-2.685l-0.689-1.652
	l1.79-0.138c3.236-0.275,5.715-2.961,5.715-6.197c0-3.443-2.823-6.266-6.266-6.266c-0.757,0-1.515,0.138-2.272,0.413l-0.964,0.344
	l-0.551-0.895c-1.308-1.997-3.512-3.167-5.853-3.167c-1.308,0-2.548,0.344-3.649,1.033l-1.79,1.102l-0.207-2.066
	c-0.275-2.616-2.479-4.613-5.095-4.613c-2.134,0-4.062,1.377-4.82,3.374l-0.551,1.515l-1.377-0.895
	c-2.134-1.377-4.613-2.134-7.23-2.134c-2.272,0-4.407,0.551-6.403,1.652l-1.102,0.62l-0.62-1.102
	c-1.102-1.997-3.236-3.236-5.508-3.236c-2.616,0-4.958,1.652-5.921,4.131l-0.275,0.689l-0.757,0.138
	c-1.653,0.275-3.236,1.102-4.269,2.41l-0.689,0.757l-0.895-0.482c-0.895-0.413-1.859-0.689-2.823-0.689
	c-2.754,0-5.164,1.859-5.921,4.476l-0.413,1.515l-1.377-0.689c-0.895-0.413-1.79-0.689-2.754-0.689c-2.685,0-5.095,1.79-5.921,4.338
	l-0.207,0.689l-0.689,0.207c-0.275,0.069-0.551,0.138-0.826,0.275l-0.482,0.138l-0.413-0.207c-0.895-0.344-1.859-0.551-2.892-0.551
	c-4.2,0-7.643,3.443-7.643,7.643c0,0.757,0.069,1.446,0.275,2.134l0.275,0.895l-0.757,0.551c-2.272,1.584-3.787,4.062-3.925,6.885
	l-0.069,0.826l-0.826,0.275c-2.066,0.689-3.443,2.616-3.443,4.82c0,2.823,2.272,5.095,5.095,5.095c1.446,0,2.823-0.62,3.787-1.721
	l0.551-0.62l0.826,0.275c0.964,0.344,1.928,0.482,2.892,0.482c1.79,0,3.58-0.551,5.095-1.584l0.551-0.413l0.62,0.207
	c1.515,0.551,3.098,0.826,4.682,0.826c3.787,0,7.436-1.584,9.984-4.476l1.377-1.515l0.757,1.928c1.446,3.58,4.958,5.921,8.813,5.921
	c3.443,0,6.61-1.859,8.263-4.82l0.689-1.239l1.171,0.826c1.584,1.102,3.374,1.721,5.302,1.721c0.62,0,1.308-0.069,1.928-0.207
	l1.308-0.275l0.207,1.308c0.482,2.892,3.03,4.958,5.921,4.958c3.305,0,6.059-2.685,6.059-6.059c0-0.62-0.069-1.171-0.275-1.721
	l-0.275-0.964l0.895-0.482c0.895-0.482,1.653-1.171,2.341-1.997l0.826-1.102l1.033,0.895L128.964,185.769z"/>
<path style="fill:#FFFFFF;" d="M46.752,194.651h16.25h50.677h16.25c-2.754,33.67,8.194,96.327,19.83,129.446
	c0.482,1.377-0.275,2.961-1.653,3.443c-25.338,8.951-93.504,8.056-119.324-0.069c-0.689-0.207-1.239-0.689-1.584-1.377
	c-0.344-0.689-0.413-1.377-0.138-2.134c11.568-33.119,22.515-95.707,19.761-129.377L46.752,194.651z"/>
<path style="fill:#ECF0F1;" d="M46.752,194.651h16.181h50.677h16.181h0.069c-0.138,1.928-0.275,3.856-0.344,5.853
	c-8.125-2.41-23.548-4.062-41.244-4.062s-33.119,1.653-41.244,4.062c-0.069-1.997-0.207-3.994-0.344-5.853H46.752z"/>
<path style="fill:#FF7069;" d="M88.271,188.729c19.899,0,36.906,2.066,43.929,5.026v5.99c-6.954-2.961-24.03-5.026-43.929-5.026
	s-36.906,2.066-43.929,5.026v-5.99C51.296,190.795,68.372,188.729,88.271,188.729z"/>
<g>
	<path style="fill:#F7635B;" d="M47.096,203.464c-1.239-0.895-2.479-2.134-2.754-3.787c0.757-0.344,1.653-0.62,2.616-0.895
		c0.069,1.515,0.138,3.098,0.138,4.751V203.464z"/>
	<path style="fill:#F7635B;" d="M129.446,203.464c1.239-0.895,2.479-2.134,2.754-3.787c-0.757-0.344-1.652-0.62-2.616-0.895
		c-0.069,1.515-0.138,3.098-0.138,4.751V203.464z"/>
</g>
<circle style="fill:#FFE356;" cx="88.271" cy="255.656" r="23.479"/>
<g>
	<circle style="fill:#6C7678;" cx="88.271" cy="255.656" r="4.2"/>
	<path style="fill:#6C7678;" d="M80.491,275.83c-8.125-3.167-13.84-11.017-13.84-20.243c0-1.102,0.069-2.272,0.275-3.374
		l15.423,2.754c-0.138,1.239,0.138,2.479,0.757,3.58c0.62,1.102,1.653,1.997,2.754,2.479l-5.302,14.735L80.491,275.83z"/>
	<path style="fill:#6C7678;" d="M109.685,252.282c0.138,1.102,0.275,2.203,0.275,3.374c0,9.226-5.715,17.076-13.84,20.243
		l-5.302-14.735c1.102-0.482,2.066-1.308,2.754-2.479c0.62-1.102,0.895-2.41,0.757-3.58l15.423-2.754L109.685,252.282z"/>
	<path style="fill:#6C7678;" d="M88.271,233.967c5.164,0,9.846,1.79,13.564,4.82l-10.122,11.981
		c-0.964-0.689-2.203-1.102-3.512-1.102s-2.548,0.413-3.512,1.102l-10.122-11.981c3.718-3.03,8.469-4.82,13.564-4.82H88.271z"/>
</g>
<path style="fill:#75BD80;" d="M57.149,310.808c127.105,0,236.17,76.979,283.266,186.87c-26.44,9.226-54.808,14.253-84.415,14.253
	c-121.115,0-222.537-84.071-249.183-197.061c16.387-2.685,33.188-4.131,50.332-4.131V310.808z"/>
<path style="fill:#EEF3F7;" d="M369.678,217.855c-1.171,1.308-2.892,2.134-4.751,2.134c-3.512,0-6.403-2.892-6.403-6.403
	c0-2.823,1.79-5.164,4.269-6.059c0.207-3.236,1.928-6.128,4.476-7.849c-0.207-0.826-0.344-1.653-0.344-2.548
	c0-4.958,3.994-8.951,8.951-8.951c1.171,0,2.341,0.207,3.374,0.689c0.344-0.138,0.62-0.207,0.964-0.275
	c0.964-3.03,3.787-5.233,7.161-5.233c1.239,0,2.341,0.275,3.374,0.826c0.895-3.098,3.787-5.371,7.161-5.371
	c1.239,0,2.41,0.275,3.443,0.826c1.239-1.515,3.03-2.548,5.095-2.892c1.102-2.892,3.856-4.958,7.092-4.958
	c2.823,0,5.302,1.584,6.61,3.856c2.066-1.171,4.476-1.79,7.023-1.79c2.892,0,5.646,0.895,7.918,2.341
	c0.895-2.479,3.236-4.2,5.99-4.2c3.305,0,6.059,2.548,6.335,5.784c1.239-0.757,2.754-1.239,4.338-1.239
	c2.892,0,5.508,1.515,6.954,3.787c0.826-0.344,1.79-0.482,2.685-0.482c4.131,0,7.505,3.374,7.505,7.505
	c0,3.925-3.03,7.161-6.885,7.505c0.413,0.964,0.62,2.066,0.62,3.167c0,4.613-3.718,8.331-8.331,8.331
	c-1.584,0-3.098-0.482-4.338-1.239c-0.069,3.512-2.892,6.335-6.403,6.335c-1.653,0-3.098-0.62-4.2-1.584
	c-0.757,0.964-1.652,1.721-2.685,2.341c0.207,0.689,0.275,1.377,0.275,2.134c0,4.062-3.305,7.299-7.299,7.299
	c-3.58,0-6.61-2.616-7.23-6.059c-0.689,0.138-1.446,0.207-2.203,0.207c-2.272,0-4.338-0.689-6.059-1.928
	c-1.859,3.236-5.371,5.439-9.433,5.439c-4.544,0-8.4-2.754-9.984-6.679c-2.685,2.961-6.61,4.889-10.948,4.889
	c-1.79,0-3.512-0.344-5.095-0.895c-1.652,1.171-3.649,1.79-5.784,1.79c-1.171,0-2.272-0.207-3.305-0.551H369.678z"/>
<path style="fill:#FEFEFE;" d="M439.703,206.838c0.964,0.826,2.134,1.308,3.374,1.308c2.823,0,5.095-2.272,5.095-5.026v-2.272
	l1.928,1.171c1.102,0.689,2.41,1.033,3.718,1.033c3.856,0,7.023-3.167,7.023-7.023c0-0.895-0.207-1.859-0.551-2.685l-0.689-1.652
	l1.79-0.138c3.236-0.275,5.715-2.961,5.715-6.197c0-3.443-2.823-6.266-6.266-6.266c-0.757,0-1.515,0.138-2.272,0.413l-0.964,0.344
	l-0.551-0.895c-1.308-1.997-3.512-3.167-5.853-3.167c-1.308,0-2.548,0.344-3.649,1.033l-1.79,1.102l-0.207-2.066
	c-0.275-2.616-2.479-4.613-5.095-4.613c-2.134,0-4.062,1.377-4.82,3.374l-0.551,1.515l-1.377-0.895
	c-2.134-1.377-4.613-2.134-7.23-2.134c-2.272,0-4.407,0.551-6.403,1.653l-1.102,0.62l-0.62-1.102
	c-1.102-1.997-3.236-3.236-5.508-3.236c-2.616,0-4.958,1.652-5.921,4.131l-0.275,0.689l-0.757,0.138
	c-1.652,0.275-3.236,1.102-4.269,2.41l-0.689,0.757l-0.895-0.482c-0.895-0.413-1.859-0.689-2.823-0.689
	c-2.754,0-5.164,1.859-5.921,4.476l-0.413,1.515l-1.377-0.689c-0.895-0.413-1.79-0.689-2.754-0.689c-2.685,0-5.095,1.79-5.921,4.338
	l-0.207,0.689l-0.689,0.207c-0.275,0.069-0.551,0.138-0.826,0.275l-0.482,0.138l-0.413-0.207c-0.895-0.344-1.859-0.551-2.892-0.551
	c-4.2,0-7.643,3.443-7.643,7.643c0,0.757,0.138,1.446,0.275,2.134l0.275,0.895l-0.757,0.551c-2.272,1.584-3.787,4.062-3.925,6.885
	l-0.069,0.826l-0.826,0.275c-2.066,0.689-3.443,2.616-3.443,4.82c0,2.823,2.272,5.095,5.095,5.095c1.446,0,2.823-0.62,3.787-1.721
	l0.551-0.62l0.826,0.275c0.964,0.344,1.928,0.482,2.892,0.482c1.79,0,3.58-0.551,5.095-1.584l0.551-0.413l0.62,0.207
	c1.515,0.551,3.098,0.826,4.682,0.826c3.787,0,7.436-1.584,9.984-4.476l1.377-1.515l0.757,1.928c1.446,3.58,4.958,5.921,8.813,5.921
	c3.443,0,6.61-1.859,8.263-4.82l0.689-1.239l1.171,0.826c1.584,1.102,3.374,1.721,5.302,1.721c0.62,0,1.308-0.069,1.928-0.207
	l1.308-0.275l0.207,1.308c0.482,2.892,3.03,4.958,5.921,4.958c3.305,0,6.059-2.685,6.059-6.059c0-0.62-0.069-1.171-0.275-1.721
	l-0.275-0.964l0.895-0.482c0.895-0.482,1.652-1.171,2.341-1.997l0.826-1.102l1.033,0.895L439.703,206.838z"/>
<path style="fill:#FFFFFF;" d="M357.491,215.72h16.25h50.677h16.25c-2.754,33.67,8.194,96.327,19.83,129.446
	c0.482,1.377-0.275,2.961-1.653,3.443c-25.338,8.951-93.504,8.056-119.324-0.069c-0.689-0.207-1.239-0.689-1.584-1.377
	c-0.344-0.689-0.413-1.377-0.138-2.134c11.568-33.119,22.515-95.707,19.761-129.377L357.491,215.72z"/>
<path style="fill:#ECF0F1;" d="M357.491,215.72h16.181h50.677h16.181h0.069c-0.138,1.928-0.275,3.856-0.344,5.853
	c-8.125-2.41-23.548-4.062-41.244-4.062c-17.696,0-33.119,1.652-41.244,4.062c-0.069-1.997-0.207-3.994-0.344-5.853H357.491z"/>
<path style="fill:#FF7069;" d="M399.01,209.73c19.899,0,36.906,2.066,43.929,5.026v5.99c-6.954-2.961-24.03-5.026-43.929-5.026
	c-19.899,0-36.906,2.066-43.929,5.026v-5.99C362.035,211.796,379.111,209.73,399.01,209.73z"/>
<g>
	<path style="fill:#F7635B;" d="M357.835,224.534c-1.239-0.895-2.479-2.134-2.754-3.787c0.757-0.344,1.652-0.62,2.616-0.895
		c0.069,1.515,0.138,3.098,0.138,4.751V224.534z"/>
	<path style="fill:#F7635B;" d="M440.185,224.534c1.239-0.895,2.479-2.134,2.754-3.787c-0.757-0.344-1.653-0.62-2.616-0.895
		c-0.069,1.515-0.138,3.098-0.138,4.751V224.534z"/>
</g>
<circle style="fill:#FFE356;" cx="399.01" cy="276.656" r="23.479"/>
<g>
	<circle style="fill:#6C7678;" cx="399.01" cy="276.656" r="4.2"/>
	<path style="fill:#6C7678;" d="M391.23,296.899c-8.125-3.167-13.84-11.017-13.84-20.243c0-1.102,0.069-2.272,0.275-3.374
		l15.423,2.754c-0.138,1.239,0.138,2.479,0.757,3.58c0.62,1.102,1.652,1.997,2.754,2.479l-5.302,14.735L391.23,296.899z"/>
	<path style="fill:#6C7678;" d="M420.424,273.351c0.138,1.102,0.275,2.203,0.275,3.374c0,9.226-5.715,17.076-13.84,20.243
		l-5.302-14.735c1.102-0.482,2.066-1.308,2.754-2.479c0.62-1.102,0.895-2.41,0.757-3.58l15.423-2.754L420.424,273.351z"/>
	<path style="fill:#6C7678;" d="M399.01,255.036c5.164,0,9.846,1.79,13.564,4.82l-10.122,11.981
		c-0.964-0.689-2.203-1.102-3.512-1.102s-2.548,0.413-3.512,1.102l-10.122-11.981c3.718-3.03,8.469-4.82,13.564-4.82H399.01z"/>
</g>
<path style="fill:#83CF8F;" d="M287.053,313.631c74.913,0,145.558,12.669,207.595,34.978C457.536,444.247,364.652,512,255.931,512
	c-100.114,0-186.87-57.493-228.871-141.289C100.389,334.769,190.107,313.631,287.053,313.631z"/>
<ellipse style="fill:#75BD80;" cx="283.335" cy="346.819" rx="148.105" ry="19.486"/>
<path style="fill:#EEF3F7;" d="M194.031,126.003c-2.134,2.41-5.302,3.925-8.813,3.925c-6.541,0-11.774-5.302-11.774-11.774
	c0-5.164,3.305-9.502,7.918-11.154c0.344-6.059,3.58-11.292,8.331-14.459c-0.413-1.446-0.689-3.03-0.689-4.682
	c0-9.089,7.367-16.456,16.456-16.456c2.203,0,4.269,0.413,6.197,1.239c0.551-0.207,1.171-0.344,1.721-0.482
	c1.79-5.577,7.023-9.708,13.22-9.708c2.203,0,4.338,0.551,6.197,1.446c1.653-5.784,6.954-9.984,13.289-9.984
	c2.272,0,4.407,0.551,6.266,1.515c2.341-2.754,5.646-4.751,9.433-5.302c1.997-5.302,7.092-9.158,13.151-9.158
	c5.233,0,9.846,2.892,12.256,7.161c3.856-2.134,8.263-3.305,12.945-3.305c5.371,0,10.397,1.584,14.597,4.338
	c1.652-4.544,5.99-7.849,11.086-7.849c6.128,0,11.223,4.682,11.774,10.672c2.341-1.446,5.095-2.272,7.987-2.272
	c5.371,0,10.122,2.754,12.807,6.954c1.584-0.62,3.236-0.964,5.026-0.964c7.712,0,13.909,6.197,13.909,13.909
	c0,7.299-5.577,13.22-12.738,13.84c0.757,1.79,1.171,3.787,1.171,5.921c0,8.469-6.885,15.354-15.354,15.354
	c-2.961,0-5.715-0.826-8.056-2.272c-0.069,6.472-5.302,11.705-11.774,11.705c-2.961,0-5.715-1.102-7.781-2.961
	c-1.377,1.721-3.03,3.167-4.957,4.269c0.344,1.239,0.551,2.548,0.551,3.925c0,7.436-6.059,13.495-13.495,13.495
	c-6.679,0-12.187-4.82-13.289-11.154c-1.308,0.275-2.685,0.413-4.062,0.413c-4.131,0-7.987-1.308-11.154-3.58
	c-3.443,5.99-9.915,10.053-17.351,10.053c-8.331,0-15.492-5.095-18.522-12.394c-4.958,5.508-12.187,9.02-20.174,9.02
	c-3.305,0-6.472-0.62-9.433-1.721c-3.03,2.134-6.748,3.305-10.672,3.305c-2.134,0-4.2-0.344-6.128-1.033L194.031,126.003z"/>
<path style="fill:#FEFEFE;" d="M323.202,105.691c1.721,1.515,3.925,2.341,6.266,2.341c5.164,0,9.364-4.131,9.433-9.295l0.069-4.2
	l3.58,2.203c2.066,1.239,4.407,1.928,6.817,1.928c7.161,0,13.013-5.784,13.013-13.013c0-1.721-0.344-3.374-0.964-5.026l-1.239-3.03
	l3.236-0.275c5.921-0.482,10.535-5.508,10.535-11.499c0-6.335-5.164-11.499-11.499-11.499c-1.446,0-2.823,0.275-4.131,0.757
	l-1.79,0.689l-1.033-1.653c-2.41-3.649-6.472-5.921-10.81-5.921c-2.41,0-4.751,0.689-6.748,1.928l-3.236,1.997l-0.344-3.787
	c-0.482-4.82-4.544-8.538-9.364-8.538c-3.994,0-7.505,2.479-8.882,6.266l-1.033,2.823l-2.548-1.653
	c-3.994-2.616-8.538-3.925-13.289-3.925c-4.131,0-8.194,1.033-11.774,3.03l-2.066,1.171l-1.171-2.066
	c-2.066-3.649-5.921-5.99-10.122-5.99c-4.889,0-9.226,3.03-10.879,7.574l-0.482,1.308l-1.377,0.207
	c-3.098,0.482-5.921,2.066-7.918,4.476l-1.239,1.446l-1.721-0.895c-1.584-0.826-3.374-1.239-5.233-1.239
	c-5.095,0-9.571,3.374-11.017,8.263l-0.826,2.754l-2.548-1.308c-1.584-0.826-3.374-1.239-5.164-1.239
	c-5.026,0-9.433,3.236-10.948,7.987l-0.413,1.239l-1.239,0.344c-0.551,0.138-1.033,0.275-1.584,0.482l-0.826,0.275l-0.826-0.344
	c-1.721-0.689-3.512-1.033-5.302-1.033c-7.781,0-14.115,6.335-14.115,14.115c0,1.377,0.207,2.685,0.551,3.994l0.482,1.652
	l-1.446,0.964c-4.269,2.892-6.954,7.505-7.23,12.669l-0.069,1.584l-1.515,0.551c-3.787,1.308-6.335,4.889-6.335,8.882
	c0,5.233,4.2,9.433,9.433,9.433c2.685,0,5.233-1.102,7.023-3.167l1.033-1.171l1.515,0.482c1.721,0.62,3.512,0.895,5.371,0.895
	c3.374,0,6.61-1.033,9.364-2.892l1.033-0.689l1.171,0.413c2.754,1.033,5.646,1.515,8.607,1.515c7.023,0,13.702-2.961,18.384-8.194
	l2.548-2.823l1.446,3.512c2.685,6.61,9.158,10.948,16.318,10.948c6.335,0,12.118-3.374,15.286-8.882l1.308-2.272l2.134,1.515
	c2.892,2.066,6.266,3.098,9.777,3.098c1.171,0,2.41-0.138,3.58-0.344l2.41-0.551l0.413,2.41c0.895,5.302,5.577,9.226,10.948,9.226
	c6.128,0,11.154-4.958,11.154-11.154c0-1.102-0.138-2.134-0.482-3.236l-0.551-1.859l1.652-0.964
	c1.653-0.895,3.098-2.203,4.269-3.649l1.584-1.997l1.928,1.652L323.202,105.691z"/>
<path style="fill:#FFFFFF;" d="M171.447,122.079h29.952h93.573h29.952c-5.026,62.244,15.217,159.466,36.562,220.54
	c0.895,2.616-0.482,5.439-3.03,6.335c-46.752,16.525-172.686,14.873-220.265-0.138c-1.308-0.413-2.341-1.239-2.961-2.548
	c-0.62-1.239-0.689-2.548-0.275-3.856c21.345-61.143,41.519-158.227,36.493-220.402V122.079z"/>
<path style="fill:#ECF0F1;" d="M171.516,122.079h29.883h93.573h29.883h0.069c-0.275,3.512-0.482,7.092-0.62,10.81
	c-15.01-4.476-43.447-7.574-76.153-7.574c-32.637,0-61.143,3.03-76.153,7.505c-0.138-3.718-0.344-7.299-0.62-10.81h0.069
	L171.516,122.079z"/>
<path style="fill:#FF7069;" d="M248.151,111.062c36.768,0,68.166,3.856,81.11,9.295v11.017c-12.876-5.439-44.342-9.295-81.11-9.295
	s-68.166,3.856-81.11,9.295v-11.017C179.916,114.918,211.382,111.062,248.151,111.062z"/>
<g>
	<path style="fill:#ED4C54;" d="M172.204,138.397c-2.272-1.653-4.613-3.994-5.095-7.023c1.377-0.62,3.03-1.171,4.82-1.721
		C172.067,132.476,172.136,135.436,172.204,138.397z"/>
	<path style="fill:#ED4C54;" d="M324.166,138.397c2.272-1.653,4.613-3.994,5.095-7.023c-1.377-0.62-3.03-1.171-4.82-1.721
		C324.303,132.476,324.235,135.436,324.166,138.397z"/>
</g>
<circle style="fill:#FFE356;" cx="248.219" cy="234.655" r="43.378"/>
<g>
	<circle style="fill:#6C7678;" cx="248.219" cy="234.655" r="7.712"/>
	<path style="fill:#6C7678;" d="M233.76,271.974c-14.941-5.784-25.545-20.312-25.545-37.319c0-2.066,0.138-4.131,0.482-6.197
		l28.437,5.095c-0.207,2.203,0.207,4.544,1.446,6.61c1.171,2.066,2.961,3.649,5.026,4.544l-9.777,27.197L233.76,271.974z"/>
	<path style="fill:#6C7678;" d="M287.742,228.458c0.344,1.997,0.482,4.062,0.482,6.197c0,17.007-10.604,31.535-25.614,37.319
		l-9.777-27.197c2.066-0.895,3.787-2.479,5.026-4.544c1.239-2.066,1.652-4.407,1.446-6.61l28.437-5.095V228.458z"/>
	<path style="fill:#6C7678;" d="M248.219,194.651c9.502,0,18.246,3.305,25.132,8.882l-18.66,22.033
		c-1.859-1.308-4.062-2.066-6.472-2.066s-4.613,0.757-6.472,2.066l-18.659-22.033C229.973,198.025,238.649,194.651,248.219,194.651z
		"/>
</g>
<g>
</g>
<g>
</g>
<g>
</g>
<g>
</g>
<g>
</g>
<g>
</g>
<g>
</g>
<g>
</g>
<g>
</g>
<g>
</g>
<g>
</g>
<g>
</g>
<g>
</g>
<g>
</g>
<g>
</g>
</svg>
