<?xml version="1.0" encoding="iso-8859-1"?>
<!-- Generator: Adobe Illustrator 19.0.0, SVG Export Plug-In . SVG Version: 6.00 Build 0)  -->
<svg version="1.1" id="Layer_1" xmlns="http://www.w3.org/2000/svg" xmlns:xlink="http://www.w3.org/1999/xlink" x="0px" y="0px"
	 viewBox="0 0 511.8 511.8" style="enable-background:new 0 0 511.8 511.8;" xml:space="preserve">
<path style="fill:#FF7069;" d="M255.9,0c141.4,0,255.9,114.7,255.9,255.9c0,141.4-114.7,255.9-255.9,255.9
	C114.5,511.9,0,397.2,0,255.9C0,114.5,114.7,0,255.9,0z"/>
<g>
	<path style="fill:#FFE356;" d="M253.7,87.3L253.7,87.3c0.1,0,0.1,0,0.1,0H253.7z"/>
	<path style="fill:#FFE356;" d="M253.8,87.3c-64.5,0-117.2,52.8-117.2,117.3v232.5c0,10.3,8.4,18.7,18.7,18.7h197.1
		c10.3,0,18.7-8.4,18.7-18.7V204.6C371,140.1,318.2,87.3,253.8,87.3z M253.7,138.5c-6.2,0-11.1-5-11.1-11.1c0-6.2,5-11.1,11.1-11.1
		c6.2,0,11.1,5,11.1,11.1C264.8,133.6,259.8,138.5,253.7,138.5z"/>
</g>
<path style="fill:#FCD34E;" d="M253.7,104.4c-12.8,0-23.2,10.4-23.2,23.2s10.4,23.2,23.2,23.2s23.2-10.4,23.2-23.2
	S266.5,104.4,253.7,104.4z M253.7,143c-8.4,0-15.4-6.8-15.4-15.4c0-8.4,6.8-15.4,15.4-15.4c8.4,0,15.4,6.8,15.4,15.4
	C269.1,136,262.3,143,253.7,143z"/>
<path style="fill:#E4E7ED;" d="M253.7,112.2c-8.6,0-15.4,7-15.4,15.4c0,8.6,7,15.4,15.4,15.4c8.6,0,15.4-7,15.4-15.4
	C269.1,119,262.1,112.2,253.7,112.2z M253.7,138.5c-6.2,0-11.1-5-11.1-11.1c0-6.2,5-11.1,11.1-11.1c6.2,0,11.1,5,11.1,11.1
	C264.8,133.6,259.8,138.5,253.7,138.5z"/>
<path style="fill:#FCD34E;" d="M253.7,235.7c41.2,0,74.6,33.4,74.6,74.6S294.9,385,253.7,385S179,351.5,179,310.3
	S212.5,235.7,253.7,235.7z"/>
<path style="fill:#FEFEFE;" d="M253.7,240.8c38.4,0,69.6,31.2,69.6,69.6S292.1,380,253.7,380s-69.6-31.2-69.6-69.6
	S215.3,240.8,253.7,240.8z"/>
<g>
	<path style="fill:#5FDC68;" d="M212.8,292.8L238,286l6.8,25.3L239,308l-11.3,19.6h17.4l-11.5,11.6l13.4,13.3h-22.6
		c-8,0-15-3.9-19.1-11.1c-4.1-7-4.1-15,0-22l13.3-23l-6.1-3.4L212.8,292.8z"/>
	<path style="fill:#5FDC68;" d="M259.1,357.4L240.4,339l18.4-18.7v7.1h20.7l-9-15.4l16.9,4.5l3.9-15.1l10.4,18c4.1,7,4.1,15,0,22
		s-10.9,11.1-19.1,11.1h-23.8v5.1L259.1,357.4z"/>
	<path style="fill:#5FDC68;" d="M272.8,268.7l11.3,19.6l6.2-3.6l-6.7,25.4l-25.4-6.7l5.7-3.3l-10.1-17.5l-7.4,12.8l-4.2-15.4
		l-16.6,4.5l9.1-15.8c4.1-7,10.9-11.1,19.1-11.1C261.7,257.6,268.7,261.6,272.8,268.7z"/>
</g>
<g>
	<path style="fill:#75BD80;" d="M242.1,279.9l4.2,15.4l7.4-12.8c-12.5-22.6-27.8,1.2-27.8,1.2l-0.4,0.7L242.1,279.9z"/>
	<path style="fill:#75BD80;" d="M287.7,316.5l-16.9-4.5l9,15.4c17.2,1.3,19.5-13,12-26.1l-3.9,15.1h-0.2V316.5z"/>
	<path style="fill:#75BD80;" d="M233.7,339l11.5-11.6h-17.4c-8.6,15,2.4,24.9,19.4,24.9L233.7,339z"/>
</g>
<path style="fill:#FFFFFF;" d="M248.8,117.6c0.9-1.1,4.5-1.6,6.5-1.1c-0.1,2,0,5.3,0.4,8c0.3,2.1,0.1,2.6,1.7,4.1
	c12.9,11.8,55.3-0.4,96.8-21.3c15.8-7.9,31.5-17.2,45.3-26.9c8.7-6.1,16.7-12.4,23.6-18.6c1.7,1.4,3.3,2.9,5,4.3
	c-7.2,6.6-15.5,13.2-24.8,19.6c-14.1,9.9-30,19.4-46.1,27.4c-46.1,23.2-93.9,35.3-106.8,17.5c-2.2-4.3-1.8-10.5-1.7-13.3
	L248.8,117.6z M360.6,22.2c-5.8,2.6-11.7,5.5-17.5,8.7C320.3,43.2,284.8,67,270,88.5c-2.4-0.3-4.9-0.5-7.4-0.7
	c15.3-24.2,52.3-49.2,77.3-62.7c4.1-2.2,8.3-4.3,12.4-6.3c2.8,1.2,5.5,2.2,8.2,3.6L360.6,22.2z"/>
<path style="fill:#FCD34E;" d="M139.3,446.8h228.9c-3.3,5.4-9.2,9-15.9,9H155.2C148.5,455.8,142.6,452.2,139.3,446.8z"/>
<g>
</g>
<g>
</g>
<g>
</g>
<g>
</g>
<g>
</g>
<g>
</g>
<g>
</g>
<g>
</g>
<g>
</g>
<g>
</g>
<g>
</g>
<g>
</g>
<g>
</g>
<g>
</g>
<g>
</g>
</svg>
