<?xml version="1.0" encoding="iso-8859-1"?>
<!-- Generator: Adobe Illustrator 19.0.0, SVG Export Plug-In . SVG Version: 6.00 Build 0)  -->
<svg version="1.1" id="Layer_1" xmlns="http://www.w3.org/2000/svg" xmlns:xlink="http://www.w3.org/1999/xlink" x="0px" y="0px"
	 viewBox="0 0 511.88 511.88" style="enable-background:new 0 0 511.88 511.88;" xml:space="preserve">
<circle style="fill:#E4E7ED;" cx="255.94" cy="255.94" r="255.94"/>
<path style="fill:#FFFFFF;" d="M175.13,283.913h80.811h80.811c3.945,30.722-17.453,65.509-37.775,84.038h-83.919
	C194.735,349.422,171.185,314.636,175.13,283.913z"/>
<path style="fill:#F7F9F7;" d="M336.87,283.913c3.945,30.722-17.453,65.509-37.775,84.038h-16.616
	C327.666,347.032,336.87,283.913,336.87,283.913z"/>
<path style="fill:#FFFFFF;" d="M215.057,367.951h83.919v14.226c0,3.706-2.989,6.694-6.694,6.694h-70.65
	c-3.706,0-6.694-2.989-6.694-6.694v-14.226H215.057z"/>
<path style="fill:#F7F9F7;" d="M222.707,388.871h68.617v48.654c0,6.933-5.618,12.552-12.552,12.552h-43.513
	c-6.933,0-12.552-5.618-12.552-12.552V388.871z"/>
<g>
	<path style="fill:#FFFFFF;" d="M221.512,397.598h72.084c2.271,0,4.184,1.913,4.184,4.184l0,0c0,2.271-1.913,4.184-4.184,4.184
		h-72.084c-2.271,0-4.184-1.913-4.184-4.184l0,0C217.328,399.511,219.241,397.598,221.512,397.598z"/>
	<path style="fill:#FFFFFF;" d="M221.512,413.856h72.084c2.271,0,4.184,1.913,4.184,4.184l0,0c0,2.271-1.913,4.184-4.184,4.184
		h-72.084c-2.271,0-4.184-1.913-4.184-4.184l0,0C217.328,415.768,219.241,413.856,221.512,413.856z"/>
	<path style="fill:#FFFFFF;" d="M221.512,429.994h72.084c2.271,0,4.184,1.913,4.184,4.184l0,0c0,2.271-1.913,4.184-4.184,4.184
		h-72.084c-2.271,0-4.184-1.913-4.184-4.184l0,0C217.328,431.907,219.241,429.994,221.512,429.994z"/>
</g>
<path style="fill:#6C7678;" d="M278.295,450.077c-3.347,7.77-11.596,13.269-21.279,13.269c-9.683,0-17.931-5.499-21.279-13.269
	H278.295z"/>
<g>
	<path style="fill:#56BF5D;" d="M289.532,209.677c-8.607,6.455-10.281,15.541-10.161,25.941v21.039h22.594v-23.072
		c0,0,1.315-11.954,9.085-15.541c-0.239-14.704-15.78-12.791-21.518-8.488V209.677z"/>
	<path style="fill:#56BF5D;" d="M303.757,161.263c0,0-77.463,31.559-98.264,40.405c-13.15,6.814-7.412,27.256,9.683,21.876
		c5.977-1.913,81.647-36.7,93.482-39.21c11.715-2.51,9.922-24.028-4.782-23.072H303.757z"/>
	<path style="fill:#56BF5D;" d="M303.04,127.432c0,0-85.114,31.559-108.066,40.405c-14.465,6.814-8.129,27.256,10.639,21.876
		c6.575-1.913,89.776-36.7,102.687-39.21C321.21,147.993,319.178,126.476,303.04,127.432z"/>
	<path style="fill:#56BF5D;" d="M301.008,93.96c0,0-85.114,31.559-108.066,40.405c-14.465,6.814-8.129,27.256,10.639,21.876
		c6.575-1.913,89.776-36.7,102.687-39.21C319.178,114.522,317.146,93.004,301.008,93.96z"/>
</g>
<path style="fill:#F7F9F7;" d="M190.551,265.743h65.509h65.509c2.51,7.292,9.922,13.269,15.421,18.17h-80.811h-80.811
	c5.499-5.021,12.911-10.878,15.421-18.17H190.551z"/>
<g>
	<path style="fill:#FFFFFF;" d="M206.928,256.657h25.702c1.674,0,2.989,1.315,2.989,2.989v6.097h-31.679v-6.097
		C203.939,257.972,205.254,256.657,206.928,256.657z"/>
	<path style="fill:#FFFFFF;" d="M278.892,256.657h26.538c1.435,0,2.51,1.195,2.51,2.51v6.455h-31.679v-6.455
		c0-1.435,1.195-2.51,2.51-2.51H278.892z"/>
</g>
<path style="fill:#56BF5D;" d="M301.008,59.891c0,0-85.114,31.559-108.066,40.405c-14.465,6.814-8.129,27.256,10.639,21.876
	c6.575-1.913,89.776-36.7,102.687-39.21C319.178,80.452,317.146,58.934,301.008,59.891z"/>
<g>
	<path style="fill:#5FDC68;" d="M197.006,167.718c0,0,92.765,19.964,113.565,28.81c13.15,6.814,5.738,26.897-11.357,21.398
		c-5.977-1.913-95.275-24.626-107.11-27.256c-11.715-2.51-9.922-24.028,4.782-23.072L197.006,167.718z"/>
	<path style="fill:#5FDC68;" d="M197.006,134.007c0,0,92.765,19.964,113.565,28.81c13.15,6.814,5.738,26.897-11.357,21.398
		c-5.977-1.913-95.275-24.626-107.11-27.256c-11.715-2.51-9.922-24.028,4.782-23.072L197.006,134.007z"/>
</g>
<path style="fill:#56BF5D;" d="M257.853,41.84c0,0-41.959,16.019-64.792,24.865c-14.465,6.814-8.129,27.256,10.639,21.876
	c6.575-1.913,46.622-21.039,59.532-23.669c12.911-2.51,10.878-24.028-5.26-23.072H257.853z"/>
<g>
	<path style="fill:#5FDC68;" d="M197.006,100.296c0,0,92.765,19.964,113.565,28.81c13.15,6.814,5.738,26.897-11.357,21.398
		c-5.977-1.913-95.275-24.626-107.11-27.256c-11.715-2.51-9.922-24.028,4.782-23.072L197.006,100.296z"/>
	<path style="fill:#5FDC68;" d="M197.006,66.705c0,0,92.765,19.964,113.565,28.81c13.15,6.814,5.738,26.897-11.357,21.398
		c-5.977-1.913-95.275-24.626-107.11-27.256c-11.715-2.51-9.922-24.028,4.782-23.072L197.006,66.705z"/>
	<path style="fill:#5FDC68;" d="M218.165,201.788c9.444,6.814,12.791,23.311,12.791,33.83v21.039h-22.594v-23.072
		c0,0-0.598-5.379-3.347-10.042c-3.108-1.435-4.662-3.706-5.738-5.499c-5.379-16.855,12.313-21.159,19.007-16.377L218.165,201.788z"
		/>
	<path style="fill:#5FDC68;" d="M238.607,39.449c0,0,51.164,12.074,71.965,20.92c13.15,6.814,5.738,26.897-11.357,21.398
		c-5.977-1.913-53.675-16.736-65.509-19.366c-11.715-2.51-9.922-24.028,4.782-23.072L238.607,39.449z"/>
</g>
<path style="fill:#4FB379;" d="M239.682,39.688l18.17,1.793c0,0,7.292-0.478,11.715,5.858L239.682,39.688z"/>
<g>
	<polygon style="fill:#DCE3DB;" points="291.444,395.446 236.216,388.871 291.444,388.871 	"/>
	<polygon style="fill:#DCE3DB;" points="291.444,412.66 236.216,406.085 291.444,406.085 	"/>
	<polygon style="fill:#DCE3DB;" points="291.444,428.798 236.216,422.224 291.444,422.224 	"/>
</g>
<path style="fill:#5FDC68;" d="M255.701,350.498c27.614-33.233-11.835-80.93-61.923-40.405c0,0,14.704-3.108,21.518,3.347
	c9.324,8.727,0.359,36.46,40.286,37.178L255.701,350.498z"/>
<path style="fill:#56BF5D;" d="M205.493,302.084c-3.825,2.152-7.651,4.782-11.596,8.009c0,0,14.704-3.108,21.518,3.347
	c2.63,2.391,3.706,6.216,4.901,10.52l0,0c0.359-4.304-2.271-20.442-14.943-21.876H205.493z"/>
<path style="fill:#6C7678;" d="M255.223,350.498c-2.391-21.398-14.106-52.001-37.536-48.056
	c24.506-5.379,37.536,23.55,40.286,45.067l2.032,22.235l-3.228,0.239l-1.554-19.605V350.498z"/>
<path style="fill:#5FDC68;" d="M264.189,350.02c-5.14-19.485,26.06-32.396,40.286-5.499c0,0-6.455-4.184-11.357-2.749
	C286.424,343.684,283.794,357.312,264.189,350.02z"/>
<path style="fill:#56BF5D;" d="M300.769,338.903c1.315,1.674,2.51,3.467,3.586,5.618c0,0-6.455-4.184-11.357-2.749
	c-1.913,0.598-3.347,1.913-5.021,3.586l0,0c0.837-1.913,6.216-8.368,12.791-6.575V338.903z"/>
<path style="fill:#6C7678;" d="M294.792,336.751c-25.821-6.097-33.352,15.899-37.656,27.614l1.195,4.184
	C262.276,357.193,268.97,334.24,294.792,336.751z"/>
<g>
</g>
<g>
</g>
<g>
</g>
<g>
</g>
<g>
</g>
<g>
</g>
<g>
</g>
<g>
</g>
<g>
</g>
<g>
</g>
<g>
</g>
<g>
</g>
<g>
</g>
<g>
</g>
<g>
</g>
</svg>
