<?xml version="1.0" encoding="iso-8859-1"?>
<!-- Generator: Adobe Illustrator 19.0.0, SVG Export Plug-In . SVG Version: 6.00 Build 0)  -->
<svg version="1.1" id="Layer_1" xmlns="http://www.w3.org/2000/svg" xmlns:xlink="http://www.w3.org/1999/xlink" x="0px" y="0px"
	 viewBox="0 0 512 512" style="enable-background:new 0 0 512 512;" xml:space="preserve">
<circle style="fill:#E4E7ED;" cx="256" cy="256" r="256"/>
<path style="fill:#6B7F9E;" d="M256,76.428c99.15,0,179.572,80.422,179.572,179.572S355.15,435.572,256,435.572
	S76.428,355.15,76.428,256S156.85,76.428,256,76.428z"/>
<path style="fill:#EEF3F7;" d="M368.164,115.813c33.394,26.784,57.011,65.205,64.723,109.134c-0.551-0.826-1.102-1.928-1.652-3.512
	c-3.512,1.171-3.649,1.239-7.781,1.928l-0.207,0.275c-1.652,2.341,0.069,1.377-2.823,3.787c-3.443,2.892-5.715,6.885-9.571,9.226
	c-0.482,4.131,0.344,5.026-0.689,9.915c-0.413,1.79-2.41,6.61-4.751,6.266c-0.757-0.138-3.925-7.987-4.682-10.122
	c-1.239-3.649-2.685-6.403-3.649-10.604c-0.482-2.272-0.895-6.61-1.377-8.125c-2.479,0.344-2.341,1.928-4.751,0.275
	c-1.652-1.171-0.895-1.928-1.859-3.718c-1.928-1.859-3.994-3.649-5.99-5.508c-1.584-0.482-7.505,0.344-10.053,0.069
	c-4.544-0.413-4.957-0.138-7.643-3.787c-4.751,0.207-4.338,1.997-9.02-1.997c-3.03-2.548-2.479-6.748-6.885-4.407
	c-0.138,3.787,1.652,4.613,3.305,6.335c1.171,1.308,2.685,2.272,3.305,4.062c0.069,0.069,0.344,1.721,0.413,1.997
	c4.338,0.275,5.371-1.79,7.712-3.512c2.272,2.134,0.069,2.548,3.374,4.2c2.616,1.308,2.134,0.551,3.856,2.685
	c0.895,2.892-5.921,10.741-8.194,12.187c-1.721,1.102-2.616,0.482-4.2,1.721c-2.272,1.928,0.275,1.652-3.718,3.167
	c-4.338,1.584-8.607,4.889-13.082,5.164c-0.964-2.685-1.928-5.371-2.961-8.125c-2.892-9.226-2.754-5.646-5.715-10.466
	c-1.377-2.066-0.826-3.443-1.721-5.233c-0.62-1.377-1.584-1.997-2.479-3.649c-1.308-2.616-2.892-6.748-5.921-6.335
	c-0.62,2.066,2.823,9.089,3.649,10.741c0.895,1.721,2.272,2.41,2.616,4.889c0.551,3.374-0.138,2.961,1.721,5.164
	c3.856,4.682-0.138,3.856,5.784,8.4c4.475,3.443,3.305,4.407,5.233,8.951c2.961,0.826,11.636-3.098,13.151-1.928
	c1.79,3.167-2.066,8.262-3.03,11.017c-3.236,9.226-8.882,9.089-13.151,16.181c-2.341,3.856-3.443,4.338-5.646,8.951
	c-2.479,5.233,5.026,19.623,0.551,25.614c-0.964,1.377-4.131,2.203-8.125,6.403c-4.2,4.544,0.138,3.787-1.515,11.361
	c-1.239,1.721-2.823,1.859-4.338,3.098c-0.551,1.79-0.138,3.236-1.102,5.439c-1.033,2.685-1.171,1.239-2.685,3.443
	c-1.102,1.721-0.964,2.41-2.272,3.925c-1.102,1.446-1.652,1.859-2.685,2.754c-5.026,4.613-15.768,4.751-16.663,4.062
	c-2.548-2.134-0.826-2.685-1.446-5.784c-0.62-2.685-2.066-4.889-3.236-6.954l-0.138-0.207c-0.551-1.033-1.102-1.997-1.377-2.892
	c-2.066-6.541-1.308-11.499-4.957-18.109c-4.544-8.538,2.548-13.013,2.272-17.833c-0.138-1.308-0.551-2.066-0.689-3.098
	c-0.895-5.371-1.377-10.122-4.958-14.322c-3.925-4.544-3.374-2.961-2.134-10.466c1.584-8.607-2.066-6.403-7.23-6.61
	c-2.548-7.849-7.505-3.994-12.394-1.721c-3.098,1.446-4.269-0.413-7.781,0.069c-7.849,1.033-1.653,4.407-12.118-3.856
	c-4.338-3.443-1.446-1.721-3.994-6.059c-0.895-1.584-3.512-3.649-4.751-5.233c-3.994-4.958,0.757-9.984,0.069-15.699
	c-1.239-10.604-2.961-1.377,2.961-14.184c3.098-6.817,7.849-6.885,9.02-9.915c1.033-2.685,0.344-4.682,2.272-7.161
	c1.721-1.997,4.2-1.584,5.164-4.82c1.377-3.925-1.239-4.407-4.131-4.544c-1.171-4.062-1.171-3.098-0.275-6.885
	c0.551-2.134,0.069-3.098,0.551-5.233c1.171-5.302,10.19-0.069,12.738-2.203c1.239-2.272,1.377-4.476,0-6.61
	c-1.446-2.134-3.305-1.859-4.338-3.925c2.203-1.446,0.551-0.207,2.479-0.62c2.272-0.482,1.928-1.171,4.613-1.653
	c2.341-0.482,3.856-2.616,6.128-4.062c3.305-2.134,1.721-3.994,5.715-4.682c6.403-1.102,2.272-0.895,2.961-6.885
	c0.964-0.344,1.859-0.757,2.823-1.171c1.997,2.616-0.482,1.584,1.928,3.305c0.62-0.344,1.377-0.757,2.066-1.102
	c-0.344-2.892-1.652-2.341-2.548-5.853c-3.167,0.482-4.338,3.167-6.817,2.203c-2.479-0.895-2.616-4.476-2.479-7.436
	c0.895-2.203,5.508-3.374,7.299-3.925c2.892-0.964,2.479-2.892,5.095-5.508c3.443-3.443,0.895,0.069,2.616-4.407
	c3.787-0.138,1.997-0.275,4.269-1.446l0.138-0.069l0.207-0.069c1.308-0.62,3.03-0.757,4.751-1.308
	c6.335-2.134,8.882-1.033,13.495,0.826c3.58,1.446,14.322,1.515,15.148,6.059c-2.616,2.685-5.026,0.757-8.813,0.964
	c0.689,3.512,0.964,3.512,4.131,4.476c0.551-1.652-0.207-1.033,0.62-2.066c1.033,0.207,2.066,0.413,3.098,0.62
	c1.033-3.512,2.272-3.03,5.784-3.443c-0.551-2.41-1.239-1.721,0.138-3.718c3.649,0.344,0.689,0.069,2.479,2.961
	c2.548-0.344,5.026-3.167,8.538-3.512c2.203-0.207,2.066,0.62,5.164,0.275c2.548-0.275,2.41-1.171,4.958-0.138
	c0.895-1.721,0-1.653,2.272-2.066c3.443-0.62,6.472,1.515,9.777,1.997c-2.479-3.03-4.82-2.41-1.79-7.505
	c3.856-0.757,4.2-0.207,5.853,2.685c0.964-0.551,1.377-1.033,1.79-1.308L368.164,115.813z M80.628,217.304
	c8.125-36.837,27.473-69.405,54.326-93.917c2.066,0.757,4.82,0.275,6.885,0.138c0.757-1.377,1.171-2.548,2.548-3.098
	c0.551-0.207,1.171-0.207,1.997-0.207c0.138,0.689,0.275,1.377,0.482,2.066c0,0.069,0.138,0.482,0.069,0.413
	c0.069-0.069,0.138,0.275,0.138,0.413c3.649-2.134,0.551-2.134,2.548-5.99c-3.03-0.62-2.616-0.207-4.544-2.134
	c1.859-1.997,5.371-2.685,8.056-2.548c-0.207,1.859-1.033,1.79-0.344,3.374c2.066-1.308,3.512-4.751,6.817-4.062
	c0.62,0.482,1.377,0.895,2.066,1.308c-1.721,1.584-4.338,1.721-6.541,2.616c-0.964,9.984,3.167,1.584,1.79,8.469
	c2.479-0.207,4.889-1.997,5.784-3.787c-0.895-1.171-2.272-1.171-2.961-2.616c0.551-1.859,1.79-3.236,3.58-4.062
	c1.171-0.551,2.616-0.826,4.2-0.826c18.315,0.138,9.571,0.964,15.217,3.512c1.239,0.551,3.512,0.826,4.269,1.928
	c1.171,1.721,0.069,3.374,1.859,4.82c1.584,1.171,1.859-0.069,3.994,2.616c-0.482,1.515-1.584,3.098-3.787,3.098
	c-3.098,0.069-1.239-2.066-4.613-1.721c0.069,3.098,3.167,4.338,0.275,6.059c-2.548,1.515-0.895-0.551-2.823,0.482
	c-0.069,0.069-0.207,0.138-0.275,0.207c-0.138,0.069-0.207,0.207-0.275,0.344c-0.344,0.344-0.62,0.689-0.895,1.033
	c-4.613-1.239-3.718-0.689-6.472-3.718c-1.033-1.171-1.171-1.446-3.03-1.308c-1.171,0.069-2.616,0.551-3.718-0.482
	c2.272-2.823,3.305-0.069,6.61-1.721c0.551-0.275,4.2-3.098,4.751-3.718c-0.964-2.203-0.138-0.344-1.584-1.79
	c-3.236-3.236-4.131-2.41-8.538-2.41c-2.066,2.341-3.58,5.233-5.784,6.541c-1.377,0.757-2.961,0.964-5.095,0.069
	c0.964,3.925,3.512,0.895,3.718,5.715c-1.652-0.344-2.548-1.171-4.269-0.551c-3.649,1.377-0.413,1.239-0.138,1.997
	c0,0.069,1.721,0.207,0,0.895c-1.928,0.689-0.275-0.344-3.994-2.548c0.482-0.895,1.033-1.859,1.584-2.823
	c-2.961,0.895-6.748,2.41-10.259,4.062c-3.994,1.997-7.712,4.269-9.915,6.335c-0.069,3.443,0.551,1.171,0.895,5.233
	c5.371,0.344,3.649,1.928,8.951,3.443c1.033,0.275,2.341,0.551,3.994,0.826c0,2.548-2.272,4.544-0.689,7.161
	c3.718,2.616,3.856-2.479,4.751-5.784c12.669-2.616,6.541-6.335,9.846-13.358c0.482-1.033,1.171-2.134,2.203-3.374
	c0.964,0.069,4.958,0.482,5.784,0.62c2.892,0.482,1.308,1.171,4.407,2.548c-0.069,2.479-1.308,5.715,2.341,5.095
	c2.823-0.482,2.203-2.685,5.646-3.236c1.584,3.649,1.171,5.233,1.859,9.571c8.262,3.236,4.613,5.853,2.961,11.912
	c1.033,0.482,2.134,0.964,3.236,1.446c-0.069,1.721-0.138,3.443-0.207,5.164c-0.138,0-8.882-1.859-9.433-2.066
	c1.308-3.787,3.718-3.787,5.302-7.712c-3.098,0.551-2.892,1.515-5.095,2.203c-1.997,0.62-3.58,0.207-5.715,0.482
	c-0.757,2.479-0.069-2.203,0.207,1.033c0.138,1.171,0.689,0.069-0.138,1.308c-2.892-1.308-1.928-4.476-7.23-1.584
	c1.239,0.551,2.41,1.033,3.649,1.584c-0.138,3.512-0.482,0.895-1.171,3.236c-1.859,6.059,5.026,2.272,6.817,1.997
	c-0.482,3.167-2.41,3.167-5.164,4.062c-3.03,0.895-3.994,2.134-6.403,2.754c0-3.787-0.551-0.62,1.102-3.236
	c-2.41,0.207-4.2,1.308-6.472,2.272l-0.207,0.069c-2.961,1.171-3.374,1.377-3.718,5.164c-2.548,0.757-5.439,1.652-7.23,3.512
	c-1.79,1.721-3.58,3.374-5.302,5.095c-0.207,0.138-0.275,0.275-0.413,0.344c0.62,4.751,0,4.82-2.892,6.679
	c-2.41,1.584-3.236,1.515-5.439,3.512c-7.161,6.472-3.718,3.443-3.305,14.528c-1.515-0.482-2.961-0.964-4.338-1.446
	c-1.102-7.367,0.413-4.958-5.508-6.61c-6.403-1.859-5.508,1.308-8.194,1.859c-2.961,0.62-4.338-2.685-8.607,0.069
	c-2.341,1.584-4.613,2.685-5.164,5.508c-0.689,3.443-2.272,5.99-1.997,9.777c0.413,10.328,9.846,10.948,12.256,6.128
	c1.584-3.236,1.239-4.958,6.472-4.131c0.551,2.754-0.275,4.82-0.964,6.885c-0.482,1.239-1.721,3.512-1.102,5.233
	c3.718,1.515,3.856-1.308,8.813,1.584c0.344,4.957-2.272,10.466,1.584,13.289c2.961,2.134,3.098,0.207,5.715-0.207
	c2.892-0.482,2.341,1.308,5.026,1.721c1.515-1.859,0.895-0.689,1.859-2.961c1.721-3.925,2.203-2.066,6.266-4.476
	c0.413-0.207,0.757-0.482,1.171-0.757c0.482,0.964,0.964,1.859,1.446,2.823c2.961-3.512,3.305-0.069,6.817,0.895
	c1.515,0.413,2.548,0.551,3.374,0.551c2.479,0.069,2.754-1.171,6.197,0c0.413,0.207,0.895,0.344,1.377,0.482
	c0.069,0,0.207,0.069,0.207,0.207c0.069,0.069,0.207,0.207,0.275,0.207c0.551,0.62,0.62,1.308,1.102,1.997
	c2.341,2.272,4.751,4.544,7.023,6.748c4.544,1.79,4.544-1.584,9.708,3.443c2.203,2.066,1.171,1.997,2.41,4.682
	c0.207,0.413,0.482,0.826,0.757,1.308c0.482,1.239,0.964,2.41,1.515,3.649c2.341,3.098,5.577,1.171,8.882,4.338
	c1.928,1.859,0.482,1.308,4.682,1.997c6.472,1.033,3.994,0.482,8.882,4.2c1.928,1.377,2.341,0.62,4.131,1.79
	c2.479,3.443,1.859,7.161-0.207,10.19c-6.403,9.295-4.2,7.781-4.476,15.148c-0.207,4.2-1.446,13.013-5.439,14.046
	c-14.459,4.062-6.059,6.885-9.846,13.977c-1.102,1.997-1.928,2.548-2.616,4.131c-2.892,6.748-0.895,8.951-9.364,7.436
	c0.826,1.446,0.275,0.482,1.102,1.721c2.548,3.925,2.961,6.885-2.272,7.849c-4.338,0.826-2.479,0-2.892,4.82
	c-1.652,0.689-2.41,0-3.512,1.102c1.515,2.754,0.138,0.482,2.616,2.066c-0.482,1.515-0.826,2.961-1.239,4.476
	c-0.964,3.58-1.239,0.275-1.584,4.476c1.515,0.689,2.548,0.551,3.856,2.341c-0.138,1.377-1.584,5.164-1.928,7.299
	c2.134,3.167,3.856,6.61,8.4,6.885c-0.069,2.685,0.551,2.41-1.721,2.961c-1.928,0.482-6.128-1.377-7.849-2.272
	c-2.961-1.584-5.715-3.718-7.781-6.748c-1.171-1.721-0.689-0.895-1.928-2.479c-2.203-2.823-1.308-4.131-1.928-5.99
	c-0.344-1.102-2.134-2.272-1.377-5.921c0.207-1.033,1.79-5.853-0.138-5.026c-1.928,0.757,1.515,0.482-1.239,1.721
	c-0.62-1.721-1.171-4.338-1.515-6.472c-0.689-3.649-1.584-3.787-1.928-5.99c-0.826-5.095,1.308-5.646-1.102-14.184
	c-1.584-5.646-0.964-19.004-2.616-25.82c-0.275-1.102-0.62-1.997-0.964-2.754c-1.584-2.548-5.371-3.787-8.4-5.853
	c-0.207-0.069-0.275-0.069-0.344-0.207c-4.2-2.961-8.194-14.528-11.499-18.797c-1.584-2.066-2.548-1.171-3.236-4.407
	c-0.757-2.961,0.413-2.479,1.377-4.957c-5.095-9.364,6.61-9.226,4.2-20.519c-0.551-2.066-1.997-4.958-3.305-5.921
	c-2.41,1.033-1.239,1.652-2.548,3.649c-1.928-1.102-3.925-2.203-5.784-3.305c-5.921-5.715-2.754-1.584-4.407-5.302
	c-3.58-7.849-6.954-3.443-11.223-7.299c-1.928-1.584-2.272-4.131-5.439-3.649c-4.751,0.62-2.134,1.377-7.092-0.895
	c-4.2-1.997-8.538-4.269-11.499-6.954c-0.138-5.577,1.584-5.026-2.685-10.19L80.628,217.304z M136.951,121.597
	c1.102-0.964,2.203-1.928,3.305-2.823l0.069,0.207c0.207,0.344,0.413,0.344,0.62,1.308
	C138.053,120.977,138.053,121.459,136.951,121.597z M290.634,174.959c1.584,1.033,3.512,1.79,4.751,2.823
	c1.515,4.062-0.413,2.134,2.548,6.403c1.652,2.272,1.308,3.925,3.03,5.233c3.167-0.413,0.413,0.482,2.341-1.446
	c0.344-0.344,1.308-1.515,1.584-1.997c-1.033-1.584-1.652-1.721-2.616-3.305c3.58-4.751,5.095-1.997,5.99,1.102
	c2.272,8.676,5.715,6.197,8.538,5.784c2.961-0.413,0.413,0.069,3.03,0.757c2.548,0.62,1.308,0,3.098-0.482
	c6.059-1.446,1.377,10.19,0.757,11.499c-3.305,0.413-2.616-0.344-5.026-0.551c-4.751-0.482,0.275,2.892-10.948-0.826
	c-10.81-3.443-8.538-4.2-10.741,3.305c-2.479-0.207-2.341-0.62-4.682-1.446c-0.895-0.344-1.377-0.482-1.721-0.62l-0.138-0.069
	c-0.895-0.344,0-0.069-1.928-1.859c-1.652-1.584-5.715-1.928-8.607-3.443c0-2.479,2.203-4.544-0.482-7.505
	c-0.826-0.207-13.082,0.275-15.079,0.689c-3.994,0.826-4.682,4.2-10.122,3.443c-2.961-0.413-1.928-0.138-2.685-1.859
	c0.964-0.964,0-0.482,1.653-1.033c0.62-0.207,0.826-0.138,1.515-0.207c8.882-1.308,4.338-5.784,9.846-10.053
	c4.613-3.649,0.964,0.069,3.512-4.407c3.098-0.275,2.685,1.239,5.371-0.069c2.203-1.102,1.515-2.066,4.613-2.134
	c2.754,2.754,2.203,4.407,6.679,6.541c1.79,0.826,2.892,1.308,3.994,2.823c2.066,2.961,0.275,1.997,1.102,3.994
	c0.138-0.069,0.413-0.207,0.62-0.275l0.138-0.069c2.41-1.171-1.239-1.515,2.685-4.958c-1.171-0.826-1.997-1.377-2.685-1.859
	l-0.138-0.069c-3.03-1.79-1.859-0.138-5.784-5.026c-1.033-1.377-1.308-1.446-1.239-3.58c2.823-0.482,3.305,1.515,5.853,3.787
	c0.344,0.344,0.757,0.62,1.171,0.895l0.138,0.069H290.634z M352.052,298.896c-2.548,1.308-2.892,4.269-4.751,5.921
	c-2.066,1.859-4.82,1.033-5.646,4.544c-1.033,4.338,1.721,3.03-1.308,8.745c-1.102,2.134-1.171,7.436,0.551,8.951
	c5.026,4.82,7.712-7.367,8.882-11.223c0.826-2.685,1.652-5.784,2.616-8.331c0.895-2.685,2.272-5.095-0.207-8.607H352.052z
	 M343.789,170.414c0.413,5.646,3.718,7.781,6.128,10.328c-0.275,2.685-0.895,1.997-0.895,5.715c2.823,1.997,4.889,3.236,8.538,2.272
	c0.482-4.544-0.895-4.269-2.272-7.367c0.207-0.344,0.895-0.826,0.964-0.895c1.033-1.377,0.551,0.551,1.033-1.79
	c-2.685-0.895-7.092-3.649-7.436-7.299c1.308-1.033,0.895-0.413,1.928-1.033c2.134-1.377,0.551,0.757,1.79-1.584
	c-1.102-2.134-2.272-2.479-4.957-1.446C347.438,167.798,344.409,169.932,343.789,170.414z M320.241,171.86
	c-1.79-2.479-1.652-3.718-5.095-3.787c-1.377,1.446-2.961,3.649-3.718,5.921c-1.171,3.443-0.344,1.033-0.207,4.751
	c-0.069,0.138,0,0.344,0,0.482c-0.069,2.203-0.551-0.413-0.207,1.584c2.685-0.551,0.62-0.482,2.616-1.171
	c1.928-0.62,7.712-2.41,9.364-1.997c3.994,0.895,7.299,4.062,11.774,0.895c-0.207-3.994-5.095-5.508-8.4-7.299
	c0.207-3.649,1.171-0.757,0.895-4.338c-1.171-0.069-1.859-0.207-2.961,0.207c-2.616,1.171-1.171,1.446-1.171,1.859
	c0.138,1.997,2.616-0.413-0.069,1.997c-0.757,0.62-1.928,0.62-2.892,0.757L320.241,171.86z M253.108,143.974
	c-0.138,6.472,2.134,4.269,4.269,7.436c-0.964,2.685-1.171,0.62-2.272,3.374c-0.964,2.341,0.207,0.207-0.413,4.338
	c1.653,0.069,4.131-0.482,6.335-0.689c3.098-0.275,3.03-0.551,4.131-3.718c-1.721-2.134-3.443-4.2-5.233-6.335
	c-2.272-3.443,0-1.033-0.689-3.925c-0.482-1.033-0.964-1.997-1.446-3.03c-2.961,1.033-2.685,0.757-4.751,2.548H253.108z"/>
<path style="fill:#5FDC68;" d="M431.165,216.271c-2.479,52.536-79.94,94.812-175.165,94.812S83.314,268.738,80.835,216.271H431.165z
	"/>
<path style="fill:#56BF5D;" d="M256,76.428c85.517,0,157.125,59.834,175.165,139.843H80.835
	C98.944,136.194,170.483,76.428,256,76.428z"/>
<path style="fill:#F7635B;" d="M400.25,216.409H118.705C138.741,64.241,377.872,72.71,400.25,216.409z"/>
<path style="fill:#FF7069;" d="M400.25,216.409c-24.237,87.72-243.124,97.704-281.545,0.207L400.25,216.409z"/>
<path style="fill:#FFE356;" d="M378.216,216.409c-39.729,66.444-205.117,60.179-236.859,0.138L378.216,216.409z"/>
<path style="fill:#FCD34E;" d="M378.216,216.409H141.358C153.407,99.632,354.462,95.983,378.216,216.409z"/>
<path style="fill:#FFFFFF;" d="M318.107,216.271c-7.367,35.873-103.281,40.004-121.115,0.344L318.107,216.271z"/>
<path style="fill:#EEF3F7;" d="M318.175,216.478H196.923C211.658,158.089,304.818,165.87,318.175,216.478z"/>
<g>
</g>
<g>
</g>
<g>
</g>
<g>
</g>
<g>
</g>
<g>
</g>
<g>
</g>
<g>
</g>
<g>
</g>
<g>
</g>
<g>
</g>
<g>
</g>
<g>
</g>
<g>
</g>
<g>
</g>
</svg>
