<?xml version="1.0" encoding="iso-8859-1"?>
<!-- Generator: Adobe Illustrator 19.0.0, SVG Export Plug-In . SVG Version: 6.00 Build 0)  -->
<svg version="1.1" id="Layer_1" xmlns="http://www.w3.org/2000/svg" xmlns:xlink="http://www.w3.org/1999/xlink" x="0px" y="0px"
	 viewBox="0 0 512 512" style="enable-background:new 0 0 512 512;" xml:space="preserve">
<circle style="fill:#FF7069;" cx="256" cy="256" r="256"/>
<path style="fill:#6B7F9E;" d="M128.365,135.111h255.271v342.792C346.074,499.601,302.496,512,256,512
	s-90.074-12.399-127.635-34.097V135.111z"/>
<path style="fill:#8597B1;" d="M138.576,135.111h-10.393v342.792c3.464,2.006,6.746,3.829,10.393,5.652V135.111z"/>
<path style="fill:#5D718F;" d="M373.242,135.111h10.393v342.792c-3.464,2.006-6.746,3.829-10.393,5.652V135.111z"/>
<path style="fill:#FFE356;" d="M128.365,135.111h255.271v139.122c-55.613,42.12-198.199,43.578-255.271,0V135.111z"/>
<path style="fill:#FFE875;" d="M138.576,135.111h-10.393v139.122c3.1,2.37,6.564,4.558,10.393,6.746V135.111z"/>
<path style="fill:#FCD34E;" d="M373.242,135.111h10.393v139.122c-3.1,2.37-6.564,4.558-10.393,6.746V135.111z"/>
<path style="fill:#FFE978;" d="M256,100.467c70.564,0,127.635,15.499,127.635,34.826c0,19.145-57.071,34.826-127.635,34.826
	s-127.635-15.499-127.635-34.826C128.365,116.148,185.436,100.467,256,100.467z"/>
<path style="fill:#FCD34E;" d="M256,109.037c52.878,0,95.727,11.67,95.727,26.074S308.878,161.185,256,161.185
	s-95.727-11.67-95.727-26.074S203.123,109.037,256,109.037z"/>
<path style="fill:#FFFFFF;" d="M256,114.689c41.39,0,74.94,9.117,74.94,20.422s-33.55,20.422-74.94,20.422
	s-74.94-9.117-74.94-20.422S214.61,114.689,256,114.689z"/>
<path style="fill:#F7F9F7;" d="M304.319,136.57L304.319,136.57c0,6.017-21.698,10.94-48.319,10.94s-48.319-4.923-48.319-10.94l0,0
	v-21.151h96.638V136.57z"/>
<path style="fill:#5FDC68;" d="M257.823,433.778c-53.789-53.971,6.017-143.499,100.103-80.41c0,0-26.074-3.1-36.832,9.117
	C306.507,379.259,327.111,426.484,257.823,433.778z"/>
<path style="fill:#56BF5D;" d="M336.41,341.333c6.929,3.1,14.222,7.111,21.516,12.217c0,0-26.074-3.1-36.832,9.117
	c-4.011,4.558-5.47,11.487-6.746,19.328l0,0c-1.459-7.476,0.182-36.103,21.88-40.479L336.41,341.333z"/>
<path style="fill:#FFE356;" d="M315.259,343.886c-48.319-4.923-61.812,76.581-64.365,168.114c1.641,0,3.282,0,4.923,0
	c1.094,0,2.006,0,3.1,0c0.729-56.889,5.652-168.114,56.16-168.114H315.259z"/>
<path style="fill:#5FDC68;" d="M236.855,451.464c17.869-45.766-43.031-85.698-82.781-24.615c0,0,14.952-8.205,24.798-3.282
	c13.493,6.746,13.858,40.296,57.983,28.08V451.464z"/>
<path style="fill:#56BF5D;" d="M163.738,414.085c-3.282,3.647-6.564,7.84-9.664,12.581c0,0,14.952-8.205,24.798-3.282
	c3.647,1.823,6.382,5.652,9.299,10.029l0,0C187.077,428.49,178.142,411.533,163.738,414.085z"/>
<path style="fill:#FFE356;" d="M177.231,410.621c32.273-17.687,64.729,37.561,75.67,59.077l-0.729,9.481
	C237.584,450.188,203.67,398.952,177.231,410.621z"/>
<path style="fill:#FFFFFF;" d="M256,104.296c26.621,0,48.319,4.923,48.319,10.94c0,6.017-21.698,10.94-48.319,10.94
	s-48.319-4.923-48.319-10.94C207.681,109.219,229.379,104.296,256,104.296z"/>
<circle style="fill:#FCD34E;" cx="256" cy="234.484" r="37.379"/>
<polygon style="fill:#FFFFFF;" points="249.618,207.863 262.382,207.863 262.382,228.103 282.439,228.103 282.439,240.866 
	262.382,240.866 262.382,260.923 249.618,260.923 249.618,240.866 229.379,240.866 229.379,228.103 249.618,228.103 "/>
<g>
</g>
<g>
</g>
<g>
</g>
<g>
</g>
<g>
</g>
<g>
</g>
<g>
</g>
<g>
</g>
<g>
</g>
<g>
</g>
<g>
</g>
<g>
</g>
<g>
</g>
<g>
</g>
<g>
</g>
</svg>
