<?xml version="1.0" encoding="iso-8859-1"?>
<!-- Generator: Adobe Illustrator 19.0.0, SVG Export Plug-In . SVG Version: 6.00 Build 0)  -->
<svg version="1.1" id="Layer_1" xmlns="http://www.w3.org/2000/svg" xmlns:xlink="http://www.w3.org/1999/xlink" x="0px" y="0px"
	 viewBox="0 0 512.006 512.006" style="enable-background:new 0 0 512.006 512.006;" xml:space="preserve">
<circle style="fill:#FF7069;" cx="256.003" cy="256.003" r="256.003"/>
<g>
	<path style="fill:#6B7F9E;" d="M336.346,390.193l30.299-0.012c6.473-0.708,12.092-3.161,15.931-7.302
		c3.512-3.784,5.625-9.125,5.649-16.009l0.224-65.666h11.741l-0.224,65.666c-0.03,10.1-3.318,18.135-8.78,24.02
		c-5.885,6.346-14.181,10.039-23.548,11.008l-0.212,0.018h-0.388l-30.693,0.012v-11.741V390.193z"/>
	<path style="fill:#6B7F9E;" d="M364.853,241.392l-9.567,10.505c-1.956,2.585-3.397,5.28-3.566,8.005
		c-0.375,6.194,1.023,31.782,1.023,31.782s0.993,3.603,5.074,4.027l29.863,3.106l0.708-10.778c0,0-23.057,1.647-26.363,0.484
		c-3.3-1.169-2.483-5.013-2.483-5.013l-0.714-20.175c0,0-0.357-5.383,5.08-7.508c5.443-2.125,18.116-5.304,18.116-5.304
		L364.853,241.392z"/>
	<path style="fill:#6B7F9E;" d="M360.923,252.867c0,0,10.027,4.463,11.335,6.963c1.302,2.495,1.611,4.517,0.285,7.781
		c-1.326,3.264-5.492,16.5-5.492,16.5s-2.513-1.49-1.901-4.196c0.605-2.707,2.84-12.516,2.84-12.516s-0.521-5.038-2.404-5.334
		s-9.434-2.549-9.434-2.549L360.923,252.867z"/>
</g>
<path style="fill:#FEFEFE;" d="M328.136,170.126l24.934,15.604c0.291,0.182,0.509,0.381,0.708,0.66l18.734,25.885l-10.051,7.278
	l-17.317-23.923c-0.2-0.279-0.418-0.484-0.708-0.666l-22.882-14.314c-1.187-0.739-1.55-2.319-0.805-3.5l3.887-6.218
	c0.745-1.181,2.319-1.55,3.506-0.805H328.136z"/>
<path style="fill:#FFE356;" d="M378.943,215.889c4.808,0.339,10.657,1.078,11.371,2.713c1.229,2.822,8.61,17.547,8.61,17.547
	l3.494,1.356c0.739,0.291,1.217,0.932,1.272,1.726l1.114,16.627c0.054,0.799-0.339,1.508-1.041,1.889
	c-1.429,0.775-3.73,2.174-3.978,3.276c-0.303,1.374,1.574,31.916,2.15,41.107c0.042,0.708-0.176,1.332-0.648,1.859
	c-0.472,0.527-1.072,0.805-1.78,0.836l-11.256,0.46c-0.702,0.024-1.314-0.2-1.829-0.678c-0.515-0.478-0.787-1.072-0.811-1.774
	l-1.302-36.638c0,0-4.214-14.096-13.605-14.938l-16.354-1.211c0,0-2.198-0.406-2.21-2.622c-0.006-2.21-0.4-11.032-0.4-11.032
	l8.344-12.933l-2.973-4.771c-0.963-1.544-0.484-3.597,1.06-4.559l11.383-7.09c1.544-0.963,3.597-0.484,4.559,1.06l4.856,7.793
	H378.943z"/>
<path style="fill:#FCD34E;" d="M388.086,305.29c-0.636-0.006-1.199-0.236-1.677-0.678c-0.515-0.478-0.787-1.072-0.811-1.774
	l-1.302-36.638c0,0-4.214-14.096-13.612-14.938l-16.354-1.211c0,0-2.198-0.412-2.21-2.622c-0.006-2.21-0.4-11.032-0.4-11.032
	l8.344-12.933l-2.973-4.771c-0.823-1.32-0.593-3.009,0.454-4.081l5.928,9.567l-8.416,12.643l0.157,7.986
	c0,0-0.436,1.998,2.392,2.028c0,0,16.094,1.417,19.993,3.56s9.07,10.56,9.161,15.464l1.32,39.43H388.086z"/>
<path style="fill:#FEFEFE;" d="M364.084,195.205L364.084,195.205c1.048,0.672,1.35,2.071,0.684,3.118l-8.471,13.218
	c-0.666,1.041-2.071,1.35-3.112,0.678l0,0c-1.048-0.666-1.35-2.071-0.684-3.118l8.465-13.212
	C361.632,194.842,363.036,194.539,364.084,195.205z"/>
<path style="fill:#FFE356;" d="M327.179,146.245V82.977c0-24.589-20.121-44.71-44.716-44.71h-62.917
	c-24.589,0-44.71,20.115-44.71,44.71l-0.442,63.268h-9.803c-5.389,0-9.797,4.408-9.797,9.797v264.595h19.6l0,0h152.342l0,0h19.6
	v-30.856V156.042c0-5.389-4.408-9.797-9.797-9.797h-9.355H327.179z"/>
<path style="fill:#E4E7ED;" d="M207.394,126.336h86.325c5.171,0,9.397-4.226,9.397-9.397V78.442
	c0-11.044-9.034-20.078-20.078-20.078h-64.97c-11.044,0-20.078,9.034-20.078,20.078v38.497c0,5.171,4.226,9.397,9.397,9.397H207.394
	z"/>
<path style="fill:#FEFEFE;" d="M207.394,126.336h86.325c5.171,0,9.397-4.226,9.397-9.397V86.755
	c0-11.044-9.034-20.078-20.078-20.078h-64.97c-11.044,0-20.078,9.034-20.078,20.078v30.184c0,5.171,4.226,9.397,9.397,9.397H207.394
	z"/>
<path style="fill:#FFE356;" d="M151.004,419.977h199.117c4.656,0,8.465,3.809,8.465,8.465v24.498h-216.04v-24.498
	c0-4.656,3.809-8.465,8.465-8.465H151.004z"/>
<path style="fill:#5FDC68;" d="M253.436,314.161c-39.557-42.294,5.104-107.651,74.221-58.194c0,0-19.212-2.428-27.053,7.151
	C289.832,276.281,304.309,308.415,253.436,314.161z"/>
<path style="fill:#56BF5D;" d="M311.818,246.436c5.104,2.483,10.39,5.631,15.84,9.53c0,0-19.212-2.428-27.053,7.151
	c-2.961,3.615-3.96,9.034-4.911,15.107l0,0c-1.078-5.861,0.157-28.331,16.13-31.788H311.818z"/>
<path style="fill:#6B7F9E;" d="M296.365,248.44c-48.27-5.383-46.29,97.751-46.569,171.537h7.92
	c0.224-39.466-7.29-174.534,38.655-171.537H296.365z"/>
<path style="fill:#5FDC68;" d="M241.592,327.821c13.127-35.851-41.858-60.568-63.777-14.399c0,0,11.038-6.424,18.262-2.628
	c9.924,5.219,13.157,26.63,45.509,17.026H241.592z"/>
<path style="fill:#6B7F9E;" d="M195.242,298.606c22.579-12.195,49.233,25.164,57.292,42.07l-1.689,10.16
	C240.072,328.142,217.663,289.56,195.242,298.606z"/>
<path style="fill:#56BF5D;" d="M183.023,304.539c-1.677,2.549-3.754,5.589-5.201,8.883c10.415-5.558,17.517-5.413,23.802,2.186
	C198.324,310.037,190.749,301.96,183.023,304.539z"/>
<g>
	<path style="fill:#E4E7ED;" d="M249.246,77.382h39.321c4.402,0,4.402,8.029,0,8.029h-39.321
		C244.844,85.411,244.844,77.382,249.246,77.382z"/>
	<path style="fill:#E4E7ED;" d="M249.246,92.756h39.321c4.402,0,4.402,8.029,0,8.029h-39.321
		C244.844,100.785,244.844,92.756,249.246,92.756z"/>
</g>
<g>
	<polygon style="fill:#FCD34E;" points="174.425,142.824 327.179,142.824 327.179,146.245 174.425,146.245 	"/>
	<polygon style="fill:#FCD34E;" points="154.795,416.55 346.331,416.55 346.331,419.977 154.795,419.977 	"/>
</g>
<g>
</g>
<g>
</g>
<g>
</g>
<g>
</g>
<g>
</g>
<g>
</g>
<g>
</g>
<g>
</g>
<g>
</g>
<g>
</g>
<g>
</g>
<g>
</g>
<g>
</g>
<g>
</g>
<g>
</g>
</svg>
