<?xml version="1.0" encoding="iso-8859-1"?>
<!-- Generator: Adobe Illustrator 18.0.0, SVG Export Plug-In . SVG Version: 6.00 Build 0)  -->
<!DOCTYPE svg PUBLIC "-//W3C//DTD SVG 1.1//EN" "http://www.w3.org/Graphics/SVG/1.1/DTD/svg11.dtd">
<svg version="1.1" id="Capa_1" xmlns="http://www.w3.org/2000/svg" xmlns:xlink="http://www.w3.org/1999/xlink" x="0px" y="0px"
	 viewBox="0 0 512 512" style="enable-background:new 0 0 512 512;" xml:space="preserve">
<g>
	<path style="fill:#3F556B;" d="M480,400c17.673,0,32-14.327,32-32V144l0,0c-8.837,0-16,7.163-16,16v208c0,8.837-7.163,16-16,16H48
		c-8.837,0-16,7.163-16,16l0,0H480z"/>
	<rect x="32" y="168" style="fill:#3CB44A;" width="448" height="200"/>
	<path style="fill:#566E7F;" d="M480,112H32c-17.673,0-32,14.327-32,32v224c0,17.673,14.327,32,32,32h448c17.673,0,32-14.327,32-32
		V144C512,126.327,497.673,112,480,112z M480,368H32V144h448V368z"/>
	<rect x="32" y="144" style="fill:#0E9247;" width="448" height="24"/>
	<path style="fill:#0E9247;" d="M256,216c-8.836,0-16,7.172-16,16c0,8.844,7.164,16,16,16s16-7.156,16-16
		C272,223.172,264.836,216,256,216z"/>
	<path style="fill:#04803D;" d="M256,264c-8.836,0-16,7.172-16,16c0,8.844,7.164,16,16,16s16-7.156,16-16
		C272,271.172,264.836,264,256,264z"/>
	<g>
		<path style="fill:#0E9247;" d="M112,328H96c-2.121,0-4.156-0.844-5.656-2.344l-16-16c-1.5-1.5-2.344-3.531-2.344-5.656v-96
			c0-2.125,0.844-4.156,2.344-5.656l16-16c1.5-1.5,3.535-2.344,5.656-2.344h16c2.121,0,4.156,0.844,5.656,2.344l16,16
			c1.5,1.5,2.344,3.531,2.344,5.656v96c0,2.125-0.844,4.156-2.344,5.656l-16,16C116.156,327.156,114.121,328,112,328z M99.313,312
			h9.375L120,300.688v-89.375L108.688,200h-9.375L88,211.313v89.375L99.313,312z"/>
	</g>
	<g>
		<path style="fill:#04803D;" d="M336,328h-16c-2.121,0-4.156-0.844-5.656-2.344l-16-16c-1.5-1.5-2.344-3.531-2.344-5.656v-96
			c0-2.125,0.844-4.156,2.344-5.656l16-16c1.5-1.5,3.535-2.344,5.656-2.344h16c2.121,0,4.156,0.844,5.656,2.344l16,16
			c1.5,1.5,2.344,3.531,2.344,5.656v96c0,2.125-0.844,4.156-2.344,5.656l-16,16C340.156,327.156,338.121,328,336,328z M323.313,312
			h9.375L344,300.688v-89.375L332.688,200h-9.375L312,211.313v89.375L323.313,312z"/>
	</g>
	<g>
		<path style="fill:#04803D;" d="M416,328h-16c-2.121,0-4.156-0.844-5.656-2.344l-16-16c-1.5-1.5-2.344-3.531-2.344-5.656v-96
			c0-2.125,0.844-4.156,2.344-5.656l16-16c1.5-1.5,3.535-2.344,5.656-2.344h16c2.121,0,4.156,0.844,5.656,2.344l16,16
			c1.5,1.5,2.344,3.531,2.344,5.656v96c0,2.125-0.844,4.156-2.344,5.656l-16,16C420.156,327.156,418.121,328,416,328z M403.313,312
			h9.375L424,300.688v-89.375L412.688,200h-9.375L392,211.313v89.375L403.313,312z"/>
	</g>
	<g>
		<path style="fill:#04803D;" d="M192,328h-16c-2.121,0-4.156-0.844-5.656-2.344l-16-16c-1.5-1.5-2.344-3.531-2.344-5.656v-24
			c0-2.125,0.844-4.156,2.344-5.656L172.688,256l-18.344-18.344c-1.5-1.5-2.344-3.531-2.344-5.656v-24
			c0-2.125,0.844-4.156,2.344-5.656l16-16c1.5-1.5,3.535-2.344,5.656-2.344h16c2.121,0,4.156,0.844,5.656,2.344l16,16
			c1.5,1.5,2.344,3.531,2.344,5.656v24c0,2.125-0.844,4.156-2.344,5.656L195.313,256l18.344,18.344c1.5,1.5,2.344,3.531,2.344,5.656
			v24c0,2.125-0.844,4.156-2.344,5.656l-16,16C196.156,327.156,194.121,328,192,328z M179.313,312h9.375L200,300.688v-17.375l-16-16
			l-16,16v17.375L179.313,312z M168,228.688l16,16l16-16v-17.375L188.688,200h-9.375L168,211.313V228.688z"/>
	</g>
	<path style="fill:#35495C;" d="M352,112H48V98c0-1.105,0.895-2,2-2h300c1.105,0,2,0.895,2,2V112z"/>
	<path style="fill:#ED2C39;" d="M464,112h-48V98c0-1.105,0.895-2,2-2h44c1.105,0,2,0.895,2,2V112z"/>
	<path style="fill:#35495C;" d="M72,400v8c0,4.4,3.6,8,8,8h24c4.4,0,9.609-3.22,11.578-7.155L120,400H72z"/>
	<path style="fill:#35495C;" d="M392,400l4.422,8.845C398.39,412.78,403.6,416,408,416h24c4.4,0,8-3.6,8-8v-8H392z"/>
</g>
<g>
</g>
<g>
</g>
<g>
</g>
<g>
</g>
<g>
</g>
<g>
</g>
<g>
</g>
<g>
</g>
<g>
</g>
<g>
</g>
<g>
</g>
<g>
</g>
<g>
</g>
<g>
</g>
<g>
</g>
</svg>
