<?xml version="1.0" encoding="iso-8859-1"?>
<!-- Generator: Adobe Illustrator 18.0.0, SVG Export Plug-In . SVG Version: 6.00 Build 0)  -->
<!DOCTYPE svg PUBLIC "-//W3C//DTD SVG 1.1//EN" "http://www.w3.org/Graphics/SVG/1.1/DTD/svg11.dtd">
<svg version="1.1" id="Capa_1" xmlns="http://www.w3.org/2000/svg" xmlns:xlink="http://www.w3.org/1999/xlink" x="0px" y="0px"
	 viewBox="0 0 512 512" style="enable-background:new 0 0 512 512;" xml:space="preserve">
<g>
	<g>
		<path style="fill:#A25425;" d="M448,512H64c-35.346,0-64-28.654-64-64V64C0,28.654,28.654,0,64,0h384c35.346,0,64,28.654,64,64
			v384C512,483.346,483.346,512,448,512z M64,464h384c8.837,0,16-7.163,16-16V64c0-8.837-7.163-16-16-16H64c-8.837,0-16,7.163-16,16
			v384C48,456.837,55.163,464,64,464z"/>
	</g>
	<path style="fill:#F5B445;" d="M448,464H64c-8.837,0-16-7.163-16-16V64c0-8.837,7.163-16,16-16h384c8.837,0,16,7.163,16,16v384
		C464,456.837,456.837,464,448,464z"/>
	<path style="fill:#3F556B;" d="M347.313,324.687L272,249.374V176c0-8.836-7.164-16-16-16s-16,7.164-16,16v80
		c0,4.424,1.798,8.429,4.701,11.325l79.987,79.987C327.809,350.438,331.906,352,336,352s8.191-1.563,11.313-4.688
		C353.563,341.063,353.563,330.938,347.313,324.687z"/>
	<path style="fill:#35495C;" d="M280,256c0,13.25-10.746,24-24,24c-13.254,0-24-10.75-24-24c0-13.25,10.746-24,24-24
		C269.254,232,280,242.75,280,256z"/>
	<path style="fill:#35495C;" d="M280,256c0,13.25-10.746,24-24,24c-13.254,0-24-10.75-24-24c0-13.25,10.746-24,24-24
		C269.254,232,280,242.75,280,256z"/>
	<path style="fill:#F09820;" d="M464,64H48v0c0-8.837,7.163-16,16-16h384C456.837,48,464,55.163,464,64L464,64z"/>
	<rect x="240" y="48" style="fill:#73371B;" width="32" height="16"/>
	<path style="fill:#73371B;" d="M448,32H64c-17.673,0-32,14.327-32,32v384c0,17.673,14.327,32,32,32h384c17.673,0,32-14.327,32-32
		V64C480,46.327,465.673,32,448,32z M464,448c0,8.836-7.164,16-16,16H64c-8.836,0-16-7.164-16-16V64c0-8.837,7.164-16,16-16h384
		c8.836,0,16,7.163,16,16V448z"/>
	<path style="fill:#A25425;" d="M240,64v32c0,8.836,7.164,16,16,16s16-7.164,16-16V64H240z"/>
	<path style="fill:#A25425;" d="M464,240h-48c-8.836,0-16,7.164-16,16s7.164,16,16,16h48V240z"/>
	<path style="fill:#A25425;" d="M96,240H48v32h48c8.836,0,16-7.164,16-16S104.836,240,96,240z"/>
	<path style="fill:#A25425;" d="M272,416c0-8.836-7.164-16-16-16s-16,7.164-16,16v48h32V416z"/>
</g>
<g>
</g>
<g>
</g>
<g>
</g>
<g>
</g>
<g>
</g>
<g>
</g>
<g>
</g>
<g>
</g>
<g>
</g>
<g>
</g>
<g>
</g>
<g>
</g>
<g>
</g>
<g>
</g>
<g>
</g>
</svg>
