<?xml version="1.0" encoding="iso-8859-1"?>
<!-- Generator: Adobe Illustrator 18.0.0, SVG Export Plug-In . SVG Version: 6.00 Build 0)  -->
<!DOCTYPE svg PUBLIC "-//W3C//DTD SVG 1.1//EN" "http://www.w3.org/Graphics/SVG/1.1/DTD/svg11.dtd">
<svg version="1.1" id="Capa_1" xmlns="http://www.w3.org/2000/svg" xmlns:xlink="http://www.w3.org/1999/xlink" x="0px" y="0px"
	 viewBox="0 0 512 512" style="enable-background:new 0 0 512 512;" xml:space="preserve">
<g>
	<path style="fill:#3688C8;" d="M368,32H144c-8.836,0-16,7.164-16,16v120c0,8.836,7.164,16,16,16h224c8.836,0,16-7.164,16-16V48
		C384,39.164,376.836,32,368,32z"/>
	<g>
		<path style="fill:#3688C8;" d="M408,280c0-8.8-7.2-16-16-16H120c-8.8,0-16,7.2-16,16v48c0,8.8,7.2,16,16,16h272
			c8.8,0,16-7.2,16-16V280z"/>
	</g>
	<g>
		<rect x="352" y="344" style="fill:#7F4122;" width="32" height="16"/>
	</g>
	<g>
		<rect x="336" y="184" style="fill:#7F4122;" width="32" height="16"/>
	</g>
	<g>
		<rect x="144" y="184" style="fill:#7F4122;" width="32" height="16"/>
	</g>
	<polygon style="fill:#7F4122;" points="352,368 256,396 160,368 160,384 228.571,404 160,424 160,440 256,412 352,440 352,424 
		283.429,404 352,384 	"/>
	<g>
		<path style="fill:#1470B7;" d="M408,280L408,280c-8.837,0-16,7.163-16,16v24c0,4.418-3.582,8-8,8H104c0,8.837,7.163,16,16,16h272
			c8.837,0,16-7.164,16-16.001V280z"/>
	</g>
	<g>
		<path style="fill:#1470B7;" d="M384,48L384,48c-8.837,0-16,7.163-16,16v96.001c0,4.418-3.582,8-8,8H128
			c0,8.837,7.163,15.999,16,15.999h224c8.837,0,16-7.163,16-16V48z"/>
	</g>
	<path style="fill:#A25425;" d="M352,504c0,4.4,3.6,8,8,8h16c4.4,0,8-3.6,8-8V360h-32V504z"/>
	<g>
		<rect x="128" y="344" style="fill:#7F4122;" width="32" height="16"/>
	</g>
	<path style="fill:#A25425;" d="M128,504c0,4.4,3.6,8,8,8h16c4.4,0,8-3.6,8-8V360h-32V504z"/>
	<rect x="336" y="200" style="fill:#A25425;" width="32" height="64"/>
	<rect x="144" y="200" style="fill:#A25425;" width="32" height="64"/>
	<path style="fill:#A25425;" d="M368,32h-32V16c0-8.837,7.163-16,16-16h0c8.837,0,16,7.163,16,16V32z"/>
	<path style="fill:#A25425;" d="M176,32h-32V16c0-8.837,7.163-16,16-16h0c8.837,0,16,7.163,16,16V32z"/>
</g>
<g>
</g>
<g>
</g>
<g>
</g>
<g>
</g>
<g>
</g>
<g>
</g>
<g>
</g>
<g>
</g>
<g>
</g>
<g>
</g>
<g>
</g>
<g>
</g>
<g>
</g>
<g>
</g>
<g>
</g>
</svg>
