<?xml version="1.0" encoding="iso-8859-1"?>
<!-- Generator: Adobe Illustrator 18.0.0, SVG Export Plug-In . SVG Version: 6.00 Build 0)  -->
<!DOCTYPE svg PUBLIC "-//W3C//DTD SVG 1.1//EN" "http://www.w3.org/Graphics/SVG/1.1/DTD/svg11.dtd">
<svg version="1.1" id="Capa_1" xmlns="http://www.w3.org/2000/svg" xmlns:xlink="http://www.w3.org/1999/xlink" x="0px" y="0px"
	 viewBox="0 0 512.044 512.044" style="enable-background:new 0 0 512.044 512.044;" xml:space="preserve">
<g>
	<polygon style="fill:#A25425;" points="432.022,144.044 432.022,16.044 240.022,16 240.022,144 320.022,144.044 320.022,160.044 
		240.022,160 240.022,480 432.022,480.044 432.022,160.044 336.022,160.044 336.022,144.044 	"/>
	<path style="fill:#59340F;" d="M88.022,496v8.044c0,4.4,3.6,8,8,8h24c4.4,0,9.609-3.22,11.578-7.155l4.444-8.889H88.022z"/>
	<path style="fill:#59340F;" d="M376,496l4.444,8.889c1.968,3.935,7.178,7.155,11.578,7.155h24c4.4,0,8-3.6,8-8V496H376z"/>
	<rect x="80.022" y="16" style="fill:#A25425;" width="144" height="72"/>
	<rect x="80.022" y="104" style="fill:#A25425;" width="144" height="72"/>
	<rect x="80.022" y="192" style="fill:#A25425;" width="144" height="72"/>
	<rect x="80.022" y="280" style="fill:#A25425;" width="144" height="72"/>
	<path style="fill:#C87629;" d="M432.026,0.044L280.022,0h-200c-8.836,0-16,7.163-16,16v464c0,8.836,7.164,16,16,16h200
		l151.996,0.044c8.802,0.002,16.004-7.198,16.004-16v-464C448.022,7.247,440.824,0.046,432.026,0.044z M224.022,480h-144V368h144
		V480z M224.022,352h-144v-72h144V352z M224.022,264h-144v-72h144V264z M224.022,176h-144v-72h144V176z M224.022,88h-144V16h144V88z
		 M432.022,480.044l-192-0.044V104h192V480.044z M432.022,88h-192V16l192,0.044V88z"/>
	<rect x="80.022" y="368" style="fill:#A25425;" width="144" height="112"/>
	<path style="fill:#7F4122;" d="M80.022,16.044v16v56h16v-24c0-17.673,14.327-32,32-32l96-0.044V16L80.022,16.044z"/>
	<path style="fill:#7F4122;" d="M240.022,16.044v16v56h16v-24c0-17.673,14.327-32,32-32l144-0.044V16L240.022,16.044z"/>
	<path style="fill:#7F4122;" d="M80.022,104v16v56h16v-24c0-17.673,14.327-32,32-32h96v-16H80.022z"/>
	<path style="fill:#7F4122;" d="M80.022,192v16v56h16v-24c0-17.673,14.327-32,32-32h96v-16H80.022z"/>
	<rect x="240.022" y="160" style="fill:#7F4122;" width="16" height="320"/>
	<polygon style="fill:#B1C3D0;" points="240.022,160 320.022,160.044 320.022,144.044 240.022,144 	"/>
	<rect x="336.022" y="144.044" style="fill:#B1C3D0;" width="96" height="16"/>
	
		<rect x="240.022" y="152.011" transform="matrix(-1 -2.755244e-004 2.755244e-004 -1 560.001 312.1201)" style="fill:#8EADBE;" width="80" height="8.022"/>
	<rect x="336.022" y="152.022" style="fill:#8EADBE;" width="96" height="8.022"/>
	<path style="fill:#FFFFFF;" d="M328.022,184L328.022,184c-4.418,0-8-3.582-8-8v-32c0-4.418,3.582-8,8-8l0,0c4.418,0,8,3.582,8,8v32
		C336.022,180.418,332.44,184,328.022,184z"/>
	<path style="fill:#FFFFFF;" d="M360.022,184L360.022,184c-4.418,0-8-3.582-8-8v-32c0-4.418,3.582-8,8-8l0,0c4.418,0,8,3.582,8,8v32
		C368.022,180.418,364.44,184,360.022,184z"/>
	<path style="fill:#FFFFFF;" d="M392.022,184L392.022,184c-4.418,0-8-3.582-8-8v-32c0-4.418,3.582-8,8-8l0,0c4.418,0,8,3.582,8,8v32
		C400.022,180.418,396.44,184,392.022,184z"/>
	<path style="fill:#FFFFFF;" d="M296.022,184L296.022,184c-4.418,0-8-3.582-8-8v-32c0-4.418,3.582-8,8-8l0,0c4.418,0,8,3.582,8,8v32
		C304.022,180.418,300.44,184,296.022,184z"/>
	<rect x="120.022" y="408" style="fill:#F5B445;" width="64" height="16"/>
	<rect x="120.022" y="424" style="fill:#7F4122;" width="64" height="8"/>
	<path style="fill:#F5B445;" d="M112.022,240L112.022,240c0-4.418,3.582-8,8-8h72c4.418,0,8,3.582,8,8v0c0,4.418-3.582,8-8,8h-72
		C115.604,248,112.022,244.418,112.022,240z"/>
	<path style="fill:#3CB44A;" d="M104.022,224L104.022,224c0-4.418,3.582-8,8-8h72c4.418,0,8,3.582,8,8v0c0,4.418-3.582,8-8,8h-72
		C107.604,232,104.022,228.418,104.022,224z"/>
	<path style="fill:#ED2C39;" d="M112.022,168L112.022,168c0-4.418,3.582-8,8-8h72c4.418,0,8,3.582,8,8v0c0,4.418-3.582,8-8,8h-72
		C115.604,176,112.022,172.418,112.022,168z"/>
	<path style="fill:#3CB44A;" d="M104.022,152L104.022,152c0-4.418,3.582-8,8-8h72c4.418,0,8,3.582,8,8v0c0,4.418-3.582,8-8,8h-72
		C107.604,160,104.022,156.418,104.022,152z"/>
	<path style="fill:#ED2C39;" d="M104.022,256L104.022,256c0-4.418,3.582-8,8-8h72c4.418,0,8,3.582,8,8v0c0,4.418-3.582,8-8,8h-72
		C107.604,264,104.022,260.418,104.022,256z"/>
	<path style="fill:#7F4122;" d="M80.022,280v16v56h16v-24c0-17.673,14.327-32,32-32h96v-16H80.022z"/>
	<path style="fill:#7F4122;" d="M240.022,104v16v24h16h1.131c3.569-13.778,15.975-24,30.869-24l144,0.044v-16L240.022,104z"/>
</g>
<g>
</g>
<g>
</g>
<g>
</g>
<g>
</g>
<g>
</g>
<g>
</g>
<g>
</g>
<g>
</g>
<g>
</g>
<g>
</g>
<g>
</g>
<g>
</g>
<g>
</g>
<g>
</g>
<g>
</g>
</svg>
