<?xml version="1.0" encoding="iso-8859-1"?>
<!-- Generator: Adobe Illustrator 18.0.0, SVG Export Plug-In . SVG Version: 6.00 Build 0)  -->
<!DOCTYPE svg PUBLIC "-//W3C//DTD SVG 1.1//EN" "http://www.w3.org/Graphics/SVG/1.1/DTD/svg11.dtd">
<svg version="1.1" id="Capa_1" xmlns="http://www.w3.org/2000/svg" xmlns:xlink="http://www.w3.org/1999/xlink" x="0px" y="0px"
	 viewBox="0 0 512 512" style="enable-background:new 0 0 512 512;" xml:space="preserve">
<g>
	<path style="fill:#B1C3D0;" d="M160,304l-7.238,16h203.821L344,304c50.977-35.195,86.672-94.129,86.672-160.016
		c0-8.835-7.164-15.984-16-15.984h-320c-8.836,0-16,7.165-16,16C78.672,209.875,109.023,268.805,160,304z"/>
	<g>
		<rect x="240" y="88" style="fill:#576D7E;" width="32" height="40"/>
	</g>
	<g>
		<rect x="384" y="40" style="fill:#576D7E;" width="32" height="8"/>
	</g>
	<g>
		<path style="fill:#B1C3D0;" d="M416,80H240c-8.836,0-16-7.164-16-16s7.164-16,16-16h176c8.836,0,16,7.164,16,16S424.836,80,416,80
			z"/>
	</g>
	<path style="fill:#A25425;" d="M424,480.134V351.866c8.204-0.686,16-7.486,16-15.866c0-8.836-7.164-16-16-16H88
		c-8.836,0-16,7.164-16,16s7.164,16,16,16v128c-8.836,0-16,7.164-16,16s7.164,16,16,16h336c8.836,0,16-7.164,16-16
		C440,487.619,432.204,480.819,424,480.134z"/>
	<path style="fill:#7F4122;" d="M280,424c0,13.258-10.734,24-23.984,24C242.758,448,232,437.258,232,424
		c0-13.25,10.758-24,24.016-24C269.266,400,280,410.75,280,424z"/>
	<path style="fill:#FCCF63;" d="M272.97,432.97c-9.374,9.374-24.561,9.38-33.93,0.011c-9.374-9.374-9.386-24.578-0.011-33.952
		c9.37-9.37,24.578-9.363,33.952,0.011C282.35,408.41,282.34,423.601,272.97,432.97z"/>
	<path style="fill:#8A5428;" d="M416,32h-32c-8.837,0-16-7.163-16-16l0,0c0-8.837,7.163-16,16-16h32c8.837,0,16,7.163,16,16l0,0
		C432,24.837,424.837,32,416,32z"/>
	<rect x="240" y="80" style="fill:#35495C;" width="32" height="8"/>
	<rect x="384" y="32" style="fill:#35495C;" width="32" height="8"/>
	<path style="fill:#7F4122;" d="M88,352L88,352c0,8.837,7.163,16,16,16h288c8.837,0,16,7.163,16,16v64c0,8.837-7.163,16-16,16H104
		c-8.837,0-16,7.163-16,16v0h336v-16v-96v-16H88z"/>
	<path style="fill:#8EADBE;" d="M430.672,143.726c-0.012-8.728-7.272-15.728-16-15.726c-33.069,0.01-62.851,19.994-75.373,50.602
		l-39.183,95.781c-7.328,17.915-24.761,29.619-44.116,29.621V304h-96l-7.238,16H256h100.583L344,304
		C395.043,268.758,430.765,209.717,430.672,143.726z"/>
</g>
<g>
</g>
<g>
</g>
<g>
</g>
<g>
</g>
<g>
</g>
<g>
</g>
<g>
</g>
<g>
</g>
<g>
</g>
<g>
</g>
<g>
</g>
<g>
</g>
<g>
</g>
<g>
</g>
<g>
</g>
</svg>
