<?xml version="1.0" encoding="iso-8859-1"?>
<!-- Generator: Adobe Illustrator 18.0.0, SVG Export Plug-In . SVG Version: 6.00 Build 0)  -->
<!DOCTYPE svg PUBLIC "-//W3C//DTD SVG 1.1//EN" "http://www.w3.org/Graphics/SVG/1.1/DTD/svg11.dtd">
<svg version="1.1" id="Capa_1" xmlns="http://www.w3.org/2000/svg" xmlns:xlink="http://www.w3.org/1999/xlink" x="0px" y="0px"
	 viewBox="0 0 512 512" style="enable-background:new 0 0 512 512;" xml:space="preserve">
<g>
	<path style="fill:#B1C3D0;" d="M456,0H56c-8.837,0-16,7.163-16,16v160c0,8.837,7.163,16,16,16h400c8.836,0,16-7.163,16-16V16
		C472,7.163,464.836,0,456,0z M328,128H184c-4.418,0-8-3.582-8-8V64c0-4.418,3.582-8,8-8h144c4.418,0,8,3.582,8,8v56
		C336,124.418,332.418,128,328,128z"/>
	<rect x="56" y="192" style="fill:#3F556B;" width="400" height="272"/>
	<path style="fill:#8EADBE;" d="M392,104c-7.447,0-13.651-5.107-15.435-12c-0.332,1.286-0.565,2.61-0.565,4c0,8.844,7.164,16,16,16
		c8.836,0,16-7.156,16-16c0-1.39-0.233-2.714-0.565-4C405.651,98.893,399.447,104,392,104z"/>
	<path style="fill:#E2E4E6;" d="M408,88c0,8.844-7.164,16-16,16c-8.836,0-16-7.156-16-16c0-8.843,7.164-16,16-16
		C400.836,72,408,79.157,408,88z"/>
	<path style="fill:#8EADBE;" d="M120,104c-7.447,0-13.651-5.107-15.435-12c-0.332,1.286-0.565,2.61-0.565,4c0,8.844,7.164,16,16,16
		c8.836,0,16-7.156,16-16c0-1.39-0.233-2.714-0.565-4C133.651,98.893,127.447,104,120,104z"/>
	<path style="fill:#E2E4E6;" d="M136,88c0,8.844-7.164,16-16,16c-8.836,0-16-7.156-16-16c0-8.843,7.164-16,16-16
		C128.836,72,136,79.157,136,88z"/>
	<path style="fill:#3CB44A;" d="M328,128H184c-4.418,0-8-3.582-8-8V72h160v48C336,124.418,332.418,128,328,128z"/>
	<path style="fill:#0E9247;" d="M336,72H176v-8c0-4.418,3.582-8,8-8h144c4.418,0,8,3.582,8,8V72z"/>
	<path style="fill:#B1C3D0;" d="M470,512H42c-1.105,0-2-0.895-2-2v-44c0-1.105,0.895-2,2-2h428c1.105,0,2,0.895,2,2v44
		C472,511.105,471.105,512,470,512z"/>
	<path style="fill:#E2E4E6;" d="M184,320v128c0,8.837,7.163,16,16,16h112c8.837,0,16-7.163,16-16v-24h16c22.055,0,40-17.946,40-40
		s-17.945-40-40-40h-16v-24H184z M328,360h16c13.235,0,24,10.766,24,24c0,13.234-10.765,24-24,24h-16V360z"/>
	<path style="fill:#8EADBE;" d="M232,296L232,296c-4.418,0-8-3.582-8-8v-24h16v24C240,292.418,236.418,296,232,296z"/>
	<path style="fill:#8EADBE;" d="M280,296L280,296c-4.418,0-8-3.582-8-8v-24h16v24C288,292.418,284.418,296,280,296z"/>
	<path style="fill:#566E7F;" d="M428,224h-68c-17.673,0-32-14.327-32-32v0H184v64c0,4.418,3.582,8,8,8h128c4.418,0,8-3.582,8-8v0
		c0-4.418,3.582-8,8-8h92c6.627,0,12-5.373,12-12C440,229.373,434.627,224,428,224z"/>
	<path style="fill:#8EADBE;" d="M456,32v128c0,8.837-7.163,16-16,16H72c-8.837,0-16,7.163-16,16l0,0h296h16h88
		c8.837,0,16-7.163,16-16V16l0,0C463.163,16,456,23.163,456,32z"/>
	<path style="fill:#8EADBE;" d="M456,496L456,496H72c-8.837,0-16,7.163-16,16l0,0h304h16h80c8.837,0,16-7.163,16-16v-16l0,0
		C463.163,480,456,487.163,456,496z"/>
	<path style="fill:#D0D7DA;" d="M342.215,344L336,344c-4.418,0-8-3.582-8-8v-16h-8c-17.673,0-32,14.327-32,32v88
		c0,4.418-3.582,8-8,8h-96c0,8.837,7.163,16,16,16h112c8.837,0,16-7.163,16-16v-16c0-4.418,3.582-8,8-8h8
		c23.374,0,42.133-20.157,39.804-44C381.775,359.221,363.093,344,342.215,344z M343.053,408H336c-4.418,0-8-3.582-8-8v-32
		c0-4.418,3.582-8,8-8h8c14.799,0,26.511,13.461,23.535,28.783C365.322,400.177,354.66,408,343.053,408z"/>
</g>
<g>
</g>
<g>
</g>
<g>
</g>
<g>
</g>
<g>
</g>
<g>
</g>
<g>
</g>
<g>
</g>
<g>
</g>
<g>
</g>
<g>
</g>
<g>
</g>
<g>
</g>
<g>
</g>
<g>
</g>
</svg>
