<?xml version="1.0" encoding="iso-8859-1"?>
<!-- Generator: Adobe Illustrator 18.0.0, SVG Export Plug-In . SVG Version: 6.00 Build 0)  -->
<!DOCTYPE svg PUBLIC "-//W3C//DTD SVG 1.1//EN" "http://www.w3.org/Graphics/SVG/1.1/DTD/svg11.dtd">
<svg version="1.1" id="Capa_1" xmlns="http://www.w3.org/2000/svg" xmlns:xlink="http://www.w3.org/1999/xlink" x="0px" y="0px"
	 viewBox="0 0 512 512" style="enable-background:new 0 0 512 512;" xml:space="preserve">
<g>
	<path style="fill:#AF6328;" d="M504,232H8c-4.4,0-8,3.6-8,8v80c0,4.4,3.6,8,8,8h496c4.4,0,8-3.6,8-8v-80
		C512,235.6,508.4,232,504,232z M464,312H48v-64h416V312z"/>
	<rect x="80" y="272" style="fill:#F5B445;" width="64" height="16"/>
	<rect x="80" y="288" style="fill:#73371B;" width="64" height="8"/>
	<rect x="368" y="272" style="fill:#F5B445;" width="64" height="16"/>
	<rect x="368" y="288" style="fill:#73371B;" width="64" height="8"/>
	<polygon style="fill:#50BEE7;" points="336,104 176,184 176,224 336,144 	"/>
	<polygon style="fill:#50BEE7;" points="336,64 176,144 176,168 336,88 	"/>
	<g>
		<polygon style="fill:#00ACDD;" points="176,232 336,232 336,144 176,224 		"/>
		<polygon style="fill:#00ACDD;" points="176,24 176,144 336,64 336,24 		"/>
		<polygon style="fill:#00ACDD;" points="176,184 336,104 336,88 176,168 		"/>
	</g>
	<path style="fill:#A25425;" d="M84.437,344c5.544-9.525,15.748-16,27.563-16H80H48v16H84.437z"/>
	<path style="fill:#A25425;" d="M427.562,344c-5.544-9.525-15.748-16-27.562-16h32h32v16H427.562z"/>
	<path style="fill:#7F4122;" d="M48,248v64h416v-64H48z M144,296H80v-24h64V296z M432,296h-64v-24h64V296z"/>
	<path style="fill:#AF6328;" d="M48,344v95.012c0,11.253-1.814,22.432-5.373,33.107l-6.976,20.927
		C33.855,498.435,37.866,504,43.546,504c2.782,0,5.381-1.391,6.924-3.706l11.946-17.918C73.881,465.178,80,444.972,80,424.303V360
		c0-5.859,1.689-11.277,4.438-16H48z"/>
	<path style="fill:#AF6328;" d="M469.373,472.119c-3.559-10.675-5.373-21.854-5.373-33.107V344h-36.438
		c2.749,4.723,4.438,10.141,4.438,16v64.303c0,20.668,4.534,40.875,16,58.073l11.945,17.918c1.544,2.315,4.143,3.706,6.925,3.706
		c5.68,0,9.691-5.565,7.895-10.954L469.373,472.119z"/>
	<g>
		<polygon style="fill:#00ACDD;" points="352,232 440,232 440,172 352,216 		"/>
		<polygon style="fill:#00ACDD;" points="352,72 352,136 440,92 440,72 		"/>
		<polygon style="fill:#00ACDD;" points="352,176 440,132 440,116 352,160 		"/>
	</g>
	<polygon style="fill:#50BEE7;" points="352,216 440,172 440,132 352,176 	"/>
	<polygon style="fill:#50BEE7;" points="352,160 440,116 440,92 352,136 	"/>
	<path style="fill:#A25425;" d="M448,56h-96V16c0-4.418-3.582-8-8-8H168c-4.418,0-8,3.582-8,8v40H64c-4.422,0-8,3.582-8,8v168h16V72
		h88v160h16V24h160v208h16V72h88v160h16V64C456,59.582,452.422,56,448,56z"/>
	<g>
		<polygon style="fill:#00ACDD;" points="72,232 160,232 160,172 72,216 		"/>
		<polygon style="fill:#00ACDD;" points="72,72 72,136 160,92 160,72 		"/>
		<polygon style="fill:#00ACDD;" points="72,176 160,132 160,116 72,160 		"/>
	</g>
	<polygon style="fill:#50BEE7;" points="72,216 160,172 160,132 72,176 	"/>
	<polygon style="fill:#50BEE7;" points="72,160 160,116 160,92 72,136 	"/>
</g>
<g>
</g>
<g>
</g>
<g>
</g>
<g>
</g>
<g>
</g>
<g>
</g>
<g>
</g>
<g>
</g>
<g>
</g>
<g>
</g>
<g>
</g>
<g>
</g>
<g>
</g>
<g>
</g>
<g>
</g>
</svg>
