<?xml version="1.0" encoding="iso-8859-1"?>
<!-- Generator: Adobe Illustrator 18.0.0, SVG Export Plug-In . SVG Version: 6.00 Build 0)  -->
<!DOCTYPE svg PUBLIC "-//W3C//DTD SVG 1.1//EN" "http://www.w3.org/Graphics/SVG/1.1/DTD/svg11.dtd">
<svg version="1.1" id="Capa_1" xmlns="http://www.w3.org/2000/svg" xmlns:xlink="http://www.w3.org/1999/xlink" x="0px" y="0px"
	 viewBox="0 0 512 512" style="enable-background:new 0 0 512 512;" xml:space="preserve">
<g>
	<path style="fill:#A25425;" d="M511.559,297.512l-15.273-111.996C493.063,161.848,472.617,144,448.727,144h-53.745l4.891,29.348
		c0.153,0.918,0.008,1.784-0.106,2.652h48.959c7.965,0,14.777,5.949,15.852,13.836l15.277,112c0.633,4.648-0.719,9.152-3.801,12.684
		c-3.082,3.535-7.363,5.48-12.055,5.48h-46.667l4.892,29.348c0.151,0.908,0.119,1.791,0.01,2.652H464
		c13.863,0,27.047-5.992,36.164-16.438S513.434,311.25,511.559,297.512z"/>
	<g>
		<path style="fill:#3688C8;" d="M1,240h14c0.552,0,1-0.448,1-1v-78c0-0.552-0.448-1-1-1H1c-0.552,0-1,0.448-1,1l0,78
			C0,239.552,0.448,240,1,240z"/>
	</g>
	<path style="fill:#B1C3D0;" d="M415.652,395.985l-31.75-285.75C383,102.133,376.152,96,368,96H176.098
		c-8.152,0-15,6.133-15.903,14.234l-13.187,118.682l-94.587-57.3C49.562,169.278,45.982,168,42.289,168H16v64h16
		c4.707,0,9.174,2.072,12.214,5.665l89.124,114.28l-5.143,46.289c-0.504,4.524,0.946,9.047,3.981,12.438
		c3.036,3.391,7.371,5.328,11.922,5.328H400c0.05,0,0.105-0.008,0.16,0c8.835,0,16-7.164,16-16
		C416.16,398.618,415.984,397.273,415.652,395.985z"/>
	<path style="fill:#8EADBE;" d="M136.658,322.069L52.117,213.665c-3.04-3.593-7.508-5.665-12.214-5.665h-3.669
		C29.477,208,24,202.523,24,195.767V176c0-4.418-3.582-8-8-8v40v8v16h16c4.707,0,9.174,2.072,12.214,5.665l89.124,114.28
		L136.658,322.069z"/>
	<path style="fill:#7F4122;" d="M511.559,297.512l-15.273-111.996c-1.66-11.641-14.91-5.766-13.898,1.724l13.172,94.272
		c1.875,13.738,1.859,31.742-7.258,42.188S470.25,336,448,336h-28l2.225,13.348c0.151,0.908,0.119,1.791,0.01,2.652H464
		c13.863,0,27.047-5.992,36.164-16.438S513.434,311.25,511.559,297.512z"/>
	<path style="fill:#8EADBE;" d="M422.225,349.348l-4.951-29.703c-0.735-4.412-4.552-7.645-9.024-7.645h-1.93l-14.237-128.138
		c5.019-0.683,8.65-5.358,7.79-10.515l-4.95-29.703c-0.685-4.106-4.072-7.078-8.14-7.485l-2.88-25.926
		C383.002,102.13,376.153,96,368,96h-15.428c-25.48,0-45.667,21.516-44.043,46.944l13.925,218.165
		C323.798,382.175,307.075,400,285.966,400h-157.78c0.001,3.915,1.352,7.725,3.99,10.672c3.036,3.391,7.372,5.328,11.922,5.328
		h181.86H400c0.05,0,0.105-0.008,0.16,0c8.836,0,16-7.164,16-16c0-1.382-0.176-2.727-0.508-4.015L411.654,360h1.547
		C418.854,360,423.154,354.924,422.225,349.348z"/>
</g>
<g>
</g>
<g>
</g>
<g>
</g>
<g>
</g>
<g>
</g>
<g>
</g>
<g>
</g>
<g>
</g>
<g>
</g>
<g>
</g>
<g>
</g>
<g>
</g>
<g>
</g>
<g>
</g>
<g>
</g>
</svg>
