<?xml version="1.0" encoding="iso-8859-1"?>
<!-- Generator: Adobe Illustrator 18.0.0, SVG Export Plug-In . SVG Version: 6.00 Build 0)  -->
<!DOCTYPE svg PUBLIC "-//W3C//DTD SVG 1.1//EN" "http://www.w3.org/Graphics/SVG/1.1/DTD/svg11.dtd">
<svg version="1.1" id="Capa_1" xmlns="http://www.w3.org/2000/svg" xmlns:xlink="http://www.w3.org/1999/xlink" x="0px" y="0px"
	 viewBox="0 0 512 512" style="enable-background:new 0 0 512 512;" xml:space="preserve">
<g>
	<path style="fill:#B1C3D0;" d="M304.339,479.978c-7.863,0.296-15.127-2.366-21.495-6.961C270.439,464.065,264,448.947,264,433.649
		V144l-15.903-0.004l-0.092,290.384c-0.004,13.349-4.859,26.604-14.697,35.625c-7.088,6.499-15.599,10.434-25.226,9.956
		c-8.624-0.428-16.081,5.783-16.081,14.417L192,512h128l0-17.812C320,485.756,312.765,479.661,304.339,479.978z"/>
	<g>
		<path style="fill:#F5B445;" d="M344,0H168c-8.836,0-16,7.164-16,16v112.004c0,8.836,7.164,16,16,16h176c8.836,0,16-7.164,16-16V16
			C360,7.164,352.836,0,344,0z"/>
	</g>
	<g>
		<polygon style="fill:#8EADBE;" points="263.904,160.004 248,160 248,144.004 264,144.004 		"/>
	</g>
	<g>
		<path style="fill:#F09820;" d="M312,104c0,13.255-10.745,24-24,24H184c-8.837,0-16,7.163-16,16h120h16h40c8.837,0,16-7.163,16-16
			V16l0,0h0c-26.51,0-48,21.49-48,48V104z"/>
	</g>
	<path style="fill:#576D7E;" d="M208,144.004v40c0,4.418,3.582,8,8,8s8-3.582,8-8v-40H208z"/>
</g>
<g>
</g>
<g>
</g>
<g>
</g>
<g>
</g>
<g>
</g>
<g>
</g>
<g>
</g>
<g>
</g>
<g>
</g>
<g>
</g>
<g>
</g>
<g>
</g>
<g>
</g>
<g>
</g>
<g>
</g>
</svg>
