<?xml version="1.0" encoding="iso-8859-1"?>
<!-- Generator: Adobe Illustrator 18.0.0, SVG Export Plug-In . SVG Version: 6.00 Build 0)  -->
<!DOCTYPE svg PUBLIC "-//W3C//DTD SVG 1.1//EN" "http://www.w3.org/Graphics/SVG/1.1/DTD/svg11.dtd">
<svg version="1.1" id="Capa_1" xmlns="http://www.w3.org/2000/svg" xmlns:xlink="http://www.w3.org/1999/xlink" x="0px" y="0px"
	 viewBox="0 0 512 512" style="enable-background:new 0 0 512 512;" xml:space="preserve">
<g>
	<path style="fill:#B1C3D0;" d="M192,208h-56v-72H72v72H40v-8c0-4.418-3.582-8-8-8H8c-4.418,0-8,3.582-8,8v8v80v8
		c0,4.418,3.582,8,8,8h24c4.418,0,8-3.582,8-8v-8h152V208z"/>
	<path style="fill:#ED2C39;" d="M496,440H208c-8.837,0-16-7.163-16-16V192c0-8.837,7.163-16,16-16h288c8.837,0,16,7.163,16,16v232
		C512,432.837,504.837,440,496,440z"/>
	<path style="fill:#ED2C39;" d="M176,136H56c-4.418,0-8-3.582-8-8V64c0-4.418,3.582-8,8-8h200l0,0C256,100.183,220.182,136,176,136z
		"/>
	<path style="fill:#CB202C;" d="M256,56c-8.434,0-15.718,5.846-17.572,14.075C231.985,98.654,206.447,120,175.922,120H56
		c-4.418,0-8,3.582-8,8l0,0c0,4.418,3.582,8,8,8h120C220.182,136,256,100.182,256,56L256,56z"/>
	<path style="fill:#CB202C;" d="M264,392c-7.447,0-13.651-5.107-15.435-12c-0.332,1.286-0.565,2.61-0.565,4c0,8.844,7.164,16,16,16
		c8.836,0,16-7.156,16-16c0-1.39-0.233-2.714-0.565-4C277.651,386.893,271.447,392,264,392z"/>
	<path style="fill:#E2E4E6;" d="M280,376c0,8.844-7.164,16-16,16c-8.836,0-16-7.156-16-16c0-8.843,7.164-16,16-16
		C272.836,360,280,367.157,280,376z"/>
	<path style="fill:#CB202C;" d="M320,392c-7.447,0-13.651-5.107-15.435-12c-0.332,1.286-0.565,2.61-0.565,4c0,8.844,7.164,16,16,16
		c8.836,0,16-7.156,16-16c0-1.39-0.233-2.714-0.565-4C333.651,386.893,327.447,392,320,392z"/>
	<path style="fill:#E2E4E6;" d="M336,376c0,8.844-7.164,16-16,16c-8.836,0-16-7.156-16-16c0-8.843,7.164-16,16-16
		C328.836,360,336,367.157,336,376z"/>
	<rect x="112" y="136" style="fill:#8EADBE;" width="24" height="72"/>
	<g>
		<path style="fill:#B52025;" d="M472,280c-4.422,0-8-3.578-8-8v-64c0-4.422,3.578-8,8-8c4.422,0,8,3.578,8,8v64
			C480,276.422,476.422,280,472,280z"/>
	</g>
	<g>
		<path style="fill:#B52025;" d="M440,280c-4.422,0-8-3.578-8-8v-64c0-4.422,3.578-8,8-8c4.422,0,8,3.578,8,8v64
			C448,276.422,444.422,280,440,280z"/>
	</g>
	<g>
		<path style="fill:#B52025;" d="M408,280c-4.422,0-8-3.578-8-8v-64c0-4.422,3.578-8,8-8c4.422,0,8,3.578,8,8v64
			C416,276.422,412.422,280,408,280z"/>
	</g>
	<g>
		<path style="fill:#B52025;" d="M376,280c-4.422,0-8-3.578-8-8v-64c0-4.422,3.578-8,8-8c4.422,0,8,3.578,8,8v64
			C384,276.422,380.422,280,376,280z"/>
	</g>
	<g>
		<path style="fill:#B52025;" d="M344,280c-4.422,0-8-3.578-8-8v-64c0-4.422,3.578-8,8-8c4.422,0,8,3.578,8,8v64
			C352,276.422,348.422,280,344,280z"/>
	</g>
	<g>
		<path style="fill:#B52025;" d="M312,280c-4.422,0-8-3.578-8-8v-64c0-4.422,3.578-8,8-8c4.422,0,8,3.578,8,8v64
			C320,276.422,316.422,280,312,280z"/>
	</g>
	<path style="fill:#8EADBE;" d="M40,264v16H0v16c0,4.418,3.582,8,8,8h24c4.418,0,8-3.582,8-8v-8h152v-24H40z"/>
	<path style="fill:#CB202C;" d="M496,208v200c0,8.837-7.163,16-16,16H224c-8.837,0-16,7.163-16,16l0,0h184h16h88
		c8.837,0,16-7.163,16-16V192l0,0C503.163,192,496,199.163,496,208z"/>
	<path style="fill:#B52025;" d="M448,440l4.422,8.845C454.39,452.78,459.6,456,464,456h24c4.4,0,8-3.6,8-8v-8H448z"/>
	<path style="fill:#B52025;" d="M208,440v8c0,4.4,3.6,8,8,8h24c4.4,0,9.609-3.22,11.578-7.155L256,440H208z"/>
</g>
<g>
</g>
<g>
</g>
<g>
</g>
<g>
</g>
<g>
</g>
<g>
</g>
<g>
</g>
<g>
</g>
<g>
</g>
<g>
</g>
<g>
</g>
<g>
</g>
<g>
</g>
<g>
</g>
<g>
</g>
</svg>
