<?xml version="1.0" encoding="iso-8859-1"?>
<!-- Generator: Adobe Illustrator 18.0.0, SVG Export Plug-In . SVG Version: 6.00 Build 0)  -->
<!DOCTYPE svg PUBLIC "-//W3C//DTD SVG 1.1//EN" "http://www.w3.org/Graphics/SVG/1.1/DTD/svg11.dtd">
<svg version="1.1" id="Capa_1" xmlns="http://www.w3.org/2000/svg" xmlns:xlink="http://www.w3.org/1999/xlink" x="0px" y="0px"
	 viewBox="0 0 512 512" style="enable-background:new 0 0 512 512;" xml:space="preserve">
<g>
	<path style="fill:#ED2C39;" d="M411.929,112c-7.094,0.019-13.296-4.784-15.245-11.605l-18.738-65.582
		C372.059,14.207,353.225,0,331.793,0H116.877C95.131,0,76.101,14.62,70.498,35.632l-6.021,22.581C53.539,99.23,48,141.5,48,183.95
		V184c4.418,0,8,3.582,8,8c0,4.418-3.582,8-8,8v8c4.418,0,8,3.582,8,8c0,4.418-3.582,8-8,8v32c0,8.836,7.164,16,16,16h352
		c26.51,0,48-21.49,48-48v-60.069C464,135.204,440.674,111.924,411.929,112z M304,112H176c-22.091,0-40-17.909-40-40
		s17.909-40,40-40h128c22.091,0,40,17.909,40,40S326.091,112,304,112z"/>
	<g>
		<path style="fill:#35495C;" d="M104,304c-17.644,0-16-14.356-16-32h64c0,17.644,1.644,32-16,32H104z"/>
	</g>
	<rect x="104" y="304" style="fill:#8EADBE;" width="32" height="8"/>
	<g>
		<path style="fill:#E2E4E6;" d="M424.002,160c0,8.844-7.156,16-15.992,16s-16.008-7.156-16.008-16c0-8.836,7.172-16,16.008-16
			S424.002,151.164,424.002,160z"/>
	</g>
	<g>
		<path style="fill:#E2E4E6;" d="M376.002,160c0,8.844-7.156,16-15.992,16s-16.008-7.156-16.008-16c0-8.836,7.172-16,16.008-16
			S376.002,151.164,376.002,160z"/>
	</g>
	<path style="fill:#C63B22;" d="M360.005,175.989c-7.446,0-13.652-5.107-15.438-11.994c-0.334,1.286-0.566,2.61-0.566,3.999
		c0,8.835,7.17,15.994,16.005,15.994c8.83,0,15.984-7.159,15.984-15.994c0-1.39-0.233-2.714-0.566-3.999
		C373.641,170.882,367.446,175.989,360.005,175.989z"/>
	<path style="fill:#C63B22;" d="M408.002,175.989c-7.446,0-13.652-5.107-15.438-11.994c-0.334,1.286-0.566,2.61-0.566,3.999
		c0,8.835,7.17,15.994,16.005,15.994c8.83,0,15.984-7.159,15.984-15.994c0-1.39-0.233-2.714-0.566-3.999
		C421.638,170.882,415.443,175.989,408.002,175.989z"/>
	<path style="fill:#B1C3D0;" d="M136,354.8V312h-32v42.8c-18.613,6.61-32,24.348-32,45.2v64c0,26.469,21.531,48,48,48
		s48-21.531,48-48v-64C168,379.148,154.613,361.411,136,354.8z M136,464c0,8.82-7.176,16-16,16s-16-7.18-16-16v-64
		c0-8.82,7.176-16,16-16s16,7.18,16,16V464z"/>
	<path style="fill:#CB202C;" d="M448,176v48c0,17.673-14.327,32-32,32H80c-8.837,0-16,7.163-16,16l0,0h264h32h56
		c26.51,0,48-21.49,48-48v-64l0,0C455.163,160,448,167.163,448,176z"/>
	<path style="fill:#CB202C;" d="M361.947,34.813l18.738,65.582c1.962,6.869,8.241,11.604,15.384,11.604h16
		c-7.144,0-13.422-4.736-15.384-11.604l-18.738-65.582C372.059,14.207,353.225,0,331.793,0h-16
		C337.225,0,356.059,14.207,361.947,34.813z"/>
	<path style="fill:#CB202C;" d="M136,72c0-19.351,13.743-35.487,32-39.194c-2.585-0.525-5.26-0.806-8-0.806
		c-22.091,0-40,17.909-40,40s17.909,40,40,40c2.74,0,5.415-0.281,8-0.806C149.743,107.487,136,91.351,136,72z"/>
	<path style="fill:#CB202C;" d="M319,224H145c-0.552,0-1-0.448-1-1v-14c0-0.552,0.448-1,1-1h174c0.552,0,1,0.448,1,1v14
		C320,223.552,319.552,224,319,224z"/>
	<path style="fill:#CB202C;" d="M319,200H145c-0.552,0-1-0.448-1-1v-14c0-0.552,0.448-1,1-1h174c0.552,0,1,0.448,1,1v14
		C320,199.552,319.552,200,319,200z"/>
	<path style="fill:#B52025;" d="M104,208H48c4.418,0,8,3.582,8,8c0,4.418-3.582,8-8,8h56c4.418,0,8-3.582,8-8S108.418,208,104,208z"
		/>
	<path style="fill:#B52025;" d="M104,184H48c4.418,0,8,3.582,8,8c0,4.418-3.582,8-8,8h56c4.418,0,8-3.582,8-8S108.418,184,104,184z"
		/>
</g>
<g>
</g>
<g>
</g>
<g>
</g>
<g>
</g>
<g>
</g>
<g>
</g>
<g>
</g>
<g>
</g>
<g>
</g>
<g>
</g>
<g>
</g>
<g>
</g>
<g>
</g>
<g>
</g>
<g>
</g>
</svg>
