<?xml version="1.0" encoding="iso-8859-1"?>
<!-- Generator: Adobe Illustrator 18.0.0, SVG Export Plug-In . SVG Version: 6.00 Build 0)  -->
<!DOCTYPE svg PUBLIC "-//W3C//DTD SVG 1.1//EN" "http://www.w3.org/Graphics/SVG/1.1/DTD/svg11.dtd">
<svg version="1.1" id="Capa_1" xmlns="http://www.w3.org/2000/svg" xmlns:xlink="http://www.w3.org/1999/xlink" x="0px" y="0px"
	 viewBox="0 0 512 512" style="enable-background:new 0 0 512 512;" xml:space="preserve">
<g>
	<path style="fill:#ED2C39;" d="M464,0H88C43.817,0,8,35.817,8,80v40c0,4.418,3.582,8,8,8h176c4.418,0,8-3.582,8-8V96
		c0-8.837,7.163-16,16-16h248c22.091,0,40-17.909,40-40v0C504,17.909,486.091,0,464,0z"/>
	<path style="fill:#ED2C39;" d="M488,432H200V152c0-4.418-3.582-8-8-8H16c-4.418,0-8,3.582-8,8v280v48h496v-32
		C504,439.163,496.837,432,488,432z"/>
	<path style="fill:#CB202C;" d="M486.251,35.473c-0.065,0.212-0.131,0.424-0.2,0.637C480.583,53.1,463.932,64,446.084,64L216,64
		c-17.673,0-32,14.327-32,32v16H32c-8.837,0-16,7.163-16,16v0h175.546c4.669,0,8.454-3.785,8.454-8.454l0-23.091
		C200,87.367,207.367,80,216.454,80L464,80c20.689,0,37.414-14.824,39.738-35.383c0.278-2.459,0.331-4.874,0.177-7.231
		C503.244,27.121,489.251,25.633,486.251,35.473z"/>
	<path style="fill:#3F556B;" d="M511,512H1c-0.552,0-1-0.448-1-1v-30c0-0.552,0.448-1,1-1h510c0.552,0,1,0.448,1,1v30
		C512,511.552,511.552,512,511,512z"/>
	<rect x="16" y="128" style="fill:#B1C3D0;" width="176" height="16"/>
	<circle style="fill:#B1C3D0;" cx="104" cy="384" r="48"/>
	<path style="fill:#8EADBE;" d="M104,344c25.159,0,45.76,19.367,47.798,44c0.109-1.322,0.202-2.649,0.202-4c0-26.51-21.49-48-48-48
		s-48,21.49-48,48c0,1.351,0.093,2.678,0.202,4C58.24,363.367,78.841,344,104,344z"/>
	<path style="fill:#E2E4E6;" d="M111,416H97c-0.552,0-1-0.448-1-1v-62c0-0.552,0.448-1,1-1h14c0.552,0,1,0.448,1,1v62
		C112,415.552,111.552,416,111,416z"/>
	<g>
		<rect x="360.041" y="128" style="fill:#B1C3D0;" width="32" height="72"/>
	</g>
	<path style="fill:#3CB44A;" d="M248,200c-4.418,0-8,3.582-8,8v200c0,13.255,10.745,24,24,24h192c13.255,0,24-10.745,24-24V224
		c0-4.418,3.582-8,8-8l0,0c4.418,0,8,3.582,8,8v112c0,4.418,3.582,8,8,8h0c4.418,0,8-3.582,8-8V216v0c0-8.837-7.163-16-16-16H248z"
		/>
	<path style="fill:#B52025;" d="M408,96h-63.959c-4.418,0-8-3.582-8-8v-8H416v8C416,92.418,412.418,96,408,96z"/>
	<path style="fill:#B1C3D0;" d="M392,128h-32c-4.418,0-8-3.582-8-8v-16h48v16C400,124.418,396.418,128,392,128z"/>
	<rect x="352" y="96" style="fill:#8EADBE;" width="48" height="8"/>
	<path style="fill:#8EADBE;" d="M360,128v8h16c4.418,0,8,3.582,8,8v56h8v-64v-8H360z"/>
	<path style="fill:#C63B22;" d="M10,464h492c1.105,0,2,0.895,2,2v14H8v-14C8,464.895,8.895,464,10,464z"/>
	<path style="fill:#CB202C;" d="M179,152h21v280h-24V155C176,153.343,177.343,152,179,152z"/>
	<path style="fill:#0E9247;" d="M480,408V224c0-4.418,3.582-8,8-8s8,3.582,8,8v112c0,4.418,3.582,8,8,8s8-3.582,8-8V216
		c0-8.837-7.163-16-16-16h-24c-22.091,0-40,17.909-40,40v160c0,8.837-7.163,16-16,16H288.8c-10.684,0-20.117,6.395-24.799,15.998
		L264,432h192C469.255,432,480,421.255,480,408z"/>
</g>
<g>
</g>
<g>
</g>
<g>
</g>
<g>
</g>
<g>
</g>
<g>
</g>
<g>
</g>
<g>
</g>
<g>
</g>
<g>
</g>
<g>
</g>
<g>
</g>
<g>
</g>
<g>
</g>
<g>
</g>
</svg>
