<?xml version="1.0" encoding="iso-8859-1"?>
<!-- Generator: Adobe Illustrator 18.0.0, SVG Export Plug-In . SVG Version: 6.00 Build 0)  -->
<!DOCTYPE svg PUBLIC "-//W3C//DTD SVG 1.1//EN" "http://www.w3.org/Graphics/SVG/1.1/DTD/svg11.dtd">
<svg version="1.1" id="Capa_1" xmlns="http://www.w3.org/2000/svg" xmlns:xlink="http://www.w3.org/1999/xlink" x="0px" y="0px"
	 viewBox="0 0 512 512" style="enable-background:new 0 0 512 512;" xml:space="preserve">
<g>
	<path style="fill:#7F4122;" d="M98.145,137.718c3.613,2.422,5.855,7.164,5.855,12.375v9.898h32h208h32v-9.891
		c0-5.211,2.273-9.969,5.934-12.43C390.176,132.125,400,120.398,400,95.976c0-26.461-21.531-47.984-48-47.984H127.969
		C101.519,47.992,80,69.5,80,95.937C80,120.398,89.867,132.156,98.145,137.718z"/>
	<path style="fill:#73371B;" d="M344,159.992h32v-9.891c0-5.211,2.273-9.969,5.934-12.43C390.176,132.125,400,120.398,400,95.976
		c0-26.461-21.531-47.984-48-47.984h-65.684l-67.369,112H232H344z"/>
	<path style="fill:#B1C3D0;" d="M448,160.008H32c-17.673,0-32,14.327-32,32v240.016c0,8.837,7.163,16,16,16h448
		c8.837,0,16-7.163,16-16V192.008C480,174.335,465.673,160.008,448,160.008z"/>
	<path style="fill:#566E7F;" d="M0,368.008v64.016c0,8.835,7.164,16,16,16h448c8.836,0,16-7.165,16-16v-64.016H0z"/>
	<path style="fill:#566E7F;" d="M510,247.992h-30v-40h30c1.105,0,2,0.895,2,2v36C512,247.097,511.105,247.992,510,247.992z"/>
	<path style="fill:#8EADBE;" d="M480,368.008v-16v-160l0,0c-8.837,0-16,7.163-16,16v112c0,17.673-14.327,32-32,32H0v16H480z"/>
	<path style="fill:#35495C;" d="M384,447.992v8.016c0,4.418,3.582,8,8,8h48c4.418,0,8-3.582,8-8v-8.016H384z"/>
	<path style="fill:#35495C;" d="M32,447.992v8.016c0,4.418,3.582,8,8,8h48c4.418,0,8-3.582,8-8v-8.016H32z"/>
</g>
<g>
</g>
<g>
</g>
<g>
</g>
<g>
</g>
<g>
</g>
<g>
</g>
<g>
</g>
<g>
</g>
<g>
</g>
<g>
</g>
<g>
</g>
<g>
</g>
<g>
</g>
<g>
</g>
<g>
</g>
</svg>
