<?xml version="1.0" encoding="iso-8859-1"?>
<!-- Generator: Adobe Illustrator 19.0.0, SVG Export Plug-In . SVG Version: 6.00 Build 0)  -->
<svg version="1.1" id="Capa_1" xmlns="http://www.w3.org/2000/svg" xmlns:xlink="http://www.w3.org/1999/xlink" x="0px" y="0px"
	 viewBox="0 0 56.053 56.053" style="enable-background:new 0 0 56.053 56.053;" xml:space="preserve">
<line style="fill:none;stroke:#BDC3C7;stroke-width:2;stroke-linecap:round;stroke-miterlimit:10;" x1="5.022" y1="34.678" x2="5.022" y2="37.912"/>
<line style="fill:none;stroke:#BDC3C7;stroke-width:2;stroke-linecap:round;stroke-miterlimit:10;" x1="9.022" y1="36.022" x2="9.022" y2="38.912"/>
<line style="fill:none;stroke:#BDC3C7;stroke-width:2;stroke-linecap:round;stroke-miterlimit:10;" x1="13.022" y1="38.912" x2="13.022" y2="36.628"/>
<line style="fill:none;stroke:#BDC3C7;stroke-width:2;stroke-linecap:round;stroke-miterlimit:10;" x1="49.022" y1="38.891" x2="49.022" y2="36.718"/>
<line style="fill:none;stroke:#BDC3C7;stroke-width:2;stroke-linecap:round;stroke-miterlimit:10;" x1="45.022" y1="38.995" x2="45.022" y2="36.49"/>
<line style="fill:none;stroke:#BDC3C7;stroke-width:2;stroke-linecap:round;stroke-miterlimit:10;" x1="41.022" y1="38.995" x2="41.022" y2="35.492"/>
<path style="fill:#955BA5;" d="M40.022,21.058l-4-4.467c-0.813-0.581-1.863-0.696-2.78-0.299c-4.084,1.769-9.533,6.997-18.495,9.218
	c-1.09,0.27-2.215,0.548-3.338,0.548l-7.682,0c-1.523,0-2.892,0.781-3.458,2.195l0,0c-0.652,1.63-0.085,3.498,1.375,4.472
	c0.039,0.026,0.079,0.052,0.119,0.079c4.515,2.981,9.753,4.276,15.14,3.771c3.817-0.357,9.697-0.978,14.115-1.764
	c2.641-0.47,5.346-0.414,7.958,0.2l5.214,1.227l0.07,0.025c0.067,0.024,0.136,0.047,0.205,0.069
	c5.673,1.799,13.726-1.377,11.05-10.848c-0.067-0.237-0.163-0.461-0.258-0.682l-2.413-6.417c-0.433-1.152-1.972-1.363-2.699-0.37
	l0,0c-1.326,1.812-3.466,2.982-5.71,3.044H40.022z"/>
<path style="fill:#F0C419;" d="M44.188,36.237l0.07,0.025c0.067,0.024,0.135,0.047,0.205,0.069c5.09,1.614,12.088-0.78,11.543-8.128
	c-0.016-0.216-0.293-0.303-0.439-0.143c-5.611,6.124-14.006,7.38-14.286,7.493L44.188,36.237z"/>
<g>
	<path style="fill:#546A79;" d="M31.626,17.304c0.144-0.082,0.293-0.17,0.434-0.246C31.919,17.134,31.77,17.222,31.626,17.304z"/>
	<path style="fill:#546A79;" d="M56.013,28.261c-0.535,6.06-6.846,7.978-11.537,6.49c-0.069-0.022-0.138-0.045-0.205-0.069
		l-0.07-0.024l-5.214-1.227c-2.611-0.615-5.317-0.67-7.958-0.2c-4.417,0.786-10.298,1.407-14.115,1.764
		c-5.386,0.504-10.625-0.79-15.14-3.771c-0.04-0.026-0.079-0.053-0.119-0.079c-0.797-0.532-1.317-1.333-1.528-2.214
		c-0.366,1.497,0.217,3.092,1.528,3.967c0.039,0.026,0.079,0.052,0.119,0.079c4.515,2.981,9.753,4.276,15.14,3.771
		c3.817-0.357,9.697-0.978,14.115-1.764c2.641-0.47,5.346-0.414,7.958,0.2l5.214,1.227l0.07,0.024
		c0.067,0.024,0.136,0.047,0.205,0.069C49.593,38.127,56.643,35.7,56.013,28.261z"/>
</g>
<path style="fill:#FB7B76;" d="M36.048,16.59c-0.813-0.58-1.864-0.696-2.78-0.299c-1.643,0.712-3.513,1.986-5.737,3.396
	l-1.696,1.053c-0.744,0.448-1.524,0.9-2.347,1.343l-1.821,0.919c-0.724,0.347-1.472,0.685-2.258,1.002l-1.964,0.717
	c-0.857,0.288-1.741,0.557-2.672,0.788c-1.09,0.27-2.215,0.402-3.338,0.548h-5.49c0.912,0.335,1.905,0.669,3.005,1
	c20.258,6.09,28.094-1.905,30.771-6.366L36.048,16.59z"/>
<path style="fill:#F0C419;" d="M16.329,25.075l13.693,1.712c2.841,0.355,4.48-3.129,2.395-5.091L29.16,18.63
	C25.896,20.719,21.81,23.433,16.329,25.075z"/>
<g>
</g>
<g>
</g>
<g>
</g>
<g>
</g>
<g>
</g>
<g>
</g>
<g>
</g>
<g>
</g>
<g>
</g>
<g>
</g>
<g>
</g>
<g>
</g>
<g>
</g>
<g>
</g>
<g>
</g>
</svg>
