<?xml version="1.0" encoding="iso-8859-1"?>
<!-- Generator: Adobe Illustrator 19.0.0, SVG Export Plug-In . SVG Version: 6.00 Build 0)  -->
<svg version="1.1" id="Capa_1" xmlns="http://www.w3.org/2000/svg" xmlns:xlink="http://www.w3.org/1999/xlink" x="0px" y="0px"
	 viewBox="0 0 58 58" style="enable-background:new 0 0 58 58;" xml:space="preserve">
<rect y="34.483" style="fill:#38454F;" width="46" height="10"/>
<polygon style="fill:#BDC3C7;" points="55,40.483 55,37.483 51,37.483 51,34.483 46,34.483 46,37.483 46,40.483 46,44.483 
	58,44.483 58,40.483 "/>
<line style="fill:none;stroke:#0096E6;stroke-width:2;stroke-linecap:round;stroke-linejoin:round;stroke-miterlimit:10;" x1="38" y1="27.483" x2="42" y2="27.483"/>
<line style="fill:none;stroke:#0096E6;stroke-width:2;stroke-linecap:round;stroke-linejoin:round;stroke-miterlimit:10;" x1="4" y1="27.483" x2="29" y2="27.483"/>
<line style="fill:none;stroke:#0096E6;stroke-width:2;stroke-linecap:round;stroke-linejoin:round;stroke-miterlimit:10;" x1="9" y1="18.483" x2="4" y2="18.483"/>
<line style="fill:none;stroke:#0096E6;stroke-width:2;stroke-linecap:round;stroke-linejoin:round;stroke-miterlimit:10;" x1="42" y1="18.483" x2="18" y2="18.483"/>
<path style="fill:#E64C3C;" d="M4,34.483H0v-19c0-1.086,0.88-1.966,1.966-1.966h0.067C3.12,13.517,4,14.397,4,15.483V34.483z"/>
<path style="fill:#48A0DC;" d="M46,34.483h-4v-19c0-1.086,0.88-1.966,1.966-1.966h0.067c1.086,0,1.966,0.88,1.966,1.966V34.483z"/>
<path style="fill:#BDC3C7;" d="M36.952,29.483h-6.903c-0.579,0-1.048-0.469-1.048-1.048v-1.903c0-0.579,0.469-1.048,1.048-1.048
	h6.903c0.579,0,1.048,0.469,1.048,1.048v1.903C38,29.014,37.531,29.483,36.952,29.483z"/>
<path style="fill:#BDC3C7;" d="M16.952,20.483h-6.903C9.469,20.483,9,20.014,9,19.435v-1.903c0-0.579,0.469-1.048,1.048-1.048h6.903
	c0.579,0,1.048,0.469,1.048,1.048v1.903C18,20.014,17.531,20.483,16.952,20.483z"/>
<g>
</g>
<g>
</g>
<g>
</g>
<g>
</g>
<g>
</g>
<g>
</g>
<g>
</g>
<g>
</g>
<g>
</g>
<g>
</g>
<g>
</g>
<g>
</g>
<g>
</g>
<g>
</g>
<g>
</g>
</svg>
