<?xml version="1.0" encoding="iso-8859-1"?>
<!-- Generator: Adobe Illustrator 19.0.0, SVG Export Plug-In . SVG Version: 6.00 Build 0)  -->
<svg version="1.1" id="Capa_1" xmlns="http://www.w3.org/2000/svg" xmlns:xlink="http://www.w3.org/1999/xlink" x="0px" y="0px"
	 viewBox="0 0 58 58" style="enable-background:new 0 0 58 58;" xml:space="preserve">
<path style="fill:#C03A2B;" d="M44,11H15v0c0-3.866,3.134-7,7-7h15C40.866,4,44,7.134,44,11L44,11z"/>
<path style="fill:#ECF0F1;" d="M43.828,20.933C43.415,20.338,42.724,20,42,20H29.225H16.451c-0.724,0-1.415,0.338-1.828,0.933
	c-0.49,0.707-0.977,2.172-0.899,3.934c0,0,0.532,4.939,4.559,6.383c0,0,4.939,1.064,5.471,3.647c0,0,0.958,2.247-1.824,3.647
	c0,0-1.976,1.14-1.824,3.647c0,0-0.684,2.887,5.471,2.735h3.647h3.647c6.155,0.152,5.471-2.735,5.471-2.735
	c0.152-2.507-1.824-3.647-1.824-3.647c-2.119-1.02-1.824-3.647-1.824-3.647c0.532-2.584,5.471-3.647,5.471-3.647
	c4.027-1.444,4.559-6.383,4.559-6.383C44.804,23.105,44.318,21.64,43.828,20.933z"/>
<path style="fill:#C03A2B;" d="M51,36h3.821C56.577,36,58,34.577,58,32.821V22.179C58,20.423,56.577,19,54.821,19H51V36z"/>
<path style="fill:#C03A2B;" d="M7,36H3.179C1.423,36,0,34.577,0,32.821V22.179C0,20.423,1.423,19,3.179,19H7V36z"/>
<g>
	<path style="fill:#E64C3C;" d="M44,11H29H14c0,0-6.875,0.125-7,8v18c0,0,4,15.125,15,17h7h0.014C29.012,53.977,29,53.957,29,53.933
		V52h-2c-0.553,0-1-0.448-1-1s0.447-1,1-1h2v-1h-2c-0.553,0-1-0.448-1-1s0.447-1,1-1h2v-1v-1.067v-0.006h-3.422
		c-6.155,0.152-5.471-2.735-5.471-2.735c-0.152-2.508,1.824-3.647,1.824-3.647c2.782-1.4,1.823-3.647,1.823-3.647
		c-0.532-2.584-5.471-3.647-5.471-3.647c-4.027-1.444-4.559-6.383-4.559-6.383c-0.078-1.762,0.408-3.227,0.899-3.934
		C15.036,20.338,15.726,20,16.451,20h12.775H42c0.724,0,1.415,0.338,1.828,0.933c0.49,0.707,0.977,2.172,0.898,3.934
		c0,0-0.532,4.939-4.559,6.383c0,0-4.939,1.064-5.471,3.647c0,0-0.296,2.627,1.824,3.647c0,0,1.976,1.14,1.824,3.647
		c0,0,0.684,2.887-5.471,2.735H31v0.006V46v1h2c0.553,0,1,0.448,1,1s-0.447,1-1,1h-2v1h2c0.553,0,1,0.448,1,1s-0.447,1-1,1h-2v1.933
		c0,0.024-0.012,0.044-0.014,0.067H36c11-1.875,15-17,15-17V19C50.875,11.125,44,11,44,11z"/>
</g>
<g>
</g>
<g>
</g>
<g>
</g>
<g>
</g>
<g>
</g>
<g>
</g>
<g>
</g>
<g>
</g>
<g>
</g>
<g>
</g>
<g>
</g>
<g>
</g>
<g>
</g>
<g>
</g>
<g>
</g>
</svg>
