<?xml version="1.0" encoding="iso-8859-1"?>
<!-- Generator: Adobe Illustrator 19.0.0, SVG Export Plug-In . SVG Version: 6.00 Build 0)  -->
<svg version="1.1" id="Capa_1" xmlns="http://www.w3.org/2000/svg" xmlns:xlink="http://www.w3.org/1999/xlink" x="0px" y="0px"
	 viewBox="0 0 56 56" style="enable-background:new 0 0 56 56;" xml:space="preserve">
<path style="fill:#B9C7EA;" d="M53.728,43.81l-0.453,0.274c-4.471,2.708-11.261,3.894-16.17,4.41
	c-0.036,0.004-0.071,0.006-0.106,0.006c-0.505,0-0.939-0.382-0.993-0.896c-0.058-0.549,0.341-1.041,0.89-1.099
	c6.653-0.701,12.102-2.169,15.343-4.133l0.452-0.274c1.446-0.876,2.31-2.276,2.31-3.746c0-0.553,0.448-1,1-1v-1.73
	c-0.556,0.855-1.32,1.61-2.272,2.187l-0.453,0.274c-2.432,1.473-5.823,2.65-10.079,3.5c-0.066,0.014-0.132,0.02-0.197,0.02
	c-0.467,0-0.885-0.329-0.979-0.805c-0.108-0.541,0.243-1.067,0.785-1.176c3.971-0.793,7.233-1.917,9.434-3.25l0.452-0.274
	c1.446-0.876,2.31-2.276,2.31-3.746c0-0.553,0.448-1,1-1v-2.245c0-1.826-1.039-3.54-2.791-4.602l-0.451-0.274v0h0
	c0.002,0.001,0.002,0.004,0,0.005C48.306,26.64,38.494,28.5,28,28.5c-10.739,0-20.06-1.728-24.758-4.263
	c-0.002-0.001-0.002-0.004,0-0.005h0v0l-0.451,0.274C1.039,25.567,0,27.281,0,29.107v15.785c0,1.826,1.039,3.54,2.791,4.602
	l0.453,0.274c10.409,6.308,39.103,6.308,49.512,0l0.453-0.274C54.961,48.433,56,46.719,56,44.893v-3.27
	C55.444,42.478,54.68,43.232,53.728,43.81z"/>
<path style="fill:#8697CB;" d="M55,38.353c0,1.47-0.863,2.87-2.31,3.746l-0.452,0.274c-3.242,1.964-8.69,3.432-15.343,4.133
	c-0.549,0.058-0.947,0.55-0.89,1.099c0.054,0.514,0.488,0.896,0.993,0.896c0.035,0,0.071-0.002,0.106-0.006
	c4.909-0.517,11.699-1.702,16.17-4.41l0.453-0.274c0.952-0.577,1.717-1.332,2.272-2.187v-4.27C55.448,37.353,55,37.8,55,38.353z"/>
<path style="fill:#8697CB;" d="M55,32.353c0,1.47-0.863,2.87-2.31,3.746l-0.452,0.274c-2.201,1.333-5.463,2.457-9.434,3.25
	c-0.542,0.108-0.893,0.635-0.785,1.176c0.095,0.476,0.512,0.805,0.979,0.805c0.065,0,0.131-0.006,0.197-0.02
	c4.256-0.85,7.646-2.027,10.079-3.5l0.453-0.274c0.952-0.577,1.717-1.332,2.272-2.187v-4.27C55.448,31.353,55,31.8,55,32.353z"/>
<path style="fill:#546A79;stroke:#38454F;stroke-width:2;stroke-linecap:round;stroke-miterlimit:10;" d="M52.758,24.232
	c0-5.471-18.392-7.607-32.758-6.409v-4.74c0-1.426,1.156-2.583,2.583-2.583h14.245c2.089,0,3.955-1.527,4.153-3.607
	C41.209,4.508,39.339,2.5,37,2.5H23.541C17.167,2.5,12,7.667,12,14.041v4.911c-5.203,1.116-8.758,2.876-8.758,5.28h0
	c-0.002,0.001-0.002,0.004,0,0.005C7.94,26.772,17.261,28.5,28,28.5c10.494,0,20.306-1.86,24.758-4.263
	C52.759,24.236,52.759,24.233,52.758,24.232L52.758,24.232z"/>
<g>
	<path style="fill:#38454F;" d="M22,21.5c-0.551,0-1-0.448-1-1v-3c0-0.553-0.448-1-1-1s-1,0.447-1,1v3c0,1.654,1.346,3,3,3
		c0.552,0,1-0.447,1-1S22.552,21.5,22,21.5z"/>
	<path style="fill:#38454F;" d="M12,16.5c-0.552,0-1,0.447-1,1v3c0,0.552-0.449,1-1,1c-0.552,0-1,0.447-1,1s0.448,1,1,1
		c1.654,0,3-1.346,3-3v-3C13,16.947,12.552,16.5,12,16.5z"/>
</g>
<g>
</g>
<g>
</g>
<g>
</g>
<g>
</g>
<g>
</g>
<g>
</g>
<g>
</g>
<g>
</g>
<g>
</g>
<g>
</g>
<g>
</g>
<g>
</g>
<g>
</g>
<g>
</g>
<g>
</g>
</svg>
