<?xml version="1.0" encoding="iso-8859-1"?>
<!-- Generator: Adobe Illustrator 19.0.0, SVG Export Plug-In . SVG Version: 6.00 Build 0)  -->
<svg version="1.1" id="Capa_1" xmlns="http://www.w3.org/2000/svg" xmlns:xlink="http://www.w3.org/1999/xlink" x="0px" y="0px"
	 viewBox="0 0 53 53" style="enable-background:new 0 0 53 53;" xml:space="preserve">
<path style="fill:#38454F;" d="M36.243,26.622l-1.427-0.713C33.703,25.352,33,24.214,33,22.969V10.26C33,9.012,31.988,8,30.74,8
	h-8.48C21.012,8,20,9.012,20,10.26v12.709c0,1.245-0.703,2.383-1.817,2.94l-1.427,0.713C14.571,27.714,12,26.125,12,23.682V7.747
	C12,3.469,15.469,0,19.747,0h13.505C37.531,0,41,3.469,41,7.747v15.935C41,26.125,38.429,27.714,36.243,26.622z"/>
<path style="fill:#556080;" d="M41,20.494v3.188c0,2.443-2.571,4.032-4.757,2.94l-1.427-0.713C33.703,25.352,33,24.214,33,22.969
	v-7.835C30.964,14.413,28.783,14,26.5,14s-4.464,0.413-6.5,1.133v7.835c0,1.245-0.703,2.383-1.817,2.94l-1.427,0.713
	C14.571,27.714,12,26.125,12,23.682v-3.188C8.901,23.947,7,28.496,7,33.5C7,44.27,15.73,53,26.5,53S46,44.27,46,33.5
	C46,28.496,44.099,23.947,41,20.494z"/>
<g>
	<path style="fill:#8697CB;" d="M27,46c-0.001,0-0.002,0-0.003,0c-3.766,0-7.471-1.715-9.911-4.586
		c-0.358-0.42-0.989-0.472-1.41-0.114c-0.421,0.357-0.472,0.988-0.115,1.409C18.376,46.022,22.651,48,26.997,48
		c0.001,0,0.002,0,0.003,0c0.553,0,1-0.448,1-1C28,46.447,27.552,46,27,46z"/>
	<path style="fill:#8697CB;" d="M14,33c0-0.552-0.447-1-1-1h0c-0.552,0-1,0.447-1,1c0,1.896,0.349,3.744,1.037,5.495
		c0.155,0.394,0.532,0.634,0.931,0.634c0.122,0,0.246-0.022,0.366-0.069c0.514-0.202,0.767-0.783,0.564-1.297
		C14.302,36.246,14,34.644,14,33z"/>
</g>
<g>
</g>
<g>
</g>
<g>
</g>
<g>
</g>
<g>
</g>
<g>
</g>
<g>
</g>
<g>
</g>
<g>
</g>
<g>
</g>
<g>
</g>
<g>
</g>
<g>
</g>
<g>
</g>
<g>
</g>
</svg>
