<?xml version="1.0" encoding="iso-8859-1"?>
<!-- Generator: Adobe Illustrator 19.0.0, SVG Export Plug-In . SVG Version: 6.00 Build 0)  -->
<svg version="1.1" id="Capa_1" xmlns="http://www.w3.org/2000/svg" xmlns:xlink="http://www.w3.org/1999/xlink" x="0px" y="0px"
	 viewBox="0 0 58.287 58.287" style="enable-background:new 0 0 58.287 58.287;" xml:space="preserve">
<path style="fill:none;stroke:#FDD7AD;stroke-width:2;stroke-linecap:round;stroke-miterlimit:10;" d="M44.409,45.135l0.808,0.808
	c0.633,0.633,1.577,0.912,2.42,0.61c1.216-0.436,2.657-0.062,3.486,1.121c0.703,1.003,0.703,2.403,0,3.406
	c-1.106,1.576-3.296,1.716-4.593,0.418"/>
<path style="fill:none;stroke:#E6E6E6;stroke-width:2;stroke-linecap:round;stroke-miterlimit:10;" d="M44.289,10.03l1.565-1.565
	c4.118-4.118,11.338-1.388,11.432,4.434c0.001,0.044,0.001,0.088,0.001,0.132c0,0.245-0.011,0.488-0.033,0.728
	c-0.457,5.063-5.92,8.091-10.64,6.203h0c-0.777-0.311-1.485-0.772-2.083-1.358l-3.011-2.95"/>
<path style="fill:#ED7161;" d="M46.287,40.528h-2.586l2.293-2.293c0.391-0.391,0.391-1.023,0-1.414s-1.023-0.391-1.414,0
	l-2.293,2.293v-2.586c0-0.552-0.448-1-1-1s-1,0.448-1,1v4h-4c-0.552,0-1,0.448-1,1s0.448,1,1,1h2.586l-2.293,2.293
	c-0.391,0.391-0.391,1.023,0,1.414c0.195,0.195,0.451,0.293,0.707,0.293s0.512-0.098,0.707-0.293l2.293-2.293v2.586
	c0,0.552,0.448,1,1,1s1-0.448,1-1v-4h4c0.552,0,1-0.448,1-1S46.839,40.528,46.287,40.528z"/>
<g>
	<path style="fill:#38454F;" d="M10.287,41.528c0-0.097,0.011-0.191,0.014-0.287L0.237,51.307c-0.316,0.316-0.316,0.828,0,1.144
		l1.684,1.684c0.316,0.316,0.828,0.316,1.144,0l8.535-8.535C10.777,44.452,10.287,43.049,10.287,41.528z"/>
	<path style="fill:#38454F;" d="M42.105,12.267c-0.781-0.781-2.047-0.781-2.828,0L17.001,34.543c0.096-0.004,0.19-0.014,0.287-0.014
		c1.52,0,2.924,0.49,4.071,1.313l20.747-20.747C42.886,14.314,42.886,13.048,42.105,12.267z"/>
</g>
<circle style="fill:#95A5A5;" cx="17.287" cy="41.528" r="7"/>
<circle style="fill:#BDC3C7;" cx="17.287" cy="41.528" r="4"/>
<path style="fill:#38454F;" d="M26.994,49.821l-3.078-3.078l-0.922-0.922l-5-5c-0.391-0.391-1.023-0.391-1.414,0
	s-0.391,1.023,0,1.414l5,5l0.922,0.922l2.371,2.371l-2.293,2.293c-0.391,0.391-0.391,1.023,0,1.414
	c0.195,0.195,0.451,0.293,0.707,0.293s0.512-0.098,0.707-0.293l3-3C27.385,50.845,27.385,50.212,26.994,49.821z"/>
<path style="fill:none;stroke:#E6E6E6;stroke-width:2;stroke-linecap:round;stroke-miterlimit:10;" d="M38.655,12.848l-2.368-2.319
	c-10.354-10.354-21.942-5.08-21.141,2.6c0.181,1.735,1.063,3.321,2.296,4.555l5.845,5.845l10,10l4.68,4.979"/>
<g>
</g>
<g>
</g>
<g>
</g>
<g>
</g>
<g>
</g>
<g>
</g>
<g>
</g>
<g>
</g>
<g>
</g>
<g>
</g>
<g>
</g>
<g>
</g>
<g>
</g>
<g>
</g>
<g>
</g>
</svg>
