<?xml version="1.0" encoding="iso-8859-1"?>
<!-- Generator: Adobe Illustrator 19.0.0, SVG Export Plug-In . SVG Version: 6.00 Build 0)  -->
<svg version="1.1" id="Capa_1" xmlns="http://www.w3.org/2000/svg" xmlns:xlink="http://www.w3.org/1999/xlink" x="0px" y="0px"
	 viewBox="0 0 58 58" style="enable-background:new 0 0 58 58;" xml:space="preserve">
<path style="fill:#ECF0F1;" d="M33,27c-1.019,0-1.941-0.397-2.65-1.03C30.234,25.98,30.119,26,30,26c-1.853,0-3.408-1.283-3.857-3
	h-0.702c-0.695,1.188-1.972,2-3.441,2s-2.746-0.812-3.441-2H18v1c0,2.2-1.8,4-4,4s-4-1.8-4-4v24h32V27H33z"/>
<rect x="20" y="52" style="fill:#D1D4D1;" width="12" height="6"/>
<path style="fill:#FF5364;" d="M20,45c-0.552,0-1-0.447-1-1v-6.586l-2.293,2.293c-0.391,0.391-1.023,0.391-1.414,0
	s-0.391-1.023,0-1.414l3.765-3.766c0.332-0.327,0.818-0.421,1.243-0.245C20.726,34.46,21,34.872,21,35.332V44
	C21,44.553,20.552,45,20,45z"/>
<rect x="10" y="48" style="fill:#ECF0F1;" width="32" height="4"/>
<path style="fill:#E2E2E2;" d="M14,32L14,32c-2.2,0-4-1.8-4-4V17c0-2.2,1.8-4,4-4h0c2.2,0,4,1.8,4,4v11C18,30.2,16.2,32,14,32z"/>
<path style="fill:#D1D4D1;" d="M22,29L22,29c-2.2,0-4-1.8-4-4V14c0-2.2,1.8-4,4-4h0c2.2,0,4,1.8,4,4v11C26,27.2,24.2,29,22,29z"/>
<path style="fill:#D1D4D1;" d="M29,27L29,27c0-2.2,1.8-4,4-4h11c2.2,0,4,1.8,4,4v0c0,2.2-1.8,4-4,4H33C30.8,31,29,29.2,29,27z"/>
<path style="fill:#ECF0F1;" d="M42,23V4c0-2.2-1.8-4-4-4s-4,1.8-4,4v19H42z"/>
<path style="fill:#E2E2E2;" d="M29,27c0-2.2,1.8-4,4-4h1v-8c0-2.2-1.8-4-4-4s-4,1.8-4,4v11c0,2.2,1.8,4,4,4
	c0.118,0,0.229-0.025,0.344-0.035C29.526,29.231,29,28.179,29,27z"/>
<rect x="10" y="49" style="fill:#8697CB;" width="32" height="3"/>
<g>
</g>
<g>
</g>
<g>
</g>
<g>
</g>
<g>
</g>
<g>
</g>
<g>
</g>
<g>
</g>
<g>
</g>
<g>
</g>
<g>
</g>
<g>
</g>
<g>
</g>
<g>
</g>
<g>
</g>
</svg>
