<?xml version="1.0" encoding="iso-8859-1"?>
<!-- Generator: Adobe Illustrator 19.0.0, SVG Export Plug-In . SVG Version: 6.00 Build 0)  -->
<svg version="1.1" id="Capa_1" xmlns="http://www.w3.org/2000/svg" xmlns:xlink="http://www.w3.org/1999/xlink" x="0px" y="0px"
	 viewBox="0 0 60 60" style="enable-background:new 0 0 60 60;" xml:space="preserve">
<rect x="1" y="26" style="fill:#ECF0F1;" width="3" height="8"/>
<polygon style="fill:#DAE8EA;" points="54,24 59,24 59,11 1,11 1,24 6,24 6,36 1,36 1,49 59,49 59,36 54,36 "/>
<rect x="56" y="26" style="fill:#ECF0F1;" width="3" height="8"/>
<polygon style="fill:#0096E6;" points="6,24 1,24 1,26 4,26 4,34 1,34 1,36 6,36 "/>
<polygon style="fill:#0096E6;" points="56,34 56,26 59,26 59,24 54,24 54,36 59,36 59,34 "/>
<path style="fill:#ED7161;" d="M12,26c-2.757,0-5-2.243-5-5s2.243-5,5-5s5,2.243,5,5S14.757,26,12,26z M12,18c-1.654,0-3,1.346-3,3
	s1.346,3,3,3s3-1.346,3-3S13.654,18,12,18z"/>
<path style="fill:#ED7161;" d="M48,26c-2.757,0-5-2.243-5-5s2.243-5,5-5s5,2.243,5,5S50.757,26,48,26z M48,18c-1.654,0-3,1.346-3,3
	s1.346,3,3,3s3-1.346,3-3S49.654,18,48,18z"/>
<path style="fill:#ED7161;" d="M12,44c-2.757,0-5-2.243-5-5s2.243-5,5-5s5,2.243,5,5S14.757,44,12,44z M12,36c-1.654,0-3,1.346-3,3
	s1.346,3,3,3s3-1.346,3-3S13.654,36,12,36z"/>
<path style="fill:#ED7161;" d="M48,44c-2.757,0-5-2.243-5-5s2.243-5,5-5s5,2.243,5,5S50.757,44,48,44z M48,36c-1.654,0-3,1.346-3,3
	s1.346,3,3,3s3-1.346,3-3S49.654,36,48,36z"/>
<rect x="39" y="11" style="fill:#0096E6;" width="2" height="38"/>
<rect x="19" y="11" style="fill:#0096E6;" width="2" height="38"/>
<path style="fill:#38454F;" d="M58,60h-1c-0.552,0-1-0.448-1-1s0.448-1,1-1h1c0.552,0,1,0.448,1,1S58.552,60,58,60z M54,60h-1
	c-0.552,0-1-0.448-1-1s0.448-1,1-1h1c0.552,0,1,0.448,1,1S54.552,60,54,60z M50,60h-1c-0.552,0-1-0.448-1-1s0.448-1,1-1h1
	c0.552,0,1,0.448,1,1S50.552,60,50,60z M46,60h-1c-0.552,0-1-0.448-1-1s0.448-1,1-1h1c0.552,0,1,0.448,1,1S46.552,60,46,60z M42,60
	h-1c-0.552,0-1-0.448-1-1s0.448-1,1-1h1c0.552,0,1,0.448,1,1S42.552,60,42,60z M38,60h-1c-0.552,0-1-0.448-1-1s0.448-1,1-1h1
	c0.552,0,1,0.448,1,1S38.552,60,38,60z M34,60h-1c-0.552,0-1-0.448-1-1s0.448-1,1-1h1c0.552,0,1,0.448,1,1S34.552,60,34,60z M30,60
	h-1c-0.552,0-1-0.448-1-1s0.448-1,1-1h1c0.552,0,1,0.448,1,1S30.552,60,30,60z M26,60h-1c-0.552,0-1-0.448-1-1s0.448-1,1-1h1
	c0.552,0,1,0.448,1,1S26.552,60,26,60z M22,60h-1c-0.552,0-1-0.448-1-1s0.448-1,1-1h1c0.552,0,1,0.448,1,1S22.552,60,22,60z M18,60
	h-1c-0.552,0-1-0.448-1-1s0.448-1,1-1h1c0.552,0,1,0.448,1,1S18.552,60,18,60z M14,60h-1c-0.552,0-1-0.448-1-1s0.448-1,1-1h1
	c0.552,0,1,0.448,1,1S14.552,60,14,60z M10,60H9c-0.552,0-1-0.448-1-1s0.448-1,1-1h1c0.552,0,1,0.448,1,1S10.552,60,10,60z M6,60H5
	c-0.552,0-1-0.448-1-1s0.448-1,1-1h1c0.552,0,1,0.448,1,1S6.552,60,6,60z M2,60H1c-0.552,0-1-0.448-1-1s0.448-1,1-1h1
	c0.552,0,1,0.448,1,1S2.552,60,2,60z"/>
<path style="fill:#38454F;" d="M54,57h-1c-0.552,0-1-0.448-1-1s0.448-1,1-1h1c0.552,0,1,0.448,1,1S54.552,57,54,57z M50,57h-1
	c-0.552,0-1-0.448-1-1s0.448-1,1-1h1c0.552,0,1,0.448,1,1S50.552,57,50,57z M46,57h-1c-0.552,0-1-0.448-1-1s0.448-1,1-1h1
	c0.552,0,1,0.448,1,1S46.552,57,46,57z M42,57h-1c-0.552,0-1-0.448-1-1s0.448-1,1-1h1c0.552,0,1,0.448,1,1S42.552,57,42,57z M38,57
	h-1c-0.552,0-1-0.448-1-1s0.448-1,1-1h1c0.552,0,1,0.448,1,1S38.552,57,38,57z M34,57h-1c-0.552,0-1-0.448-1-1s0.448-1,1-1h1
	c0.552,0,1,0.448,1,1S34.552,57,34,57z M30,57h-1c-0.552,0-1-0.448-1-1s0.448-1,1-1h1c0.552,0,1,0.448,1,1S30.552,57,30,57z M26,57
	h-1c-0.552,0-1-0.448-1-1s0.448-1,1-1h1c0.552,0,1,0.448,1,1S26.552,57,26,57z M22,57h-1c-0.552,0-1-0.448-1-1s0.448-1,1-1h1
	c0.552,0,1,0.448,1,1S22.552,57,22,57z M18,57h-1c-0.552,0-1-0.448-1-1s0.448-1,1-1h1c0.552,0,1,0.448,1,1S18.552,57,18,57z M14,57
	h-1c-0.552,0-1-0.448-1-1s0.448-1,1-1h1c0.552,0,1,0.448,1,1S14.552,57,14,57z M10,57H9c-0.552,0-1-0.448-1-1s0.448-1,1-1h1
	c0.552,0,1,0.448,1,1S10.552,57,10,57z M6,57H5c-0.552,0-1-0.448-1-1s0.448-1,1-1h1c0.552,0,1,0.448,1,1S6.552,57,6,57z"/>
<path style="fill:#38454F;" d="M50,54h-1c-0.552,0-1-0.448-1-1s0.448-1,1-1h1c0.552,0,1,0.448,1,1S50.552,54,50,54z M46,54h-1
	c-0.552,0-1-0.448-1-1s0.448-1,1-1h1c0.552,0,1,0.448,1,1S46.552,54,46,54z M42,54h-1c-0.552,0-1-0.448-1-1s0.448-1,1-1h1
	c0.552,0,1,0.448,1,1S42.552,54,42,54z M38,54h-1c-0.552,0-1-0.448-1-1s0.448-1,1-1h1c0.552,0,1,0.448,1,1S38.552,54,38,54z M34,54
	h-1c-0.552,0-1-0.448-1-1s0.448-1,1-1h1c0.552,0,1,0.448,1,1S34.552,54,34,54z M30,54h-1c-0.552,0-1-0.448-1-1s0.448-1,1-1h1
	c0.552,0,1,0.448,1,1S30.552,54,30,54z M26,54h-1c-0.552,0-1-0.448-1-1s0.448-1,1-1h1c0.552,0,1,0.448,1,1S26.552,54,26,54z M22,54
	h-1c-0.552,0-1-0.448-1-1s0.448-1,1-1h1c0.552,0,1,0.448,1,1S22.552,54,22,54z M18,54h-1c-0.552,0-1-0.448-1-1s0.448-1,1-1h1
	c0.552,0,1,0.448,1,1S18.552,54,18,54z M14,54h-1c-0.552,0-1-0.448-1-1s0.448-1,1-1h1c0.552,0,1,0.448,1,1S14.552,54,14,54z M10,54
	H9c-0.552,0-1-0.448-1-1s0.448-1,1-1h1c0.552,0,1,0.448,1,1S10.552,54,10,54z"/>
<path style="fill:#38454F;" d="M59,2h-1c-0.552,0-1-0.448-1-1s0.448-1,1-1h1c0.552,0,1,0.448,1,1S59.552,2,59,2z M55,2h-1
	c-0.552,0-1-0.448-1-1s0.448-1,1-1h1c0.552,0,1,0.448,1,1S55.552,2,55,2z M51,2h-1c-0.552,0-1-0.448-1-1s0.448-1,1-1h1
	c0.552,0,1,0.448,1,1S51.552,2,51,2z M47,2h-1c-0.552,0-1-0.448-1-1s0.448-1,1-1h1c0.552,0,1,0.448,1,1S47.552,2,47,2z M43,2h-1
	c-0.552,0-1-0.448-1-1s0.448-1,1-1h1c0.552,0,1,0.448,1,1S43.552,2,43,2z M39,2h-1c-0.552,0-1-0.448-1-1s0.448-1,1-1h1
	c0.552,0,1,0.448,1,1S39.552,2,39,2z M35,2h-1c-0.552,0-1-0.448-1-1s0.448-1,1-1h1c0.552,0,1,0.448,1,1S35.552,2,35,2z M31,2h-1
	c-0.552,0-1-0.448-1-1s0.448-1,1-1h1c0.552,0,1,0.448,1,1S31.552,2,31,2z M27,2h-1c-0.552,0-1-0.448-1-1s0.448-1,1-1h1
	c0.552,0,1,0.448,1,1S27.552,2,27,2z M23,2h-1c-0.552,0-1-0.448-1-1s0.448-1,1-1h1c0.552,0,1,0.448,1,1S23.552,2,23,2z M19,2h-1
	c-0.552,0-1-0.448-1-1s0.448-1,1-1h1c0.552,0,1,0.448,1,1S19.552,2,19,2z M15,2h-1c-0.552,0-1-0.448-1-1s0.448-1,1-1h1
	c0.552,0,1,0.448,1,1S15.552,2,15,2z M11,2h-1C9.448,2,9,1.552,9,1s0.448-1,1-1h1c0.552,0,1,0.448,1,1S11.552,2,11,2z M7,2H6
	C5.448,2,5,1.552,5,1s0.448-1,1-1h1c0.552,0,1,0.448,1,1S7.552,2,7,2z M3,2H2C1.448,2,1,1.552,1,1s0.448-1,1-1h1
	c0.552,0,1,0.448,1,1S3.552,2,3,2z"/>
<path style="fill:#38454F;" d="M55,5h-1c-0.552,0-1-0.448-1-1s0.448-1,1-1h1c0.552,0,1,0.448,1,1S55.552,5,55,5z M51,5h-1
	c-0.552,0-1-0.448-1-1s0.448-1,1-1h1c0.552,0,1,0.448,1,1S51.552,5,51,5z M47,5h-1c-0.552,0-1-0.448-1-1s0.448-1,1-1h1
	c0.552,0,1,0.448,1,1S47.552,5,47,5z M43,5h-1c-0.552,0-1-0.448-1-1s0.448-1,1-1h1c0.552,0,1,0.448,1,1S43.552,5,43,5z M39,5h-1
	c-0.552,0-1-0.448-1-1s0.448-1,1-1h1c0.552,0,1,0.448,1,1S39.552,5,39,5z M35,5h-1c-0.552,0-1-0.448-1-1s0.448-1,1-1h1
	c0.552,0,1,0.448,1,1S35.552,5,35,5z M31,5h-1c-0.552,0-1-0.448-1-1s0.448-1,1-1h1c0.552,0,1,0.448,1,1S31.552,5,31,5z M27,5h-1
	c-0.552,0-1-0.448-1-1s0.448-1,1-1h1c0.552,0,1,0.448,1,1S27.552,5,27,5z M23,5h-1c-0.552,0-1-0.448-1-1s0.448-1,1-1h1
	c0.552,0,1,0.448,1,1S23.552,5,23,5z M19,5h-1c-0.552,0-1-0.448-1-1s0.448-1,1-1h1c0.552,0,1,0.448,1,1S19.552,5,19,5z M15,5h-1
	c-0.552,0-1-0.448-1-1s0.448-1,1-1h1c0.552,0,1,0.448,1,1S15.552,5,15,5z M11,5h-1C9.448,5,9,4.552,9,4s0.448-1,1-1h1
	c0.552,0,1,0.448,1,1S11.552,5,11,5z M7,5H6C5.448,5,5,4.552,5,4s0.448-1,1-1h1c0.552,0,1,0.448,1,1S7.552,5,7,5z"/>
<path style="fill:#38454F;" d="M51,8h-1c-0.552,0-1-0.448-1-1s0.448-1,1-1h1c0.552,0,1,0.448,1,1S51.552,8,51,8z M47,8h-1
	c-0.552,0-1-0.448-1-1s0.448-1,1-1h1c0.552,0,1,0.448,1,1S47.552,8,47,8z M43,8h-1c-0.552,0-1-0.448-1-1s0.448-1,1-1h1
	c0.552,0,1,0.448,1,1S43.552,8,43,8z M39,8h-1c-0.552,0-1-0.448-1-1s0.448-1,1-1h1c0.552,0,1,0.448,1,1S39.552,8,39,8z M35,8h-1
	c-0.552,0-1-0.448-1-1s0.448-1,1-1h1c0.552,0,1,0.448,1,1S35.552,8,35,8z M31,8h-1c-0.552,0-1-0.448-1-1s0.448-1,1-1h1
	c0.552,0,1,0.448,1,1S31.552,8,31,8z M27,8h-1c-0.552,0-1-0.448-1-1s0.448-1,1-1h1c0.552,0,1,0.448,1,1S27.552,8,27,8z M23,8h-1
	c-0.552,0-1-0.448-1-1s0.448-1,1-1h1c0.552,0,1,0.448,1,1S23.552,8,23,8z M19,8h-1c-0.552,0-1-0.448-1-1s0.448-1,1-1h1
	c0.552,0,1,0.448,1,1S19.552,8,19,8z M15,8h-1c-0.552,0-1-0.448-1-1s0.448-1,1-1h1c0.552,0,1,0.448,1,1S15.552,8,15,8z M11,8h-1
	C9.448,8,9,7.552,9,7s0.448-1,1-1h1c0.552,0,1,0.448,1,1S11.552,8,11,8z"/>
<path style="fill:#ED7161;" d="M36,30c0-2.967-2.167-5.431-5-5.91V11h-2v13.09c-2.833,0.478-5,2.942-5,5.91s2.167,5.431,5,5.91V49h2
	V35.91C33.833,35.431,36,32.967,36,30z M30,34c-2.206,0-4-1.794-4-4s1.794-4,4-4s4,1.794,4,4S32.206,34,30,34z"/>
<circle style="fill:#FFFFFF;" cx="12" cy="21" r="3"/>
<circle style="fill:#FFFFFF;" cx="12" cy="39" r="3"/>
<circle style="fill:#FFFFFF;" cx="48" cy="21" r="3"/>
<circle style="fill:#FFFFFF;" cx="48" cy="39" r="3"/>
<circle style="fill:#FFFFFF;" cx="30" cy="30" r="4"/>
<g>
</g>
<g>
</g>
<g>
</g>
<g>
</g>
<g>
</g>
<g>
</g>
<g>
</g>
<g>
</g>
<g>
</g>
<g>
</g>
<g>
</g>
<g>
</g>
<g>
</g>
<g>
</g>
<g>
</g>
</svg>
