<?xml version="1.0" encoding="iso-8859-1"?>
<!-- Generator: Adobe Illustrator 19.0.0, SVG Export Plug-In . SVG Version: 6.00 Build 0)  -->
<svg version="1.1" id="Capa_1" xmlns="http://www.w3.org/2000/svg" xmlns:xlink="http://www.w3.org/1999/xlink" x="0px" y="0px"
	 viewBox="0 0 57 57" style="enable-background:new 0 0 57 57;" xml:space="preserve">
<circle style="fill:none;stroke:#ECF0F1;stroke-width:2;stroke-miterlimit:10;" cx="26.5" cy="44" r="12"/>
<circle style="fill:none;stroke:#ECF0F1;stroke-width:2;stroke-miterlimit:10;" cx="26.5" cy="41" r="15"/>
<path style="fill:none;stroke:#ECF0F1;stroke-width:2;stroke-miterlimit:10;" d="M6.5,19v18v-1c0,11.055,8.945,20,20,20
	c13.266,0,24-10.734,24-24v-7v1v-7"/>
<path style="fill:#CC66A1;" d="M55.5,2V1.761C55.5,0.789,54.711,0,53.739,0h-6.477C46.289,0,45.5,0.789,45.5,1.761V2
	c0,1.105,0.895,2,2,2h0v11h0c-1.105,0-2,0.895-2,2v0.446c0,0.858,0.696,1.554,1.554,1.554h6.893c0.858,0,1.554-0.696,1.554-1.554V17
	c0-1.105-0.895-2-2-2h0V4h0C54.605,4,55.5,3.105,55.5,2z"/>
<path style="fill:#CC66A1;" d="M11.5,2V1.761C11.5,0.789,10.711,0,9.739,0H3.261C2.289,0,1.5,0.789,1.5,1.761V2c0,1.105,0.895,2,2,2
	h0v11h0c-1.105,0-2,0.895-2,2v0.446C1.5,18.304,2.196,19,3.054,19h6.893c0.858,0,1.554-0.696,1.554-1.554V17c0-1.105-0.895-2-2-2h0
	V4h0C10.605,4,11.5,3.105,11.5,2z"/>
<g>
	<circle style="fill:#F2B0F4;" cx="48.5" cy="5" r="1"/>
	<circle style="fill:#F2B0F4;" cx="52.5" cy="5" r="1"/>
	<circle style="fill:#F2B0F4;" cx="50.5" cy="7" r="1"/>
	<circle style="fill:#F2B0F4;" cx="48.5" cy="9" r="1"/>
	<circle style="fill:#F2B0F4;" cx="52.5" cy="9" r="1"/>
	<circle style="fill:#F2B0F4;" cx="50.5" cy="11" r="1"/>
	<circle style="fill:#F2B0F4;" cx="48.5" cy="13" r="1"/>
	<circle style="fill:#F2B0F4;" cx="52.5" cy="13" r="1"/>
	<circle style="fill:#F2B0F4;" cx="50.5" cy="15" r="1"/>
	<circle style="fill:#F2B0F4;" cx="4.5" cy="5" r="1"/>
	<circle style="fill:#F2B0F4;" cx="8.5" cy="5" r="1"/>
	<circle style="fill:#F2B0F4;" cx="6.5" cy="7" r="1"/>
	<circle style="fill:#F2B0F4;" cx="4.5" cy="9" r="1"/>
	<circle style="fill:#F2B0F4;" cx="8.5" cy="9" r="1"/>
	<circle style="fill:#F2B0F4;" cx="6.5" cy="11" r="1"/>
	<circle style="fill:#F2B0F4;" cx="4.5" cy="13" r="1"/>
	<circle style="fill:#F2B0F4;" cx="8.5" cy="13" r="1"/>
	<circle style="fill:#F2B0F4;" cx="6.5" cy="15" r="1"/>
</g>
<g>
</g>
<g>
</g>
<g>
</g>
<g>
</g>
<g>
</g>
<g>
</g>
<g>
</g>
<g>
</g>
<g>
</g>
<g>
</g>
<g>
</g>
<g>
</g>
<g>
</g>
<g>
</g>
<g>
</g>
</svg>
