<?xml version="1.0" encoding="iso-8859-1"?>
<!-- Generator: Adobe Illustrator 19.0.0, SVG Export Plug-In . SVG Version: 6.00 Build 0)  -->
<svg version="1.1" id="Capa_1" xmlns="http://www.w3.org/2000/svg" xmlns:xlink="http://www.w3.org/1999/xlink" x="0px" y="0px"
	 viewBox="0 0 57.93 57.93" style="enable-background:new 0 0 57.93 57.93;" xml:space="preserve">
<g>
	<path style="fill:#F3D55B;" d="M27.703,31.614c-1.608-1.854-3.768-3.174-6.177-3.642c-1.196-0.232-2.326-0.849-3.182-1.835
		l-3.222-3.714C8.472,30.138,3.613,39.216,1.835,48.39l-1.553,8.011c-0.198,1.02,0.475,1.693,1.495,1.495l8.011-1.553
		c9.698-1.88,19.288-7.202,27.274-14.445L27.703,31.614z"/>
	<path style="fill:#F3D55B;" d="M55.134,0.551L48.36,1.865c-8.859,1.718-17.629,6.307-25.168,12.608l3.692,4.254
		c0.856,0.987,1.307,2.192,1.369,3.409c0.124,2.451,1.127,4.775,2.736,6.628l9.202,10.112c8.096-8.319,14.1-18.627,16.122-29.059
		l1.313-6.774C57.955,1.343,56.834,0.222,55.134,0.551z"/>
</g>
<g>
	<polygon style="fill:#38454F;" points="43.683,11.93 41.683,11.93 41.683,13.93 39.683,13.93 39.683,15.93 41.683,15.93 
		41.683,17.93 43.683,17.93 43.683,15.93 45.683,15.93 45.683,13.93 43.683,13.93 	"/>
	<polygon style="fill:#38454F;" points="51.683,7.93 49.683,7.93 49.683,5.93 47.683,5.93 47.683,7.93 45.683,7.93 45.683,9.93 
		47.683,9.93 47.683,11.93 49.683,11.93 49.683,9.93 51.683,9.93 	"/>
	<polygon style="fill:#38454F;" points="8.683,46.93 6.683,46.93 6.683,48.93 4.683,48.93 4.683,50.93 6.683,50.93 6.683,52.93 
		8.683,52.93 8.683,50.93 10.683,50.93 10.683,48.93 8.683,48.93 	"/>
	<polygon style="fill:#38454F;" points="14.683,40.93 12.683,40.93 12.683,42.93 10.683,42.93 10.683,44.93 12.683,44.93 
		12.683,46.93 14.683,46.93 14.683,44.93 16.683,44.93 16.683,42.93 14.683,42.93 	"/>
</g>
<g>
	<path style="fill:#38454F;" d="M28.252,22.136c0.124,2.451,1.127,4.775,2.736,6.628l5.355,5.885
		c4.199-5.275,5.202-11.464,2.077-14.589c-2.405-2.405-6.626-2.368-10.848-0.31C27.975,20.499,28.21,21.312,28.252,22.136z"/>
	<path style="fill:#38454F;" d="M27.703,31.614c-1.608-1.854-3.768-3.174-6.177-3.642c-0.798-0.155-1.557-0.496-2.234-0.988
		c-3.428,4.983-4.065,10.491-1.177,13.379c3.246,3.246,9.8,2.039,15.2-2.581L27.703,31.614z"/>
</g>
<path style="fill:#F18D46;" d="M48.28,47.767L30.988,28.764c-1.608-1.854-2.612-4.177-2.736-6.628
	c-0.061-1.217-0.513-2.423-1.369-3.409L11.103,0.542c-0.569-0.655-1.57-0.726-2.225-0.158L2.722,5.726
	c-0.655,0.569-0.726,1.57-0.158,2.225l15.78,18.185c0.856,0.987,1.986,1.603,3.182,1.835c2.409,0.468,4.568,1.789,6.177,3.642
	l17.293,19.003L48.28,47.767z"/>
<path style="fill:#38454F;" d="M47.91,56.151l5.112-4.436c1.246-1.081,1.381-2.986,0.3-4.232l0,0
	c-1.081-1.246-2.986-1.381-4.232-0.3l-5.112,4.436c-1.246,1.081-1.381,2.986-0.3,4.232l0,0
	C44.759,57.098,46.664,57.232,47.91,56.151z"/>
<g>
</g>
<g>
</g>
<g>
</g>
<g>
</g>
<g>
</g>
<g>
</g>
<g>
</g>
<g>
</g>
<g>
</g>
<g>
</g>
<g>
</g>
<g>
</g>
<g>
</g>
<g>
</g>
<g>
</g>
</svg>
