<?xml version="1.0" encoding="iso-8859-1"?>
<!-- Generator: Adobe Illustrator 19.0.0, SVG Export Plug-In . SVG Version: 6.00 Build 0)  -->
<svg version="1.1" id="Capa_1" xmlns="http://www.w3.org/2000/svg" xmlns:xlink="http://www.w3.org/1999/xlink" x="0px" y="0px"
	 viewBox="0 0 59.999 59.999" style="enable-background:new 0 0 59.999 59.999;" xml:space="preserve">
<path style="fill:#38454F;" d="M36.879,29.413c4.148,0,10.535-2.418,15.163-4.446c4.244-1.859,7.247-5.693,7.837-10.006
	c0.477-3.481-0.55-6.351-1.496-8.145c-0.813-1.542-2.052-2.8-3.617-3.658l-0.099-0.053C52.756,2.08,50.694,1.56,48.536,1.56
	c-5.32,0-10.135,3.173-12.267,8.083c-3.208,7.394-4.615,12.727-4.218,15.943L30,27.639l-2.052-2.052
	c0.397-3.215-1.009-8.548-4.218-15.944c-2.131-4.91-6.946-8.083-12.267-8.083c-2.158,0-4.22,0.52-6.122,1.54L5.198,3.177
	c-1.53,0.839-2.768,2.097-3.582,3.64c-0.945,1.793-1.972,4.662-1.495,8.144c0.59,4.313,3.593,8.146,7.837,10.006
	c4.627,2.028,11.013,4.446,15.163,4.446c0,0,0,0,0,0c0.411,0,0.794-0.026,1.153-0.074l4.975,4.975l-2.962-2.962L3.681,53.957
	c-1.025,1.025-1.025,2.688,0,3.713c1.025,1.025,2.688,1.025,3.713,0L30,35.064L52.606,57.67c1.025,1.025,2.688,1.025,3.713,0
	c1.025-1.025,1.025-2.688,0-3.713L33.713,31.351l2.012-2.012C36.084,29.387,36.468,29.413,36.879,29.413z M9,22.439h4v2.432
	c-1.267-0.482-2.603-1.027-4-1.636V22.439z M2.08,14.439c-0.169-1.485-0.021-2.835,0.275-4H7v4H2.08z M9,10.439h4v4H9V10.439z
	 M21.895,10.439C21.895,10.439,21.895,10.44,21.895,10.439c0.625,1.441,1.16,2.765,1.628,4H21v-4H21.895z M19,6.439v2h-4V4.134
	C16.478,4.622,17.841,5.404,19,6.436C19,6.437,19,6.438,19,6.439z M19,10.439v4h-4v-4H19z M13,16.439v4H9v-4H13z M15,25.439v-3h4
	v4.362c-1.213-0.298-2.567-0.709-4.03-1.215C14.978,25.536,15,25.491,15,25.439z M15,20.439v-4h4v4H15z M21,16.439h3
	c0.082,0,0.154-0.028,0.23-0.046c0.526,1.526,0.923,2.871,1.207,4.046H21V16.439z M13,3.669v4.77H9V3.85
	c0.802-0.185,1.623-0.29,2.464-0.29C11.983,3.56,12.495,3.6,13,3.669z M3.385,7.75c0.63-1.194,1.589-2.169,2.804-2.835L5.711,4.037
	l0.567,0.83C6.514,4.74,6.758,4.642,7,4.534v3.905H3.051C3.161,8.194,3.273,7.961,3.385,7.75z M2.53,16.439H7v4H5
	c-0.017,0-0.031,0.009-0.047,0.01C3.85,19.286,3.02,17.919,2.53,16.439z M23.121,27.413c-0.612,0-1.336-0.08-2.121-0.207v-4.766
	h4.844c0.376,2.387,0.15,3.795-0.415,4.363C25.027,27.202,24.229,27.413,23.121,27.413C23.122,27.413,23.121,27.413,23.121,27.413z
	 M34.673,26.892c-0.051-0.064-0.11-0.122-0.176-0.173c-0.51-0.616-0.699-2.003-0.341-4.28H39v4.766
	c-0.785,0.127-1.509,0.207-2.121,0.207C35.855,27.413,35.097,27.233,34.673,26.892z M35.769,16.393
	c0.076,0.019,0.149,0.047,0.231,0.047h3v4h-4.438C34.845,19.264,35.243,17.917,35.769,16.393z M38.104,10.44
	C38.104,10.44,38.105,10.439,38.104,10.44L39,10.439v4h-2.523C36.945,13.204,37.479,11.881,38.104,10.44z M57.919,14.439H53v-4
	h4.644C57.94,11.604,58.088,12.954,57.919,14.439z M51,14.439h-4v-4h4V14.439z M51,23.236c-1.397,0.608-2.733,1.154-4,1.636v-2.432
	h4V23.236z M45,22.439v3c0,0.052,0.022,0.097,0.03,0.147c-1.463,0.506-2.817,0.917-4.03,1.215v-4.362H45z M41,20.439v-4h4v4H41z
	 M47,20.439v-4h4v4H47z M45,14.439h-4v-4h4V14.439z M41,8.439v-2c0-0.001-0.001-0.002-0.001-0.003
	c1.16-1.032,2.522-1.814,4.001-2.302v4.305H41z M55.047,20.449c-0.017-0.001-0.03-0.01-0.047-0.01h-2v-4h4.47
	C56.979,17.919,56.15,19.286,55.047,20.449z M53.841,4.931c1.185,0.649,2.144,1.624,2.773,2.817c0.112,0.212,0.224,0.445,0.335,0.69
	H53V4.534c0.241,0.108,0.486,0.206,0.722,0.333C53.724,4.869,53.837,4.929,53.841,4.931z M51,3.85v4.589h-4v-4.77
	C47.505,3.6,48.017,3.56,48.536,3.56C49.376,3.56,50.198,3.664,51,3.85z"/>
<g>
</g>
<g>
</g>
<g>
</g>
<g>
</g>
<g>
</g>
<g>
</g>
<g>
</g>
<g>
</g>
<g>
</g>
<g>
</g>
<g>
</g>
<g>
</g>
<g>
</g>
<g>
</g>
<g>
</g>
</svg>
