<?xml version="1.0" encoding="iso-8859-1"?>
<!-- Generator: Adobe Illustrator 19.0.0, SVG Export Plug-In . SVG Version: 6.00 Build 0)  -->
<svg version="1.1" id="Capa_1" xmlns="http://www.w3.org/2000/svg" xmlns:xlink="http://www.w3.org/1999/xlink" x="0px" y="0px"
	 viewBox="0 0 58 58" style="enable-background:new 0 0 58 58;" xml:space="preserve">
<path style="fill:#D25627;" d="M35.362,15H22.638c-0.145,0.327-0.305,0.659-0.481,1h13.686C35.667,15.659,35.507,15.327,35.362,15z"
	/>
<path style="fill:#D25627;" d="M34.338,12H23.662c-0.075,0.319-0.166,0.652-0.272,1h11.219C34.504,12.652,34.413,12.319,34.338,12z"
	/>
<path style="fill:#D25627;" d="M37.018,18H20.982c-0.221,0.329-0.471,0.664-0.724,1h17.483C37.489,18.664,37.239,18.329,37.018,18z"
	/>
<path style="fill:#D25627;" d="M34,8h-5h-5c0,0,0.109,0.751-0.005,2h10.01C33.891,8.751,34,8,34,8z"/>
<path style="fill:#D25627;" d="M40.399,22c-0.347-0.335-0.657-0.667-0.968-1H18.57c-0.311,0.333-0.621,0.665-0.968,1
	c0,0-2.305,2.456-4.485,5.976c-4.343,7.014-4.212,15.938,0.801,22.522c2.249,2.954,5.574,5.641,10.48,6.852
	c3.01,0.744,6.196,0.744,9.206,0c4.905-1.212,8.231-3.899,10.48-6.852c5.013-6.585,5.143-15.508,0.801-22.522
	C42.704,24.456,40.399,22,40.399,22z"/>
<path style="fill:#38454F;" d="M34.005,10h-10.01c-0.052,0.569-0.155,1.242-0.333,2h10.676C34.159,11.242,34.057,10.569,34.005,10z"
	/>
<path style="fill:#38454F;" d="M34.609,13H23.391c-0.191,0.627-0.44,1.296-0.753,2h12.724C35.05,14.296,34.8,13.627,34.609,13z"/>
<path style="fill:#38454F;" d="M35.843,16H22.157c-0.335,0.648-0.714,1.313-1.175,2h16.036C36.557,17.313,36.178,16.648,35.843,16z"
	/>
<path style="fill:#38454F;" d="M37.742,19H20.258c-0.495,0.658-1.057,1.325-1.689,2h20.86C38.799,20.325,38.237,19.658,37.742,19z"
	/>
<path style="fill:#38454F;" d="M26,8V2.857C26,1.286,27.35,0,29,0h0c1.65,0,3,1.286,3,2.857V8H26z"/>
<path style="fill:#C03A2B;" d="M29,58c-3.735,0-10-2.209-10-17c0-0.553,0.448-1,1-1s1,0.447,1,1c0,6.843,1.388,15,8,15s8-8.157,8-15
	c0-0.553,0.448-1,1-1s1,0.447,1,1C39,55.791,32.735,58,29,58z"/>
<path style="fill:#C03A2B;" d="M29,58c-0.552,0-1-0.447-1-1V27c0-0.553,0.448-1,1-1s1,0.447,1,1v30C30,57.553,29.552,58,29,58z"/>
<g>
</g>
<g>
</g>
<g>
</g>
<g>
</g>
<g>
</g>
<g>
</g>
<g>
</g>
<g>
</g>
<g>
</g>
<g>
</g>
<g>
</g>
<g>
</g>
<g>
</g>
<g>
</g>
<g>
</g>
</svg>
