<?xml version="1.0" encoding="iso-8859-1"?>
<!-- Generator: Adobe Illustrator 19.0.0, SVG Export Plug-In . SVG Version: 6.00 Build 0)  -->
<svg version="1.1" id="Capa_1" xmlns="http://www.w3.org/2000/svg" xmlns:xlink="http://www.w3.org/1999/xlink" x="0px" y="0px"
	 viewBox="0 0 60 60" style="enable-background:new 0 0 60 60;" xml:space="preserve">
<ellipse transform="matrix(0.7071 -0.7071 0.7071 0.7071 -12.8406 31)" style="fill:#D25627;" cx="31" cy="31" rx="18" ry="18.5"/>
<ellipse transform="matrix(0.7071 -0.7071 0.7071 0.7071 -12.8406 31)" style="fill:#546A79;" cx="31" cy="31" rx="7.5" ry="18.5"/>
<circle style="fill:#38454F;" cx="15.797" cy="15.797" r="3"/>
<circle style="fill:#38454F;" cx="46.203" cy="46.203" r="3"/>
<path style="fill:#38454F;" d="M13.676,14.676c-0.256,0-0.512-0.098-0.707-0.293L0.293,1.707c-0.391-0.391-0.391-1.023,0-1.414
	s1.023-0.391,1.414,0l12.676,12.676c0.391,0.391,0.391,1.023,0,1.414C14.187,14.578,13.932,14.676,13.676,14.676z"/>
<path style="fill:#38454F;" d="M59,60c-0.256,0-0.512-0.098-0.707-0.293L47.617,49.031c-0.391-0.391-0.391-1.023,0-1.414
	s1.023-0.391,1.414,0l10.676,10.676c0.391,0.391,0.391,1.023,0,1.414C59.512,59.902,59.256,60,59,60z"/>
<g>
</g>
<g>
</g>
<g>
</g>
<g>
</g>
<g>
</g>
<g>
</g>
<g>
</g>
<g>
</g>
<g>
</g>
<g>
</g>
<g>
</g>
<g>
</g>
<g>
</g>
<g>
</g>
<g>
</g>
</svg>
