<?xml version="1.0" encoding="iso-8859-1"?>
<!-- Generator: Adobe Illustrator 19.0.0, SVG Export Plug-In . SVG Version: 6.00 Build 0)  -->
<svg version="1.1" id="Capa_1" xmlns="http://www.w3.org/2000/svg" xmlns:xlink="http://www.w3.org/1999/xlink" x="0px" y="0px"
	 viewBox="0 0 56 56" style="enable-background:new 0 0 56 56;" xml:space="preserve">
<path style="fill:#464F5D;" d="M3.5,0v56h22V34.5c0-1.375,1.125-2.5,2.5-2.5s2.5,1.125,2.5,2.5V56h22V0H3.5z"/>
<path style="fill:#38454F;" d="M14.5,33c-4.4,0-8,3.6-8,8v12c0,1.06,0.213,2.072,0.592,3h14.816c0.379-0.928,0.592-1.94,0.592-3V41
	C22.5,36.6,18.9,33,14.5,33z"/>
<path style="fill:#38454F;" d="M41.5,33c-4.4,0-8,3.6-8,8v12c0,1.06,0.213,2.072,0.592,3h14.816c0.379-0.928,0.592-1.94,0.592-3V41
	C49.5,36.6,45.9,33,41.5,33z"/>
<rect x="6.5" y="48" style="fill:#465A66;" width="16" height="4"/>
<rect x="33.5" y="48" style="fill:#465A66;" width="16" height="4"/>
<rect x="3.5" style="fill:#38454F;" width="49" height="8"/>
<rect x="22.5" style="fill:#5F8193;" width="11" height="8"/>
<circle style="fill:#5F8193;" cx="9.5" cy="4" r="2"/>
<circle style="fill:#5F8193;" cx="16.5" cy="4" r="2"/>
<circle style="fill:#5F8193;" cx="39.5" cy="4" r="2"/>
<circle style="fill:#5F8193;" cx="46.5" cy="4" r="2"/>
<path style="fill:#38454F;" d="M30.5,29h-5c-0.552,0-1-0.447-1-1s0.448-1,1-1h5c0.552,0,1,0.447,1,1S31.052,29,30.5,29z"/>
<path style="fill:#38454F;" d="M30.5,25h-5c-0.552,0-1-0.447-1-1s0.448-1,1-1h5c0.552,0,1,0.447,1,1S31.052,25,30.5,25z"/>
<path style="fill:#38454F;" d="M30.5,21h-5c-0.552,0-1-0.447-1-1s0.448-1,1-1h5c0.552,0,1,0.447,1,1S31.052,21,30.5,21z"/>
<path style="fill:#38454F;" d="M30.5,17h-5c-0.552,0-1-0.447-1-1s0.448-1,1-1h5c0.552,0,1,0.447,1,1S31.052,17,30.5,17z"/>
<path style="fill:#38454F;" d="M30.5,13h-5c-0.552,0-1-0.447-1-1s0.448-1,1-1h5c0.552,0,1,0.447,1,1S31.052,13,30.5,13z"/>
<path style="fill:#38454F;" d="M52.5,18c-5.514,0-10-4.486-10-10c0-0.553-0.448-1-1-1s-1,0.447-1,1c0,6.617,5.383,12,12,12V18z"/>
<path style="fill:#38454F;" d="M14.5,7c-0.552,0-1,0.447-1,1c0,5.514-4.486,10-10,10v2c6.617,0,12-5.383,12-12
	C15.5,7.447,15.052,7,14.5,7z"/>
<path style="fill:#465A66;" d="M22.5,44v-3c0-0.339-0.028-0.672-0.07-1H6.57c-0.042,0.328-0.07,0.661-0.07,1v3H22.5z"/>
<path style="fill:#465A66;" d="M49.5,44v-3c0-0.339-0.028-0.672-0.07-1H33.57c-0.042,0.328-0.07,0.661-0.07,1v3H49.5z"/>
<g>
</g>
<g>
</g>
<g>
</g>
<g>
</g>
<g>
</g>
<g>
</g>
<g>
</g>
<g>
</g>
<g>
</g>
<g>
</g>
<g>
</g>
<g>
</g>
<g>
</g>
<g>
</g>
<g>
</g>
</svg>
