<?xml version="1.0" encoding="iso-8859-1"?>
<!-- Generator: Adobe Illustrator 19.0.0, SVG Export Plug-In . SVG Version: 6.00 Build 0)  -->
<svg version="1.1" id="Capa_1" xmlns="http://www.w3.org/2000/svg" xmlns:xlink="http://www.w3.org/1999/xlink" x="0px" y="0px"
	 viewBox="0 0 54.118 54.118" style="enable-background:new 0 0 54.118 54.118;" xml:space="preserve">
<path style="fill:#CBB292;" d="M51.493,49.238l-2.255,2.255c-3.5,3.5-9.228,3.5-12.728,0L2.625,17.608c-3.5-3.5-3.5-9.228,0-12.728
	L4.88,2.625c3.5-3.5,9.228-3.5,12.728,0L51.493,36.51C54.993,40.01,54.993,45.738,51.493,49.238z"/>
<circle style="fill:#ECF0F1;" cx="9.579" cy="12.909" r="1.177"/>
<circle style="fill:#ECF0F1;" cx="12.909" cy="9.579" r="1.177"/>
<circle style="fill:#ECF0F1;" cx="12.909" cy="16.238" r="1.177"/>
<circle style="fill:#ECF0F1;" cx="16.238" cy="12.909" r="1.177"/>
<circle style="fill:#ECF0F1;" cx="38.712" cy="42.042" r="1.177"/>
<circle style="fill:#ECF0F1;" cx="42.042" cy="38.712" r="1.177"/>
<circle style="fill:#ECF0F1;" cx="42.042" cy="45.371" r="1.177"/>
<circle style="fill:#ECF0F1;" cx="45.371" cy="42.042" r="1.177"/>
<path style="fill:#38454F;" d="M12.076,27.059l-1.353,1.353c-0.632,0.632-1.656,0.632-2.288,0l-6.036-6.036
	c-0.632-0.632-0.632-1.656,0-2.288l1.353-1.353L12.076,27.059z"/>
<path style="fill:#38454F;" d="M27.059,12.076l1.353-1.353c0.632-0.632,0.632-1.656,0-2.288l-6.036-6.036
	c-0.632-0.632-1.656-0.632-2.288,0l-1.353,1.353L27.059,12.076z"/>
<path style="fill:#38454F;" d="M35.383,50.366l-1.353,1.353c-0.632,0.632-1.656,0.632-2.288,0l-6.036-6.036
	c-0.632-0.632-0.632-1.656,0-2.288l1.353-1.353L35.383,50.366z"/>
<path style="fill:#38454F;" d="M50.366,35.383l1.353-1.353c0.632-0.632,0.632-1.656,0-2.288l-6.036-6.036
	c-0.632-0.632-1.656-0.632-2.288,0l-1.353,1.353L50.366,35.383z"/>
<g>
</g>
<g>
</g>
<g>
</g>
<g>
</g>
<g>
</g>
<g>
</g>
<g>
</g>
<g>
</g>
<g>
</g>
<g>
</g>
<g>
</g>
<g>
</g>
<g>
</g>
<g>
</g>
<g>
</g>
</svg>
