<?xml version="1.0" encoding="iso-8859-1"?>
<!-- Generator: Adobe Illustrator 19.0.0, SVG Export Plug-In . SVG Version: 6.00 Build 0)  -->
<svg version="1.1" id="Capa_1" xmlns="http://www.w3.org/2000/svg" xmlns:xlink="http://www.w3.org/1999/xlink" x="0px" y="0px"
	 viewBox="0 0 57 57" style="enable-background:new 0 0 57 57;" xml:space="preserve">
<path style="fill:#F3D55B;" d="M30.5,5h-4c-0.552,0-1,0.447-1,1s0.448,1,1,1h1v4h2V7h1c0.552,0,1-0.447,1-1S31.052,5,30.5,5z"/>
<path style="fill:#D1D4D1;" d="M28.5,12c-3.309,0-6-2.691-6-6s2.691-6,6-6s6,2.691,6,6S31.809,12,28.5,12z M28.5,2
	c-2.206,0-4,1.794-4,4s1.794,4,4,4s4-1.794,4-4S30.706,2,28.5,2z"/>
<circle style="fill:#ECF0F1;" cx="28.5" cy="34" r="23"/>
<path style="fill:#38454F;" d="M29.54,53.96c-0.53,0-0.96-0.41-0.99-0.94c-0.02-0.27,0.07-0.529,0.25-0.729s0.42-0.311,0.69-0.33
	c0.63-0.03,1.26-0.101,1.87-0.2c0.55-0.08,1.06,0.29,1.15,0.83c0.01,0.05,0.01,0.1,0.01,0.15c0,0.489-0.36,0.92-0.84,1
	c-0.7,0.109-1.4,0.18-2.08,0.22C29.58,53.96,29.56,53.96,29.54,53.96z M25.58,53.77c-0.05,0-0.1-0.01-0.15-0.02
	c-0.7-0.101-1.39-0.25-2.05-0.42c-0.26-0.07-0.48-0.23-0.61-0.46c-0.13-0.23-0.17-0.5-0.1-0.761c0.13-0.529,0.69-0.859,1.22-0.71
	c0.61,0.15,1.23,0.28,1.84,0.381c0.49,0.069,0.85,0.489,0.85,0.989c0,0.05,0,0.101-0.01,0.15C26.49,53.41,26.08,53.77,25.58,53.77z
	 M35.35,52.72c-0.41,0-0.78-0.26-0.93-0.64c-0.09-0.25-0.09-0.521,0.02-0.771c0.11-0.24,0.31-0.43,0.55-0.529
	c0.59-0.221,1.17-0.48,1.72-0.761c0.49-0.25,1.1-0.05,1.35,0.431c0.07,0.14,0.11,0.3,0.11,0.46c0,0.31-0.15,0.609-0.4,0.79h0.05
	l-0.23,0.119c-0.61,0.311-1.24,0.591-1.88,0.83C35.6,52.7,35.48,52.72,35.35,52.72z M19.92,51.95c-0.15,0-0.31-0.03-0.45-0.101
	c-0.63-0.319-1.24-0.67-1.82-1.04c-0.22-0.149-0.37-0.37-0.43-0.63c-0.06-0.27-0.01-0.53,0.14-0.76c0.29-0.44,0.93-0.58,1.38-0.3
	c0.52,0.34,1.07,0.66,1.63,0.939c0.34,0.17,0.55,0.51,0.55,0.891c0,0.159-0.03,0.31-0.1,0.46C20.64,51.74,20.3,51.95,19.92,51.95z
	 M40.49,49.74c-0.3,0-0.58-0.141-0.77-0.37c-0.17-0.21-0.25-0.471-0.22-0.73c0.02-0.27,0.15-0.51,0.36-0.68
	c0.46-0.37,0.92-0.78,1.36-1.23l0.02-0.02c0.01,0,0.01-0.01,0.02-0.01c0.37-0.381,1.03-0.381,1.41-0.011
	c0.19,0.19,0.3,0.44,0.3,0.71c0,0.271-0.11,0.521-0.3,0.71v0.011c-0.01,0-0.02,0.01-0.02,0.02c-0.48,0.47-0.99,0.93-1.52,1.37
	C40.95,49.66,40.73,49.74,40.49,49.74z M15.11,48.479c-0.27,0-0.52-0.109-0.71-0.29c-0.01-0.01-0.02-0.029-0.03-0.04h-0.01
	c0-0.01,0-0.01-0.01-0.02c-0.48-0.47-0.95-0.99-1.39-1.54c-0.17-0.21-0.25-0.47-0.22-0.74c0.03-0.26,0.16-0.5,0.36-0.67
	c0.42-0.33,1.07-0.26,1.41,0.15c0.39,0.479,0.82,0.95,1.26,1.399c0.02,0.011,0.03,0.021,0.04,0.04l0.02,0.011
	c0.18,0.189,0.28,0.43,0.28,0.689c0,0.271-0.11,0.521-0.29,0.71C15.63,48.37,15.38,48.479,15.11,48.479z M44.46,45.31
	c-0.2,0-0.38-0.05-0.54-0.16c-0.47-0.3-0.6-0.92-0.3-1.38c0.34-0.52,0.65-1.069,0.94-1.63c0.24-0.479,0.86-0.689,1.34-0.439
	c0.34,0.17,0.55,0.51,0.55,0.89c0,0.15-0.04,0.31-0.11,0.45c-0.31,0.62-0.66,1.229-1.04,1.819C45.11,45.14,44.8,45.31,44.46,45.31z
	 M11.57,43.63c-0.38,0-0.72-0.21-0.89-0.55c-0.32-0.62-0.6-1.261-0.85-1.91c-0.09-0.25-0.09-0.521,0.02-0.76
	c0.11-0.25,0.31-0.431,0.56-0.53c0.5-0.2,1.1,0.08,1.29,0.58c0.23,0.6,0.49,1.17,0.76,1.72c0.08,0.14,0.11,0.29,0.11,0.45
	c0,0.38-0.21,0.72-0.55,0.89C11.88,43.59,11.73,43.63,11.57,43.63z M46.86,39.88c-0.09,0-0.17-0.01-0.26-0.03
	c-0.53-0.149-0.85-0.689-0.71-1.229c0.16-0.59,0.29-1.21,0.39-1.84c0.08-0.54,0.59-0.921,1.14-0.841c0.48,0.08,0.85,0.5,0.84,0.99
	c0,0.05,0,0.11-0.01,0.16c-0.1,0.67-0.25,1.36-0.42,2.04C47.71,39.569,47.31,39.88,46.86,39.88z M9.74,37.979
	c-0.49,0-0.91-0.37-0.99-0.85c-0.11-0.69-0.18-1.39-0.21-2.08c-0.02-0.26,0.07-0.52,0.25-0.72c0.18-0.2,0.43-0.311,0.69-0.33
	c0.55-0.03,1.02,0.399,1.05,0.95c0.03,0.619,0.1,1.25,0.2,1.869c0.01,0.051,0.01,0.101,0.01,0.15c0,0.49-0.36,0.92-0.84,0.99
	C9.84,37.97,9.79,37.979,9.74,37.979z M47.46,33.97c-0.53,0-0.97-0.42-1-0.95c-0.03-0.62-0.1-1.25-0.19-1.87
	c-0.01-0.05-0.02-0.1-0.02-0.149c0-0.49,0.36-0.92,0.85-1c0.54-0.08,1.06,0.29,1.14,0.84c0.11,0.67,0.18,1.37,0.22,2.08
	c0.03,0.54-0.39,1.02-0.94,1.05C47.5,33.97,47.48,33.97,47.46,33.97z M9.74,32.04c-0.05,0-0.1-0.01-0.16-0.021
	c-0.48-0.069-0.84-0.5-0.84-0.989c0-0.051,0-0.101,0.01-0.15c0.11-0.69,0.25-1.38,0.43-2.05c0.14-0.521,0.7-0.851,1.22-0.71
	c0.26,0.069,0.48,0.239,0.61,0.47c0.14,0.229,0.17,0.5,0.11,0.76c-0.16,0.58-0.29,1.2-0.39,1.84C10.65,31.68,10.23,32.04,9.74,32.04
	z M46.23,28.16L46.23,28.16c-0.42,0-0.79-0.261-0.94-0.641c-0.2-0.54-0.44-1.08-0.7-1.6l-0.07-0.12c-0.07-0.14-0.11-0.3-0.11-0.46
	c0-0.37,0.21-0.72,0.55-0.89c0.48-0.24,1.1-0.04,1.34,0.439c0.33,0.63,0.62,1.271,0.86,1.91c0.19,0.51-0.06,1.09-0.58,1.29
	C46.47,28.14,46.35,28.16,46.23,28.16z M11.56,26.38c-0.15,0-0.31-0.04-0.45-0.11c-0.34-0.17-0.55-0.51-0.55-0.89
	c0-0.16,0.04-0.311,0.11-0.45c0.32-0.62,0.67-1.229,1.05-1.81c0.29-0.45,0.93-0.59,1.38-0.301c0.22,0.15,0.38,0.37,0.43,0.631
	c0.06,0.26,0.01,0.529-0.13,0.75c-0.35,0.529-0.67,1.08-0.94,1.63l-0.02,0.029C12.26,26.18,11.93,26.38,11.56,26.38z M43.25,23.02
	c-0.31,0-0.59-0.14-0.78-0.37c-0.39-0.479-0.8-0.939-1.23-1.359l-0.12-0.12h0.01c-0.14-0.18-0.21-0.4-0.22-0.63
	c0-0.26,0.11-0.51,0.3-0.7c0.37-0.38,1.03-0.38,1.41-0.01c0.01,0.01,0.01,0.02,0.02,0.02l0.02,0.03c0.47,0.47,0.93,0.979,1.36,1.51
	c0.17,0.2,0.25,0.46,0.22,0.73c-0.03,0.26-0.15,0.5-0.36,0.67C43.7,22.939,43.48,23.02,43.25,23.02z M15.05,21.569
	c-0.26,0-0.51-0.1-0.7-0.289c-0.19-0.19-0.3-0.44-0.3-0.711c0-0.26,0.11-0.51,0.29-0.689l0.05-0.05c0.46-0.471,0.97-0.931,1.51-1.36
	c0.41-0.34,1.07-0.27,1.41,0.14c0.34,0.431,0.28,1.061-0.15,1.41c-0.48,0.391-0.95,0.811-1.39,1.25l-0.01,0.011
	C15.57,21.47,15.32,21.569,15.05,21.569z M38.83,19.05c-0.2,0-0.38-0.06-0.55-0.16c-0.5-0.33-1.03-0.63-1.56-0.91l-0.07-0.029
	c-0.34-0.17-0.55-0.511-0.55-0.891c0-0.16,0.04-0.31,0.11-0.45c0.24-0.479,0.86-0.689,1.35-0.449c0.62,0.319,1.23,0.67,1.81,1.05
	c0.22,0.14,0.38,0.37,0.44,0.63c0.05,0.26,0,0.53-0.14,0.75C39.48,18.88,39.17,19.05,38.83,19.05z M19.86,18.08
	c-0.38,0-0.72-0.21-0.9-0.55c-0.07-0.141-0.1-0.301-0.1-0.45c0-0.38,0.21-0.721,0.54-0.891c0.61-0.319,1.26-0.6,1.92-0.85
	c0.49-0.19,1.09,0.07,1.29,0.57c0.09,0.25,0.08,0.52-0.02,0.77c-0.11,0.24-0.31,0.43-0.56,0.521c-0.58,0.229-1.15,0.479-1.69,0.75
	l-0.03,0.02C20.17,18.04,20.02,18.08,19.86,18.08z M33.4,16.64c-0.09,0-0.18-0.01-0.26-0.03c-0.61-0.159-1.23-0.29-1.84-0.39
	c-0.49-0.07-0.85-0.49-0.85-0.99c0-0.05,0-0.1,0.01-0.149c0.08-0.521,0.55-0.9,1.09-0.84l0.05,0.01c0.03,0,0.05,0,0.07,0.01
	c0.68,0.11,1.34,0.25,1.98,0.42c0.26,0.07,0.47,0.23,0.61,0.46c0.13,0.23,0.17,0.5,0.1,0.76C34.24,16.34,33.85,16.64,33.4,16.64z
	 M25.51,16.24c-0.5,0-0.91-0.351-0.99-0.841c-0.01-0.05-0.01-0.1-0.01-0.149c-0.01-0.49,0.36-0.92,0.84-1
	c0.68-0.101,1.38-0.181,2.08-0.21c0.56-0.05,1.02,0.39,1.05,0.939c0.03,0.551-0.39,1.021-0.94,1.051
	c-0.64,0.039-1.27,0.1-1.87,0.199C25.61,16.24,25.56,16.24,25.51,16.24z"/>
<path style="fill:#48A0DC;" d="M26.204,36.348L26.204,36.348c-1.102-1.102-0.932-2.935,0.355-3.815l12.922-9.775
	c0.207-0.141,0.456,0.108,0.315,0.315L30.02,35.994C29.139,37.28,27.307,37.451,26.204,36.348z"/>
<g>
</g>
<g>
</g>
<g>
</g>
<g>
</g>
<g>
</g>
<g>
</g>
<g>
</g>
<g>
</g>
<g>
</g>
<g>
</g>
<g>
</g>
<g>
</g>
<g>
</g>
<g>
</g>
<g>
</g>
</svg>
