<?xml version="1.0" encoding="iso-8859-1"?>
<!-- Generator: Adobe Illustrator 19.0.0, SVG Export Plug-In . SVG Version: 6.00 Build 0)  -->
<svg version="1.1" id="Capa_1" xmlns="http://www.w3.org/2000/svg" xmlns:xlink="http://www.w3.org/1999/xlink" x="0px" y="0px"
	 viewBox="0 0 60 60" style="enable-background:new 0 0 60 60;" xml:space="preserve">
<circle style="fill:#88C057;" cx="30" cy="30" r="30"/>
<path style="fill:#38454F;" d="M45,22.965c-0.256,0-0.512-0.098-0.707-0.293l-5-5c-0.391-0.391-0.391-1.023,0-1.414
	s1.023-0.391,1.414,0l5,5c0.391,0.391,0.391,1.023,0,1.414C45.512,22.867,45.256,22.965,45,22.965z"/>
<path style="fill:#38454F;" d="M40,22.965c-0.256,0-0.512-0.098-0.707-0.293c-0.391-0.391-0.391-1.023,0-1.414l5-5
	c0.391-0.391,1.023-0.391,1.414,0s0.391,1.023,0,1.414l-5,5C40.512,22.867,40.256,22.965,40,22.965z"/>
<path style="fill:#A4E869;" d="M37.914,9.465l1.793-1.793c0.391-0.391,0.391-1.023,0-1.414s-1.023-0.391-1.414,0L36.5,8.051
	l-1.793-1.793c-0.391-0.391-1.023-0.391-1.414,0s-0.391,1.023,0,1.414l1.793,1.793l-1.793,1.793c-0.391,0.391-0.391,1.023,0,1.414
	c0.195,0.195,0.451,0.293,0.707,0.293s0.512-0.098,0.707-0.293l1.793-1.793l1.793,1.793c0.195,0.195,0.451,0.293,0.707,0.293
	s0.512-0.098,0.707-0.293c0.391-0.391,0.391-1.023,0-1.414L37.914,9.465z"/>
<path style="fill:#38454F;" d="M27,12.965c-0.256,0-0.512-0.098-0.707-0.293l-5-5c-0.391-0.391-0.391-1.023,0-1.414
	s1.023-0.391,1.414,0l5,5c0.391,0.391,0.391,1.023,0,1.414C27.512,12.867,27.256,12.965,27,12.965z"/>
<path style="fill:#38454F;" d="M22,12.965c-0.256,0-0.512-0.098-0.707-0.293c-0.391-0.391-0.391-1.023,0-1.414l5-5
	c0.391-0.391,1.023-0.391,1.414,0s0.391,1.023,0,1.414l-5,5C22.512,12.867,22.256,12.965,22,12.965z"/>
<path style="fill:#38454F;" d="M33,22.965c-0.256,0-0.512-0.098-0.707-0.293l-5-5c-0.391-0.391-0.391-1.023,0-1.414
	s1.023-0.391,1.414,0l5,5c0.391,0.391,0.391,1.023,0,1.414C33.512,22.867,33.256,22.965,33,22.965z"/>
<path style="fill:#38454F;" d="M28,22.965c-0.256,0-0.512-0.098-0.707-0.293c-0.391-0.391-0.391-1.023,0-1.414l5-5
	c0.391-0.391,1.023-0.391,1.414,0s0.391,1.023,0,1.414l-5,5C28.512,22.867,28.256,22.965,28,22.965z"/>
<path style="fill:#38454F;" d="M21,22.965c-0.256,0-0.512-0.098-0.707-0.293l-5-5c-0.391-0.391-0.391-1.023,0-1.414
	s1.023-0.391,1.414,0l5,5c0.391,0.391,0.391,1.023,0,1.414C21.512,22.867,21.256,22.965,21,22.965z"/>
<path style="fill:#38454F;" d="M16,22.965c-0.256,0-0.512-0.098-0.707-0.293c-0.391-0.391-0.391-1.023,0-1.414l5-5
	c0.391-0.391,1.023-0.391,1.414,0s0.391,1.023,0,1.414l-5,5C16.512,22.867,16.256,22.965,16,22.965z"/>
<g>
	<path style="fill:#FFFFFF;" d="M49,25.965c-2.757,0-5,2.243-5,5s2.243,5,5,5s5-2.243,5-5S51.757,25.965,49,25.965z M49,33.965
		c-1.654,0-3-1.346-3-3s1.346-3,3-3s3,1.346,3,3S50.654,33.965,49,33.965z"/>
	<path style="fill:#FFFFFF;" d="M37,25.965c-2.757,0-5,2.243-5,5s2.243,5,5,5s5-2.243,5-5S39.757,25.965,37,25.965z M37,33.965
		c-1.654,0-3-1.346-3-3s1.346-3,3-3s3,1.346,3,3S38.654,33.965,37,33.965z"/>
	<path style="fill:#A4E869;" d="M30,30.965c0-2.757-2.243-5-5-5s-5,2.243-5,5s2.243,5,5,5S30,33.722,30,30.965z M25,33.965
		c-1.654,0-3-1.346-3-3s1.346-3,3-3s3,1.346,3,3S26.654,33.965,25,33.965z"/>
	<path style="fill:#FFFFFF;" d="M18,30.965c0-2.757-2.243-5-5-5s-5,2.243-5,5s2.243,5,5,5S18,33.722,18,30.965z M10,30.965
		c0-1.654,1.346-3,3-3s3,1.346,3,3s-1.346,3-3,3S10,32.619,10,30.965z"/>
	<path style="fill:#E64C3C;" d="M31,36.965c-2.757,0-5,2.243-5,5s2.243,5,5,5s5-2.243,5-5S33.757,36.965,31,36.965z M31,44.965
		c-1.654,0-3-1.346-3-3s1.346-3,3-3s3,1.346,3,3S32.654,44.965,31,44.965z"/>
	<path style="fill:#FFFFFF;" d="M18,36.965c-2.757,0-5,2.243-5,5s2.243,5,5,5s5-2.243,5-5S20.757,36.965,18,36.965z M18,44.965
		c-1.654,0-3-1.346-3-3s1.346-3,3-3s3,1.346,3,3S19.654,44.965,18,44.965z"/>
</g>
<path style="fill:#38454F;" d="M52.982,42.965c-3.529,0-6.45,2.621-6.938,6.017L14,48.965c-4.486,0-8-3.193-8-7.271V6.379
	l2.293,2.293c0.391,0.391,1.023,0.391,1.414,0C9.902,8.477,10,8.221,10,7.965S9.902,7.453,9.707,7.258l-4-4
	c0-0.001-0.001-0.002-0.002-0.002C5.527,3.079,5.299,2.982,5.067,2.967H5.066C5.002,2.964,4.941,2.965,4.877,2.973h0
	c0,0-0.001,0-0.001,0C4.685,2.996,4.5,3.075,4.346,3.209c0,0-0.001,0-0.001,0.001c-0.02,0.017-0.038,0.034-0.056,0.053L0.293,7.258
	c-0.391,0.391-0.391,1.023,0,1.414s1.023,0.391,1.414,0L4,6.379v35.315c0,5.198,4.393,9.271,10,9.271l32.045,0.017
	C46.532,54.378,49.453,57,52.982,57C56.852,57,60,53.852,60,49.982S56.852,42.965,52.982,42.965z M52.982,55
	c-2.767,0-5.018-2.251-5.018-5.018s2.251-5.018,5.018-5.018S58,47.216,58,49.982S55.749,55,52.982,55z"/>
<g>
</g>
<g>
</g>
<g>
</g>
<g>
</g>
<g>
</g>
<g>
</g>
<g>
</g>
<g>
</g>
<g>
</g>
<g>
</g>
<g>
</g>
<g>
</g>
<g>
</g>
<g>
</g>
<g>
</g>
</svg>
