<?xml version="1.0" encoding="iso-8859-1"?>
<!-- Generator: Adobe Illustrator 19.0.0, SVG Export Plug-In . SVG Version: 6.00 Build 0)  -->
<svg version="1.1" id="Capa_1" xmlns="http://www.w3.org/2000/svg" xmlns:xlink="http://www.w3.org/1999/xlink" x="0px" y="0px"
	 viewBox="0 0 57.304 57.304" style="enable-background:new 0 0 57.304 57.304;" xml:space="preserve">
<path style="fill:#BDC3C7;" d="M6.153,57.064L0.24,51.152c-0.32-0.32-0.32-0.839,0-1.158L49.993,0.24c0.32-0.32,0.839-0.32,1.158,0
	l5.913,5.913c0.32,0.32,0.32,0.839,0,1.158L7.311,57.064C6.991,57.384,6.472,57.384,6.153,57.064z"/>
<path style="fill:#ECF0F1;" d="M11,57.304c-0.256,0-0.512-0.098-0.707-0.293l-10-10c-0.391-0.391-0.391-1.023,0-1.414
	s1.023-0.391,1.414,0l10,10c0.391,0.391,0.391,1.023,0,1.414C11.512,57.206,11.256,57.304,11,57.304z"/>
<path style="fill:#ECF0F1;" d="M14,54.304c-0.256,0-0.512-0.098-0.707-0.293l-10-10c-0.391-0.391-0.391-1.023,0-1.414
	s1.023-0.391,1.414,0l10,10c0.391,0.391,0.391,1.023,0,1.414C14.512,54.206,14.256,54.304,14,54.304z"/>
<path style="fill:#ECF0F1;" d="M53,15.304c-0.256,0-0.512-0.098-0.707-0.293l-10-10c-0.391-0.391-0.391-1.023,0-1.414
	s1.023-0.391,1.414,0l10,10c0.391,0.391,0.391,1.023,0,1.414C53.512,15.206,53.256,15.304,53,15.304z"/>
<path style="fill:#ECF0F1;" d="M56,12.304c-0.256,0-0.512-0.098-0.707-0.293l-10-10c-0.391-0.391-0.391-1.023,0-1.414
	s1.023-0.391,1.414,0l10,10c0.391,0.391,0.391,1.023,0,1.414C56.512,12.206,56.256,12.304,56,12.304z"/>
<circle style="fill:#ECF0F1;" cx="21" cy="32.304" r="1"/>
<circle style="fill:#ECF0F1;" cx="25" cy="32.304" r="1"/>
<circle style="fill:#ECF0F1;" cx="25" cy="28.304" r="1"/>
<circle style="fill:#ECF0F1;" cx="25" cy="36.304" r="1"/>
<circle style="fill:#ECF0F1;" cx="29" cy="32.304" r="1"/>
<circle style="fill:#ECF0F1;" cx="29" cy="28.304" r="1"/>
<circle style="fill:#ECF0F1;" cx="29" cy="24.304" r="1"/>
<circle style="fill:#ECF0F1;" cx="33" cy="28.304" r="1"/>
<circle style="fill:#ECF0F1;" cx="33" cy="24.304" r="1"/>
<circle style="fill:#ECF0F1;" cx="33" cy="20.304" r="1"/>
<circle style="fill:#ECF0F1;" cx="37" cy="24.304" r="1"/>
<g>
</g>
<g>
</g>
<g>
</g>
<g>
</g>
<g>
</g>
<g>
</g>
<g>
</g>
<g>
</g>
<g>
</g>
<g>
</g>
<g>
</g>
<g>
</g>
<g>
</g>
<g>
</g>
<g>
</g>
</svg>
