<?xml version="1.0" encoding="iso-8859-1"?>
<!-- Generator: Adobe Illustrator 19.0.0, SVG Export Plug-In . SVG Version: 6.00 Build 0)  -->
<svg version="1.1" id="Capa_1" xmlns="http://www.w3.org/2000/svg" xmlns:xlink="http://www.w3.org/1999/xlink" x="0px" y="0px"
	 viewBox="0 0 56.061 56.061" style="enable-background:new 0 0 56.061 56.061;" xml:space="preserve">
<path style="fill:#ECF0F1;" d="M38,9.53h-2v3.156c0,1.018-0.826,1.844-1.844,1.844h-3.907c-0.754,0-1.432-0.459-1.712-1.159L27,9.53
	H0l3,15h6.429c4.293,0,8.107,2.956,8.952,7.165c1.838,9.15,10.411,15.861,20.337,14.706c8.862-1.031,15.567-8.058,16.228-16.956
	C55.717,19.102,47.972,10.333,38,9.53z"/>
<circle style="fill:#38454F;" cx="36" cy="28.53" r="6"/>
<path style="fill:#BDC3C7;" d="M48.268,13.737l0.671-0.671c1.133-1.134,3.109-1.134,4.242,0c0.566,0.567,0.879,1.32,0.879,2.122
	c0,0.801-0.313,1.554-0.879,2.121l-0.969,0.969c0.354,0.572,0.681,1.161,0.972,1.772c0.088-0.046,0.177-0.092,0.251-0.166
	l1.16-1.161c0.944-0.944,1.465-2.2,1.465-3.535c0-1.336-0.521-2.591-1.465-3.536c-0.943-0.944-2.199-1.465-3.535-1.465
	s-2.592,0.521-3.535,1.465l-0.79,0.79c-0.029,0.029-0.041,0.067-0.065,0.098C47.226,12.909,47.756,13.312,48.268,13.737z"/>
<g>
</g>
<g>
</g>
<g>
</g>
<g>
</g>
<g>
</g>
<g>
</g>
<g>
</g>
<g>
</g>
<g>
</g>
<g>
</g>
<g>
</g>
<g>
</g>
<g>
</g>
<g>
</g>
<g>
</g>
</svg>
