<?xml version="1.0" encoding="iso-8859-1"?>
<!-- Generator: Adobe Illustrator 19.0.0, SVG Export Plug-In . SVG Version: 6.00 Build 0)  -->
<svg version="1.1" id="Layer_1" xmlns="http://www.w3.org/2000/svg" xmlns:xlink="http://www.w3.org/1999/xlink" x="0px" y="0px"
	 viewBox="0 0 511.981 511.981" style="enable-background:new 0 0 511.981 511.981;" xml:space="preserve">
<path style="fill:#EC87C0;" d="M396.581,120.674l-6.672-21.327l-18.656-5.336l-21.343,6.664V75.347l-7.327-27.999
	c0,0-20-9.336-24-10.672c-4-1.328-21.327,5.992-21.327,5.992s-9.343-18.655-11.999-20.655c-2.672-2-15.343-11.336-18.671-11.344
	c-3.328-0.016-21.328,5.344-21.328,5.344l-7.344,29.999c0,0-19.327-12.664-21.327-14c-2-1.336-29.327,14-29.327,14l-7.343,39.319
	l7.343,114.675c0,0-10.671,28-12.671,27.335c-2-0.672-39.327-24-39.327-24l-23.342,7.328v22.67l71.997,179.33l3.344,85.324H401.91
	L396.581,120.674z"/>
<path style="fill:#D770AD;" d="M412.283,119.713c0-20.929-17.015-37.952-37.937-37.952c-4.312,0-8.562,0.734-12.624,2.188
	l-3.766,1.336l-0.172,0.062v-0.188v-3.984V65.199c0-20.929-17.03-37.959-37.952-37.959c-4.797,0-9.499,0.898-13.983,2.672
	l-2.922,1.156l-0.141,0.055l-0.031-0.148l-0.828-3.031C297.458,11.491,282.397,0,265.304,0c-17.062,0-32.109,11.491-36.577,27.944
	l-0.812,3.031l-0.047,0.141l-0.141-0.055l-2.906-1.148c-4.531-1.773-9.234-2.672-14.015-2.672
	c-20.921,0-37.937,17.031-37.937,37.959v141.588v8.219v0.391l-0.234-0.312l-5.031-6.492c-10.468-13.531-28.827-18.374-44.624-11.789
	c-14.187,5.914-23.343,19.664-23.343,35.03c0,5.015,1,9.929,2.953,14.609l75.091,181.321v84.216h234.663V405.327L412.283,119.713z
	 M391.003,458.653H199.01v-31.999h191.993V458.653z M122.106,237.755l-0.016-0.031v-0.023v-0.023
	c-0.703-1.891-1.078-3.852-1.078-5.843c0-6.734,4-12.733,10.188-15.296c5.468-2.32,10.281-1.031,12.687-0.055
	c2.375,0.969,6.687,3.414,8.968,8.914l41.374,94.074V65.199c0-9.132,7.437-16.562,16.578-16.562c9.14,0,16.577,7.43,16.577,16.562
	v148.127h21.358V37.919c0-9.132,7.438-16.562,16.562-16.562c9.156,0,16.593,7.429,16.593,16.562v175.408h21.374V65.199
	c0-9.132,7.422-16.562,16.562-16.562c9.125,0,16.562,7.43,16.562,16.562v148.127h21.39v-93.614c0-9.148,7.421-16.601,16.562-16.601
	s16.562,7.453,16.562,16.601c0,2.375-0.047,270.396-0.047,285.614H191.416l-69.091-167.057L122.106,237.755z M369.675,490.652
	c0-5.891-4.781-10.672-10.671-10.672c-5.891,0-10.656,4.781-10.656,10.672h-21.343c0-5.891-4.766-10.672-10.656-10.672
	s-10.671,4.781-10.671,10.672h-21.327c0-5.891-4.78-10.672-10.671-10.672s-10.672,4.781-10.672,10.672H241.68
	c0-5.891-4.781-10.672-10.672-10.672c-5.874,0-10.655,4.781-10.655,10.672H199.01V479.98h31.999h42.671h42.669h42.655h31.999v10.672
	H369.675z"/>
<g>
</g>
<g>
</g>
<g>
</g>
<g>
</g>
<g>
</g>
<g>
</g>
<g>
</g>
<g>
</g>
<g>
</g>
<g>
</g>
<g>
</g>
<g>
</g>
<g>
</g>
<g>
</g>
<g>
</g>
</svg>
