<?xml version="1.0" encoding="iso-8859-1"?>
<!-- Generator: Adobe Illustrator 19.0.0, SVG Export Plug-In . SVG Version: 6.00 Build 0)  -->
<svg version="1.1" id="Layer_1" xmlns="http://www.w3.org/2000/svg" xmlns:xlink="http://www.w3.org/1999/xlink" x="0px" y="0px"
	 viewBox="0 0 511.982 511.982" style="enable-background:new 0 0 511.982 511.982;" xml:space="preserve">
<path style="fill:#DA4453;" d="M373.279,467.809c-1.016-20.327-31.045-177.352-82.574-319.229
	c-6.203-17.062-20.694-28.53-36.054-28.53c-8.39,0-15.968,3.664-20.765,10.054c-4.359,5.796-8.483,16.382-3.406,33.937
	c23.062,79.778,37.28,156.822,45.163,207.414c8.874,57.122,12.171,95.84,12.405,100.59c1.109,22.39,19.78,39.937,42.529,39.937l0,0
	c0.719,0,1.438-0.016,2.156-0.062c11.344-0.562,21.812-5.438,29.467-13.719C369.888,489.856,373.826,479.075,373.279,467.809z"/>
<path style="fill:#ED5564;" d="M278.096,130.104c-4.797-6.39-12.383-10.054-20.773-10.054c-15.358,0-29.843,11.468-36.045,28.53
	c-51.529,141.878-81.56,298.902-82.575,319.229c-0.547,11.266,3.391,22.047,11.093,30.39c7.641,8.281,18.109,13.156,29.437,13.719
	c0.734,0.047,1.453,0.062,2.172,0.062c22.749,0,41.421-17.547,42.53-39.937c0.234-4.75,3.53-43.468,12.405-100.59
	c14.265-91.652,32.421-163.376,45.162-207.414C286.58,146.486,282.455,135.9,278.096,130.104z"/>
<g>
	<path style="fill:#CCD1D9;" d="M219.184,6.46c-17.547,8.781-27.218,25.421-27.218,46.874v77.122l63.997,10V0h-10.671
		C243.949,0,231.746,0.179,219.184,6.46z"/>
	<path style="fill:#CCD1D9;" d="M303.407,6.46C290.845,0.18,278.643,0,277.3,0h-10.68v140.455l64.005-10V53.334
		C330.625,31.881,320.953,15.241,303.407,6.46z"/>
</g>
<path style="fill:#E6E9ED;" d="M298.626,95.996h-74.66c-17.656,0-31.999,14.351-31.999,31.999v0.945l0.156,0.938
	c0.109,0.562,2.531,14.039,6.515,27.75c5.156,17.85,11.812,34.365,25.328,34.365h74.66c13.516,0,20.171-16.515,25.343-34.365
	c3.969-13.711,6.391-27.187,6.5-27.75l0.156-0.938v-0.945C330.625,110.347,316.281,95.996,298.626,95.996z"/>
<path style="fill:#CCD1D9;" d="M329.312,118.909c-2.328-7.835-7.578-14.414-14.469-18.491
	c-9.405,18.968-36.622,66.927-81.551,91.574h37.53c18.132-15.046,32.162-32.264,42.006-46.373
	C319.75,135.674,325.234,126.416,329.312,118.909z"/>
<g>
</g>
<g>
</g>
<g>
</g>
<g>
</g>
<g>
</g>
<g>
</g>
<g>
</g>
<g>
</g>
<g>
</g>
<g>
</g>
<g>
</g>
<g>
</g>
<g>
</g>
<g>
</g>
<g>
</g>
</svg>
