<?xml version="1.0" encoding="iso-8859-1"?>
<!-- Generator: Adobe Illustrator 19.0.0, SVG Export Plug-In . SVG Version: 6.00 Build 0)  -->
<svg version="1.1" id="Layer_1" xmlns="http://www.w3.org/2000/svg" xmlns:xlink="http://www.w3.org/1999/xlink" x="0px" y="0px"
	 viewBox="0 0 511.981 511.981" style="enable-background:new 0 0 511.981 511.981;" xml:space="preserve">
<g>
	<path style="fill:#434A54;" d="M220.885,106.105c-5.078,0-9.578-3.641-10.492-8.82l-11.109-63.021
		c-1.023-5.805,2.852-11.335,8.648-12.359c5.805-1.023,11.335,2.852,12.359,8.656l11.108,63.021
		c1.023,5.805-2.851,11.335-8.647,12.359C222.127,106.05,221.502,106.105,220.885,106.105z"/>
	<path style="fill:#434A54;" d="M291.101,106.105c-0.609,0-1.234-0.055-1.859-0.164c-5.812-1.023-9.687-6.554-8.656-12.359
		l11.109-63.021c1.016-5.804,6.546-9.679,12.358-8.656c5.797,1.023,9.671,6.554,8.656,12.359l-11.125,63.021
		C300.679,102.464,296.179,106.105,291.101,106.105z"/>
	<path style="fill:#434A54;" d="M255.992,85.324c-5.891,0-10.664-4.773-10.664-10.664V10.663C245.328,4.772,250.101,0,255.992,0
		c5.891,0,10.665,4.772,10.665,10.663V74.66C266.657,80.551,261.884,85.324,255.992,85.324z"/>
</g>
<path style="fill:#4A89DC;" d="M293.164,320.971l-40.75-231.092c-1.023-5.797-6.555-9.672-12.359-8.648l-42.014,7.406
	c-2.789,0.492-5.265,2.07-6.89,4.382c-1.625,2.32-2.258,5.188-1.766,7.977l40.749,231.084c0.914,5.188,5.413,8.812,10.491,8.812
	c0.617,0,1.234-0.047,1.867-0.156l42.015-7.406c2.797-0.5,5.266-2.062,6.891-4.391C293.023,326.627,293.648,323.767,293.164,320.971
	z"/>
<path style="fill:#DA4453;" d="M320.834,93.019c-1.625-2.312-4.094-3.89-6.891-4.382l-42.013-7.406
	c-5.805-1.023-11.336,2.852-12.359,8.648l-40.749,231.092c-0.484,2.796,0.148,5.655,1.773,7.968
	c1.617,2.328,4.094,3.891,6.882,4.391l42.015,7.406c0.633,0.109,1.25,0.156,1.867,0.156c5.07,0,9.569-3.625,10.491-8.812
	l40.748-231.084C323.084,98.207,322.459,95.34,320.834,93.019z"/>
<path style="opacity:0.1;enable-background:new    ;" d="M298.647,236.771V85.942l-26.717-4.711
	c-5.805-1.023-11.336,2.852-12.359,8.648L234.657,231.17v78.146c0,5.89,4.781,10.671,10.671,10.671h38.664L298.647,236.771z"/>
<path style="opacity:0.1;enable-background:new    ;" d="M252.414,89.879c-1.023-5.797-6.555-9.672-12.359-8.648l-26.725,4.711
	v150.83l14.671,83.216h38.656c5.898,0,10.68-4.781,10.68-10.671V231.17L252.414,89.879z"/>
<path style="fill:#A0D468;" d="M277.337,63.997h-42.68c-5.89,0-10.663,4.773-10.663,10.664v234.656
	c0,5.89,4.773,10.671,10.663,10.671h42.68c5.874,0,10.655-4.781,10.655-10.671V74.66C287.992,68.77,283.211,63.997,277.337,63.997z"
	/>
<path style="fill:#434A54;" d="M309.335,213.32c-4.031,0-7.547,2.234-9.375,5.539c-2.5,1.312-12.53,5.125-43.967,5.125
	c-31.436,0-41.459-3.812-43.975-5.125c-1.82-3.305-5.328-5.539-9.359-5.539c-5.89,0-10.664,4.773-10.664,10.664v266.654
	c0,0.5,0.039,1.016,0.109,1.515c0.469,3.297,2.906,9.484,13.929,13.766c10.335,4.031,27.147,6.062,49.959,6.062
	c22.813,0,39.625-2.031,49.967-6.062c11.015-4.281,13.452-10.469,13.921-13.766c0.078-0.499,0.109-1.015,0.109-1.515V223.984
	C319.99,218.093,315.209,213.32,309.335,213.32z"/>
<g style="opacity:0.1;">
	<path style="fill:#FFFFFF;" d="M309.335,213.32c-4.031,0-7.547,2.234-9.375,5.539c-0.438,0.234-1.156,0.555-2.172,0.914
		c0.562,1.297,0.859,2.719,0.859,4.211v266.654c0,0.5-0.031,1.016-0.094,1.515c-0.469,3.297-2.905,9.484-13.937,13.766
		c-8.655,3.375-21.843,5.344-39.289,5.906c3.391,0.094,6.945,0.156,10.664,0.156c22.813,0,39.625-2.031,49.967-6.062
		c11.015-4.281,13.452-10.469,13.921-13.766c0.078-0.499,0.109-1.015,0.109-1.515V223.984
		C319.99,218.093,315.209,213.32,309.335,213.32z"/>
</g>
<g>
</g>
<g>
</g>
<g>
</g>
<g>
</g>
<g>
</g>
<g>
</g>
<g>
</g>
<g>
</g>
<g>
</g>
<g>
</g>
<g>
</g>
<g>
</g>
<g>
</g>
<g>
</g>
<g>
</g>
</svg>
