<?xml version="1.0" encoding="iso-8859-1"?>
<!-- Generator: Adobe Illustrator 19.0.0, SVG Export Plug-In . SVG Version: 6.00 Build 0)  -->
<svg version="1.1" id="Layer_1" xmlns="http://www.w3.org/2000/svg" xmlns:xlink="http://www.w3.org/1999/xlink" x="0px" y="0px"
	 viewBox="0 0 511.98 511.98" style="enable-background:new 0 0 511.98 511.98;" xml:space="preserve">
<path style="fill:#E6E9ED;" d="M501.324,479.981c0,11.781-9.562,21.343-21.343,21.343H31.999c-11.781,0-21.335-9.562-21.335-21.343
	V31.998c0-11.781,9.554-21.335,21.335-21.335h447.982c11.781,0,21.343,9.555,21.343,21.335L501.324,479.981L501.324,479.981z"/>
<g>
	<circle style="fill:#434A54;" cx="53.33" cy="53.33" r="10.667"/>
	<path style="fill:#434A54;" d="M466.201,45.787c4.156,4.164,4.156,10.922,0,15.085c-4.172,4.164-10.938,4.164-15.094,0
		c-4.156-4.163-4.156-10.921,0-15.085S462.029,41.623,466.201,45.787z"/>
	<path style="fill:#434A54;" d="M60.872,451.107c4.164,4.156,4.164,10.921,0,15.093c-4.164,4.156-10.921,4.156-15.085,0
		c-4.164-4.172-4.164-10.937,0-15.093C49.951,446.951,56.709,446.951,60.872,451.107z"/>
	<path style="fill:#434A54;" d="M466.201,451.107c4.156,4.156,4.156,10.921,0,15.093c-4.172,4.156-10.938,4.156-15.094,0
		c-4.156-4.172-4.156-10.937,0-15.093S462.029,446.951,466.201,451.107z"/>
</g>
<path style="fill:#CCD1D9;" d="M479.981,511.98H31.999C14.351,511.98,0,497.636,0,479.981V31.998C0,14.35,14.351,0,31.999,0h447.982
	c17.655,0,31.999,14.351,31.999,31.999v447.983C511.98,497.636,497.636,511.98,479.981,511.98z M31.999,21.335
	c-5.883,0-10.664,4.781-10.664,10.664v447.983c0,5.875,4.781,10.656,10.664,10.656h447.982c5.875,0,10.656-4.781,10.656-10.656
	V31.998c0-5.882-4.781-10.664-10.656-10.664L31.999,21.335L31.999,21.335z"/>
<path style="fill:#AAB2BC;" d="M426.64,255.99c0,94.246-76.404,170.649-170.65,170.649c-94.254,0-170.658-76.403-170.658-170.649
	c0-94.254,76.404-170.658,170.658-170.658C350.236,85.332,426.64,161.736,426.64,255.99z"/>
<path style="fill:#CCD1D9;" d="M255.99,437.326c-48.436,0-93.973-18.873-128.214-53.122
	c-34.248-34.249-53.115-79.778-53.115-128.214s18.867-93.965,53.115-128.214C162.017,93.527,207.554,74.66,255.99,74.66
	s93.965,18.867,128.214,53.115c34.249,34.249,53.122,79.778,53.122,128.214s-18.873,93.965-53.122,128.214
	S304.426,437.326,255.99,437.326z M255.99,95.996c-42.732,0-82.911,16.64-113.128,46.857
	c-30.226,30.226-46.866,70.404-46.866,113.137c0,42.732,16.64,82.902,46.865,113.136c30.217,30.218,70.396,46.858,113.128,46.858
	c42.748,0,82.903-16.641,113.136-46.858c30.219-30.233,46.858-70.403,46.858-113.136s-16.64-82.911-46.858-113.137
	C338.893,112.636,298.722,95.996,255.99,95.996z"/>
<path style="fill:#656D78;" d="M394.641,255.99c0,76.59-62.061,138.65-138.651,138.65c-76.583,0-138.659-62.061-138.659-138.65
	c0-76.583,62.076-138.659,138.659-138.659C332.581,117.331,394.641,179.407,394.641,255.99z"/>
<g>
	<path style="fill:#434A54;" d="M191.992,223.991c-17.648,0-31.999,14.35-31.999,31.999c0,17.655,14.351,31.999,31.999,31.999
		s31.999-14.344,31.999-31.999C223.991,238.342,209.64,223.991,191.992,223.991z"/>
	<path style="fill:#434A54;" d="M319.987,223.991c-17.655,0-31.998,14.35-31.998,31.999c0,17.655,14.343,31.999,31.998,31.999
		c17.656,0,31.999-14.344,31.999-31.999C351.986,238.342,337.643,223.991,319.987,223.991z"/>
</g>
<g>
	<path style="fill:#CCD1D9;" d="M255.99,117.331c-3.586,0-7.148,0.133-10.664,0.398v31.601c0,5.891,4.773,10.664,10.664,10.664
		c5.891,0,10.664-4.773,10.664-10.664v-31.601C263.138,117.464,259.576,117.331,255.99,117.331z"/>
	<path style="fill:#CCD1D9;" d="M255.99,351.986c-5.891,0-10.664,4.781-10.664,10.655v31.608c3.515,0.266,7.078,0.391,10.664,0.391
		c3.586,0,7.148-0.125,10.664-0.391v-31.608C266.654,356.767,261.881,351.986,255.99,351.986z"/>
</g>
<path style="fill:#AAB2BC;" d="M263.529,248.451c4.172,4.164,4.172,10.913,0,15.085c-4.164,4.164-10.914,4.164-15.078,0
	c-4.171-4.172-4.171-10.921,0-15.085C252.615,244.279,259.365,244.279,263.529,248.451z"/>
<g>
</g>
<g>
</g>
<g>
</g>
<g>
</g>
<g>
</g>
<g>
</g>
<g>
</g>
<g>
</g>
<g>
</g>
<g>
</g>
<g>
</g>
<g>
</g>
<g>
</g>
<g>
</g>
<g>
</g>
</svg>
