<?xml version="1.0" encoding="iso-8859-1"?>
<!-- Generator: Adobe Illustrator 19.0.0, SVG Export Plug-In . SVG Version: 6.00 Build 0)  -->
<svg version="1.1" id="Layer_1" xmlns="http://www.w3.org/2000/svg" xmlns:xlink="http://www.w3.org/1999/xlink" x="0px" y="0px"
	 viewBox="0 0 511.98 511.98" style="enable-background:new 0 0 511.98 511.98;" xml:space="preserve">
<path style="fill:#7F4545;" d="M454.049,310.675c-22.75-19.123-27.186-63.372-31.842-110.277
	c-4.625-46.341-9.438-94.277-31.249-132.776C365.27,22.311,321.116,0.187,255.955,0c-65.107,0.188-109.246,22.312-134.948,67.622
	c-21.812,38.499-26.608,86.435-31.217,132.776c-4.688,46.874-9.093,91.154-31.842,110.277l-9.25,7.781l8.859,8.218
	c1.188,1.094,12.405,10.969,42.607,20.469c39.249,12.344,91.684,18.624,155.822,18.624l0,0c64.13,0,116.565-6.28,155.814-18.624
	c30.186-9.5,41.436-19.375,42.623-20.469l8.875-8.218L454.049,310.675z"/>
<path style="fill:#434A54;" d="M438.861,386.36l-1.812-0.531c-26.466-7.094-35.403-13.938-47.216-18.406
	c-41.78-15.937-52.654-27.405-55.436-32.843c-0.094-0.188-0.188-0.375-0.281-0.594l-0.344-48.528l-77.786-1.156l-77.794,1.156
	l-0.344,48.528c-0.094,0.219-0.156,0.406-0.266,0.594c-2.781,5.438-13.671,16.906-55.451,32.843
	c-11.78,4.469-20.733,11.312-47.217,18.406l-1.812,0.531c-24.092,7.968-40.295,30.312-40.295,55.528v70.092h223.179h223.187v-70.092
	C479.173,416.672,462.955,394.328,438.861,386.36z"/>
<rect x="244.52" y="362.67" style="fill:#656D78;" width="21.343" height="77.08"/>
<g>
	<path style="fill:#CCD1D9;" d="M177.848,333.986c-0.094,0.219-0.156,0.406-0.266,0.594c-0.969,1.906-2.953,4.562-6.922,7.891
		v98.387h21.343v-112.73H177.88L177.848,333.986z"/>
	<path style="fill:#CCD1D9;" d="M341.335,342.47c-3.969-3.328-5.969-5.984-6.938-7.891c-0.094-0.188-0.188-0.375-0.281-0.594
		l-0.031-5.859h-14.094v111.621h21.344V342.47z"/>
</g>
<g>
	<polygon style="fill:#E6E9ED;" points="223.738,393.312 255.189,362.673 177.583,312.237 177.583,334.58 	"/>
	<polygon style="fill:#E6E9ED;" points="255.189,362.673 286.618,393.312 334.397,334.58 334.085,316.237 	"/>
	<path style="fill:#E6E9ED;" d="M255.986,511.98h96.004v-16.016c0-5.874,1.781-15.124,3.969-20.577l2.75-6.859
		c2.156-5.453,2.156-14.374,0-19.812l-2.75-6.875c-2.188-5.453-8.75-10.172-14.624-10.484l-75.364-4.124
		c-2.906-0.172-6.719-0.25-10.547-0.25c-3.906,0-7.797,0.094-10.75,0.25l-74.06,4.108c-5.859,0.328-12.437,5.047-14.608,10.5
		l-2.75,6.875c-2.172,5.438-2.203,14.374-0.062,19.827l2.875,7.375c2.141,5.469,3.891,14.734,3.891,20.593v15.469L255.986,511.98
		L255.986,511.98z"/>
</g>
<path style="fill:#EAC6BB;" d="M393.552,191.055c0,89.372-85.216,171.618-137.565,171.618c-52.342,0-137.542-82.246-137.542-171.618
	c0-89.403,61.592-148.338,137.542-148.338C331.96,42.717,393.552,101.652,393.552,191.055z"/>
<path style="fill:#965353;" d="M281.993,80.653c0.188,0.156,17.155,15.25,43.654,30.437c21.655,12.437,53.904,27.249,89.435,31.124
	c-4.499-26.624-11.437-52.216-24.124-74.591C365.27,22.311,321.116,0.187,255.955,0C190.848,0.187,281.993,80.653,281.993,80.653z"
	/>
<path style="fill:#A85D5D;" d="M188.895,181.524c31.546-15.968,63.107-38.217,93.848-66.028
	c37.779-34.218,64.653-68.091,77.091-84.841C334.21,10.218,299.867,0.125,255.955,0c-65.107,0.188-109.246,22.312-134.948,67.622
	c-21.812,38.499-26.608,86.435-31.217,132.776c-0.375,3.625-0.734,7.219-1.094,10.781
	C121.694,208.46,155.334,198.523,188.895,181.524z"/>
<g>
</g>
<g>
</g>
<g>
</g>
<g>
</g>
<g>
</g>
<g>
</g>
<g>
</g>
<g>
</g>
<g>
</g>
<g>
</g>
<g>
</g>
<g>
</g>
<g>
</g>
<g>
</g>
<g>
</g>
</svg>
