<?xml version="1.0" encoding="iso-8859-1"?>
<!-- Generator: Adobe Illustrator 19.0.0, SVG Export Plug-In . SVG Version: 6.00 Build 0)  -->
<svg version="1.1" id="Layer_1" xmlns="http://www.w3.org/2000/svg" xmlns:xlink="http://www.w3.org/1999/xlink" x="0px" y="0px"
	 viewBox="0 0 511.989 511.989" style="enable-background:new 0 0 511.989 511.989;" xml:space="preserve">
<path style="fill:#434A54;" d="M504.172,45.514c5.031-5.047,7.812-11.734,7.812-18.858c0-7.109-2.781-13.812-7.812-18.844l0,0
	C499.141,2.781,492.454,0,485.329,0s-13.812,2.781-18.843,7.812L130.179,344.127l37.693,37.687L504.172,45.514z M470.721,51.935
	c-5.891,0-10.656-4.781-10.656-10.672s4.766-10.656,10.656-10.656s10.671,4.765,10.671,10.656S476.611,51.935,470.721,51.935z"/>
<path style="fill:#5D9CEC;" d="M248.916,459.091c2.516-2.515,3.898-5.858,3.898-9.421s-1.383-6.906-3.898-9.422L71.751,263.083
	c-5.195-5.203-13.647-5.203-18.851,0L3.902,312.081c-5.195,5.203-5.195,13.655,0,18.843l177.164,177.182
	c5.195,5.188,13.648,5.172,18.844-0.016L248.916,459.091z"/>
<path style="fill:#E6E9ED;" d="M182.949,404.437l-75.387-75.389c-4.164-4.172-4.164-10.921,0-15.077
	c4.164-4.172,10.913-4.172,15.077,0l75.388,75.389c4.164,4.155,4.164,10.905,0,15.077
	C193.863,408.594,187.113,408.594,182.949,404.437z"/>
<path style="fill:#656D78;" d="M504.172,45.514c5.031-5.047,7.812-11.734,7.812-18.858c0-7.109-2.781-13.812-7.812-18.844l0,0
	C499.141,2.781,492.454,0,485.329,0s-13.812,2.781-18.843,7.812l-59.841,59.841l37.685,37.686L504.172,45.514z M470.721,51.935
	c-5.891,0-10.656-4.781-10.656-10.672s4.766-10.656,10.656-10.656s10.671,4.765,10.671,10.656S476.611,51.935,470.721,51.935z"/>
<path style="fill:#4A89DC;" d="M205.566,487.356h-0.008l-30.14-30.14l-0.008-0.016c-0.008,0-0.008,0-0.008,0l-30.14-30.14
	l-0.008-0.016c-0.008,0-0.008,0-0.008,0l-30.139-30.14c-0.008,0-0.008-0.016-0.008-0.016h-0.008l-97.994-97.994L3.902,312.081
	c-5.195,5.203-5.195,13.655,0,18.843l5.655,5.656l7.539-7.531l15.078,15.078l-7.539,7.531l15.077,15.077l7.539-7.53l15.077,15.077
	l-7.538,7.531l15.077,15.077l7.539-7.53l15.077,15.077l-7.539,7.531l15.078,15.077l7.539-7.53l15.077,15.076l-7.538,7.531
	l15.077,15.078l7.538-7.531l15.078,15.077l-7.539,7.531l15.078,15.078l7.538-7.531l15.077,15.077l-7.538,7.531l5.655,5.672
	c5.195,5.188,13.648,5.172,18.844-0.016l13.195-13.188l-7.531-7.53L205.566,487.356z"/>
<g>
</g>
<g>
</g>
<g>
</g>
<g>
</g>
<g>
</g>
<g>
</g>
<g>
</g>
<g>
</g>
<g>
</g>
<g>
</g>
<g>
</g>
<g>
</g>
<g>
</g>
<g>
</g>
<g>
</g>
</svg>
