<?xml version="1.0" encoding="iso-8859-1"?>
<!-- Generator: Adobe Illustrator 19.0.0, SVG Export Plug-In . SVG Version: 6.00 Build 0)  -->
<svg version="1.1" id="Layer_1" xmlns="http://www.w3.org/2000/svg" xmlns:xlink="http://www.w3.org/1999/xlink" x="0px" y="0px"
	 viewBox="0 0 511.981 511.981" style="enable-background:new 0 0 511.981 511.981;" xml:space="preserve">
<path style="fill:#4A89DC;" d="M287.99,479.981H10.664C4.773,479.981,0,475.2,0,469.325c0-5.906,4.773-10.687,10.664-10.687H287.99
	c5.891,0,10.655,4.78,10.655,10.687C298.645,475.2,293.881,479.981,287.99,479.981z"/>
<path style="fill:#5D9CEC;" d="M446.374,97.605C404.08,55.294,347.831,31.999,287.99,31.999
	c-59.834,0-116.082,23.296-158.385,65.606c-42.311,42.303-65.607,98.551-65.607,158.385c0,59.841,23.296,116.089,65.607,158.385
	c42.303,42.311,98.551,65.606,158.385,65.606c59.841,0,116.09-23.296,158.384-65.606c42.311-42.296,65.607-98.544,65.607-158.385
	C511.981,196.156,488.685,139.908,446.374,97.605z M287.99,309.332c-29.452,0-53.334-23.89-53.334-53.342
	s23.882-53.334,53.334-53.334c29.451,0,53.342,23.882,53.342,53.334S317.441,309.332,287.99,309.332z"/>
<g style="opacity:0.2;">
	<path style="fill:#FFFFFF;" d="M446.374,97.605C404.08,55.294,347.831,31.999,287.99,31.999c-3.562,0-7.125,0.086-10.655,0.25
		c55.81,2.602,107.933,25.569,147.713,65.356c42.311,42.303,65.591,98.551,65.591,158.385c0,59.841-23.28,116.089-65.591,158.385
		c-39.78,39.795-91.903,62.763-147.713,65.356c3.53,0.156,7.093,0.25,10.655,0.25c59.841,0,116.09-23.296,158.384-65.606
		c42.311-42.296,65.607-98.544,65.607-158.385C511.981,196.156,488.685,139.908,446.374,97.605z"/>
</g>
<path style="fill:#CCD1D9;" d="M287.99,159.994c-53.014,0-95.997,42.982-95.997,95.996c0,53.029,42.982,95.996,95.997,95.996
	c53.014,0,95.996-42.967,95.996-95.996C383.986,202.976,341.004,159.994,287.99,159.994z M287.99,309.332
	c-29.452,0-53.334-23.89-53.334-53.342s23.882-53.334,53.334-53.334c29.451,0,53.342,23.882,53.342,53.334
	S317.441,309.332,287.99,309.332z"/>
<g>
	<path style="fill:#E6E9ED;" d="M287.99,319.987c-35.288,0-63.998-28.717-63.998-63.997c0-35.287,28.709-63.998,63.998-63.998
		c35.279,0,63.997,28.711,63.997,63.998C351.987,291.27,323.269,319.987,287.99,319.987z M287.99,213.328
		c-23.522,0-42.663,19.14-42.663,42.662c0,23.53,19.14,42.654,42.663,42.654c23.53,0,42.654-19.124,42.654-42.654
		C330.644,232.468,311.52,213.328,287.99,213.328z"/>
	<path style="fill:#E6E9ED;" d="M287.99,149.33c-5.891,0-10.655,4.773-10.655,10.664v10.663c0,5.891,4.765,10.672,10.655,10.672
		s10.655-4.781,10.655-10.672v-10.663C298.645,154.103,293.881,149.33,287.99,149.33z"/>
	<path style="fill:#E6E9ED;" d="M287.99,330.642c-5.891,0-10.655,4.781-10.655,10.688v10.656c0,5.891,4.765,10.655,10.655,10.655
		s10.655-4.765,10.655-10.655V341.33C298.645,335.424,293.881,330.642,287.99,330.642z"/>
	<path style="fill:#E6E9ED;" d="M236.085,187.423c1.977,3.422,5.562,5.335,9.25,5.335c1.812,0,3.64-0.461,5.32-1.429
		c5.102-2.945,6.852-9.469,3.906-14.57l-5.336-9.234c-2.945-5.101-9.468-6.851-14.57-3.905c-5.101,2.945-6.843,9.468-3.898,14.569
		L236.085,187.423z"/>
	<path style="fill:#E6E9ED;" d="M339.894,324.549c-2.938-5.093-9.469-6.843-14.562-3.905c-5.109,2.952-6.859,9.468-3.906,14.577
		l5.328,9.234c1.984,3.422,5.547,5.344,9.234,5.344c1.812,0,3.656-0.469,5.344-1.438c5.093-2.938,6.843-9.469,3.891-14.562
		L339.894,324.549z"/>
	<path style="fill:#E6E9ED;" d="M199.524,217.226l9.234,5.336c1.68,0.969,3.516,1.43,5.32,1.43c3.688,0,7.273-1.914,9.25-5.336
		c2.945-5.102,1.195-11.625-3.906-14.57l-9.234-5.328c-5.102-2.945-11.625-1.203-14.57,3.898
		C192.673,207.758,194.423,214.281,199.524,217.226z"/>
	<path style="fill:#E6E9ED;" d="M376.455,294.755l-9.234-5.328c-5.109-2.953-11.624-1.203-14.577,3.906
		c-2.938,5.094-1.188,11.624,3.906,14.562l9.249,5.327c1.672,0.984,3.5,1.438,5.312,1.438c3.688,0,7.281-1.922,9.25-5.327
		C383.299,304.222,381.549,297.708,376.455,294.755z"/>
	<path style="fill:#E6E9ED;" d="M213.329,255.99c0-5.891-4.781-10.664-10.672-10.664h-10.664c-5.891,0-10.664,4.773-10.664,10.664
		c0,5.89,4.773,10.663,10.664,10.663h10.664C208.548,266.653,213.329,261.88,213.329,255.99z"/>
	<path style="fill:#E6E9ED;" d="M383.986,245.326H373.33c-5.906,0-10.688,4.773-10.688,10.664c0,5.89,4.781,10.663,10.688,10.663
		h10.656c5.891,0,10.656-4.773,10.656-10.663C394.642,250.099,389.877,245.326,383.986,245.326z"/>
	<path style="fill:#E6E9ED;" d="M208.759,289.427l-9.234,5.328c-5.101,2.953-6.851,9.468-3.906,14.577
		c1.976,3.405,5.562,5.327,9.25,5.327c1.805,0,3.641-0.453,5.32-1.438l9.234-5.327c5.109-2.938,6.851-9.468,3.906-14.562
		C220.383,288.223,213.86,286.473,208.759,289.427z"/>
	<path style="fill:#E6E9ED;" d="M361.892,223.992c1.812,0,3.656-0.461,5.328-1.43l9.234-5.336c5.094-2.945,6.844-9.469,3.906-14.57
		s-9.469-6.844-14.562-3.898l-9.249,5.328c-5.094,2.945-6.844,9.469-3.906,14.57C354.628,222.078,358.206,223.992,361.892,223.992z"
		/>
	<path style="fill:#E6E9ED;" d="M250.655,320.643c-5.093-2.938-11.625-1.188-14.57,3.905l-5.328,9.25
		c-2.945,5.094-1.195,11.625,3.898,14.562c1.688,0.969,3.516,1.438,5.328,1.438c3.688,0,7.273-1.922,9.25-5.344l5.328-9.234
		C257.507,330.111,255.764,323.595,250.655,320.643z"/>
	<path style="fill:#E6E9ED;" d="M341.332,163.619c-5.109-2.945-11.625-1.195-14.578,3.905l-5.328,9.234
		c-2.953,5.102-1.203,11.625,3.906,14.57c1.672,0.968,3.5,1.429,5.312,1.429c3.688,0,7.281-1.913,9.25-5.335l5.344-9.234
		C348.175,173.087,346.425,166.564,341.332,163.619z"/>
</g>
<g>
	<path style="fill:#4A89DC;" d="M287.99,106.66c2.719,0,5.469-1.039,7.531-3.125c4.187-4.164,4.187-10.913,0-15.077
		c-2.625-2.633-6.266-3.594-9.656-2.914c-44.741,0.547-86.724,18.21-118.417,49.903c-31.694,31.702-49.358,73.678-49.905,118.426
		c-0.68,3.383,0.289,7.03,2.914,9.655c4.164,4.172,10.914,4.172,15.085,0c2.078-2.078,3.117-4.812,3.117-7.538h0.195
		c0-39.834,15.507-77.286,43.678-105.457s65.623-43.678,105.458-43.678L287.99,106.66L287.99,106.66z"/>
	<path style="fill:#4A89DC;" d="M458.452,255.99L458.452,255.99c0-2.727-1.031-5.461-3.125-7.539
		c-4.156-4.172-10.906-4.172-15.078,0c-2.078,2.086-3.125,4.82-3.125,7.555c0,39.827-15.514,77.277-43.669,105.448
		c-28.188,28.156-65.623,43.671-105.465,43.671l0,0c-2.719,0-5.469,1.047-7.531,3.125c-4.187,4.172-4.187,10.922,0,15.077
		c2.062,2.094,4.812,3.125,7.531,3.125c45.529,0,88.34-17.718,120.543-49.92C440.733,344.33,458.452,301.519,458.452,255.99z"/>
</g>
<path style="fill:#E6E9ED;" d="M287.99,362.641c-58.818,0-106.661-47.842-106.661-106.651c0-58.818,47.842-106.66,106.661-106.66
	c58.81,0,106.652,47.842,106.652,106.66C394.642,314.8,346.8,362.641,287.99,362.641z M287.99,170.657
	c-47.053,0-85.333,38.28-85.333,85.333c0,47.061,38.28,85.34,85.333,85.34c47.061,0,85.34-38.279,85.34-85.34
	C373.33,208.937,335.051,170.657,287.99,170.657z"/>
<g>
</g>
<g>
</g>
<g>
</g>
<g>
</g>
<g>
</g>
<g>
</g>
<g>
</g>
<g>
</g>
<g>
</g>
<g>
</g>
<g>
</g>
<g>
</g>
<g>
</g>
<g>
</g>
<g>
</g>
</svg>
