<?xml version="1.0" encoding="iso-8859-1"?>
<!-- Generator: Adobe Illustrator 19.0.0, SVG Export Plug-In . SVG Version: 6.00 Build 0)  -->
<svg version="1.1" id="Layer_1" xmlns="http://www.w3.org/2000/svg" xmlns:xlink="http://www.w3.org/1999/xlink" x="0px" y="0px"
	 viewBox="0 0 511.991 511.991" style="enable-background:new 0 0 511.991 511.991;" xml:space="preserve">
<path style="fill:#CCD1D9;" d="M442.53,92.093l-22.623-22.625c-4.156-4.171-10.921-4.171-15.077,0L149.636,324.645
	c-2,2-3.125,4.719-3.125,7.547s1.125,5.547,3.125,7.547l22.624,22.624c2.094,2.078,4.812,3.125,7.547,3.125
	c2.734,0,5.453-1.047,7.546-3.125L442.53,107.17c2-2,3.125-4.703,3.125-7.546C445.655,96.796,444.53,94.093,442.53,92.093z"/>
<path style="fill:#48CFAD;" d="M198.665,358.583l-45.264-45.249c-4.156-4.155-10.906-4.155-15.078,0L12.5,439.157
	C4.453,447.219,0,457.923,0,469.328c0,11.391,4.453,22.109,12.5,30.171c8.062,8.047,18.781,12.484,30.171,12.484
	c11.406,0,22.108-4.438,30.17-12.484l125.824-125.823c2-2,3.125-4.719,3.125-7.547S200.665,360.582,198.665,358.583z
	 M50.218,476.859c-4.171,4.172-10.921,4.172-15.093,0c-4.156-4.156-4.156-10.906,0-15.078c4.172-4.171,10.922-4.171,15.093,0
	C54.374,465.953,54.374,472.703,50.218,476.859z"/>
<path style="fill:#E6E9ED;" d="M504.075,117.935l-54.232-14.5l54.248-14.577c5.688-1.531,9.062-7.375,7.531-13.078
	c-1.531-5.688-7.375-9.062-13.062-7.531l-54.326,14.609l39.78-39.795c4.172-4.172,4.172-10.921,0-15.078
	c-4.156-4.171-10.905-4.171-15.077,0l-39.672,39.67l14.484-54.232c1.516-5.688-1.859-11.53-7.547-13.046
	c-5.703-1.531-11.545,1.859-13.061,7.546l-14.515,54.295l-14.577-54.31c-1.531-5.687-7.375-9.062-13.062-7.53
	s-9.062,7.374-7.531,13.062l14.562,54.311l-39.765-39.765c-4.155-4.171-10.905-4.171-15.077,0c-4.172,4.156-4.172,10.921,0,15.078
	l60.342,60.341l-7.547,7.547l-60.342-60.341c-4.156-4.172-10.922-4.172-15.077,0c-4.172,4.156-4.172,10.921,0,15.077l60.341,60.341
	l-7.547,7.547l-60.341-60.342c-4.172-4.172-10.921-4.172-15.077,0c-4.172,4.172-4.172,10.922,0,15.078l60.325,60.341l-7.53,7.547
	l-60.342-60.342c-4.171-4.171-10.921-4.171-15.093,0c-4.156,4.172-4.156,10.921,0,15.093l60.341,60.326l-7.547,7.546l-60.325-60.341
	c-4.172-4.156-10.922-4.156-15.093,0c-4.156,4.172-4.156,10.921,0,15.093l67.888,67.872l0,0l0,0l67.872,67.888
	c2.094,2.078,4.812,3.125,7.547,3.125s5.453-1.047,7.547-3.125c4.156-4.172,4.156-10.922,0-15.093L333.176,193.9l7.547-7.531
	l60.326,60.326c2.094,2.094,4.812,3.125,7.547,3.125c2.733,0,5.468-1.031,7.546-3.125c4.156-4.156,4.156-10.906,0-15.078
	L355.8,171.276l7.546-7.531l60.343,60.326c2.078,2.093,4.811,3.125,7.529,3.125c2.734,0,5.469-1.031,7.547-3.125
	c4.172-4.156,4.172-10.922,0-15.078l-60.341-60.341l7.547-7.547l60.341,60.341c2.078,2.078,4.812,3.125,7.531,3.125
	c2.734,0,5.469-1.047,7.547-3.125c4.172-4.156,4.172-10.921,0-15.077l-60.341-60.342l7.547-7.546l60.341,60.341
	c2.078,2.078,4.812,3.125,7.547,3.125c2.718,0,5.452-1.047,7.53-3.125c4.172-4.172,4.172-10.921,0-15.077l-39.687-39.702
	l54.232,14.499c0.922,0.25,1.859,0.375,2.766,0.375c4.719,0,9.031-3.156,10.297-7.921
	C513.153,125.31,509.763,119.467,504.075,117.935z"/>
<g>
</g>
<g>
</g>
<g>
</g>
<g>
</g>
<g>
</g>
<g>
</g>
<g>
</g>
<g>
</g>
<g>
</g>
<g>
</g>
<g>
</g>
<g>
</g>
<g>
</g>
<g>
</g>
<g>
</g>
</svg>
