<?xml version="1.0" encoding="iso-8859-1"?>
<!-- Generator: Adobe Illustrator 19.0.0, SVG Export Plug-In . SVG Version: 6.00 Build 0)  -->
<svg version="1.1" id="Layer_1" xmlns="http://www.w3.org/2000/svg" xmlns:xlink="http://www.w3.org/1999/xlink" x="0px" y="0px"
	 viewBox="0 0 511.984 511.984" style="enable-background:new 0 0 511.984 511.984;" xml:space="preserve">
<polygon style="fill:#CCD1D9;" points="505.532,37.724 392.365,0 313.914,78.457 389.349,153.9 "/>
<polygon style="fill:#E6E9ED;" points="482.908,30.178 374.271,138.814 389.349,153.9 505.532,37.724 "/>
<path style="fill:#ED5564;" d="M161.499,425.421c7.351-22.03,14.288-42.873,35.139-63.717l210.524-210.507L398.1,69.715
	l-81.482-9.054L45.753,331.517c-33.272,33.28-39.726,65.998-39.28,87.592c0.531,25.904,11.312,51.231,29.585,69.497
	c0.008,0.016,0.008,0.016,0.008,0.016c12.305,12.296,27.085,20.358,41.616,22.671c16.539,2.625,31.999-2.281,43.514-13.781
	C145.609,473.091,153.686,448.857,161.499,425.421z"/>
<polygon style="fill:#CCD1D9;" points="51.729,437.67 25.84,411.797 394.584,43.053 420.473,68.942 "/>
<g>
	<polygon style="fill:#AAB2BC;" points="78.041,352.846 71.291,373.079 116.554,388.173 123.304,367.938 	"/>
	<polygon style="fill:#AAB2BC;" points="183.661,307.582 138.39,292.489 131.648,312.737 176.912,327.83 	"/>
	<polygon style="fill:#AAB2BC;" points="198.747,232.139 191.997,252.381 237.269,267.466 244.019,247.224 	"/>
	<polygon style="fill:#AAB2BC;" points="252.354,192.023 297.634,207.109 304.368,186.867 259.104,171.782 	"/>
	<polygon style="fill:#AAB2BC;" points="357.975,146.76 364.724,126.51 319.461,111.425 312.712,131.666 	"/>
</g>
<g>
	<polygon style="fill:#DA4453;" points="384.521,68.208 357.366,65.184 30.66,391.891 45.753,406.969 	"/>
	<polygon style="fill:#DA4453;" points="399.615,83.293 60.838,422.061 75.931,437.138 402.631,110.456 	"/>
</g>
<path style="fill:#434A54;" d="M6.473,419.109c0.531,25.904,11.312,51.231,29.585,69.497c0.008,0.016,0.008,0.016,0.008,0.016
	c12.305,12.296,27.085,20.358,41.616,22.671c16.539,2.625,31.999-2.281,43.514-13.781c5.406-5.406,10.016-10.812,13.992-16.187
	L19.777,365.907C8.809,386.391,6.184,405.094,6.473,419.109z"/>
<path style="opacity:0.2;fill:#FFFFFF;enable-background:new    ;" d="M161.499,425.421c7.351-22.03,14.288-42.873,35.139-63.717
	l210.524-210.507L398.1,69.715l-6.781-0.758l8.297,74.693L189.099,354.158c-20.851,20.858-27.795,41.67-35.147,63.732
	c-7.812,23.436-15.882,47.653-40.295,72.06c-11.523,11.53-26.976,16.421-43.522,13.78c-13.062-2.062-26.327-8.797-37.811-19.062
	c1.21,1.344,2.453,2.656,3.734,3.938c0.008,0.016,0.008,0.016,0.008,0.016c12.305,12.296,27.085,20.358,41.616,22.671
	c16.539,2.625,31.999-2.281,43.514-13.781C145.609,473.091,153.686,448.857,161.499,425.421z"/>
<g>
</g>
<g>
</g>
<g>
</g>
<g>
</g>
<g>
</g>
<g>
</g>
<g>
</g>
<g>
</g>
<g>
</g>
<g>
</g>
<g>
</g>
<g>
</g>
<g>
</g>
<g>
</g>
<g>
</g>
</svg>
