<?xml version="1.0" encoding="iso-8859-1"?>
<!-- Generator: Adobe Illustrator 19.0.0, SVG Export Plug-In . SVG Version: 6.00 Build 0)  -->
<svg version="1.1" id="Layer_1" xmlns="http://www.w3.org/2000/svg" xmlns:xlink="http://www.w3.org/1999/xlink" x="0px" y="0px"
	 viewBox="0 0 511.981 511.981" style="enable-background:new 0 0 511.981 511.981;" xml:space="preserve">
<path style="fill:#434A54;" d="M298.383,23.671C288.696,8.186,274.041,0,256.002,0c-18.046,0-32.702,8.187-42.389,23.671
	c-6.953,11.14-10.953,25.827-10.953,40.326c0,21.359,10.25,216.258,10.688,224.539l0.531,10.108h84.239l0.531-10.108
	c0.438-8.281,10.688-203.18,10.688-224.539C309.336,49.498,305.336,34.811,298.383,23.671z M263.533,60.872
	c-4.156,4.156-10.922,4.156-15.078,0c-4.171-4.171-4.171-10.921,0-15.093c4.156-4.156,10.922-4.156,15.078,0
	C267.705,49.951,267.705,56.701,263.533,60.872z"/>
<path style="fill:#5D9CEC;" d="M466.064,424.171c-3.594-25.593-9.594-49.436-17.812-70.841
	c-10.375-27.094-24.404-50.373-41.622-69.216c-36.5-39.905-87.17-60.123-150.628-60.123c-63.466,0-114.136,20.217-150.635,60.123
	c-17.234,18.843-31.241,42.122-41.639,69.216c-8.218,21.405-14.218,45.248-17.812,70.841c-6.109,43.436-3.258,76.685-3.133,78.091
	l0.875,9.719h424.687l0.844-9.719C469.314,500.855,472.189,467.606,466.064,424.171z"/>
<path style="fill:#4A89DC;" d="M256.002,277.317c-174.86,0-181.337,234.663-181.337,234.663h362.649
	C437.314,511.98,430.845,277.317,256.002,277.317z"/>
<path style="opacity:0.1;fill:#080808;enable-background:new    ;" d="M430.689,458.638H81.29
	c-1.492,7.718-2.656,14.905-3.555,21.343h39.6c0,5.891,4.781,10.656,10.672,10.656c5.89,0,10.656-4.766,10.656-10.656h21.343
	c0,5.891,4.765,10.656,10.655,10.656c5.891,0,10.671-4.766,10.671-10.656h21.328c0,5.891,4.781,10.656,10.672,10.656
	c5.89,0,10.671-4.766,10.671-10.656h21.327c0,5.891,4.765,10.656,10.656,10.656c5.891,0,10.672-4.766,10.672-10.656h21.351
	c0,5.891,4.766,10.656,10.655,10.656c5.891,0,10.672-4.766,10.672-10.656h21.327c0,5.891,4.781,10.656,10.656,10.656
	c5.905,0,10.687-4.766,10.687-10.656h21.312c0,5.891,4.781,10.656,10.656,10.656c5.906,0,10.688-4.766,10.688-10.656h39.591
	C433.345,473.544,432.189,466.356,430.689,458.638z"/>
<g>
</g>
<g>
</g>
<g>
</g>
<g>
</g>
<g>
</g>
<g>
</g>
<g>
</g>
<g>
</g>
<g>
</g>
<g>
</g>
<g>
</g>
<g>
</g>
<g>
</g>
<g>
</g>
<g>
</g>
</svg>
