<?xml version="1.0" encoding="iso-8859-1"?>
<!-- Generator: Adobe Illustrator 19.0.0, SVG Export Plug-In . SVG Version: 6.00 Build 0)  -->
<svg version="1.1" id="Layer_1" xmlns="http://www.w3.org/2000/svg" xmlns:xlink="http://www.w3.org/1999/xlink" x="0px" y="0px"
	 viewBox="0 0 511.98 511.98" style="enable-background:new 0 0 511.98 511.98;" xml:space="preserve">
<path style="fill:#967ADC;" d="M284.347,298.644h-42.679c-5.891,0-10.664,4.781-10.664,10.672v170.665
	c0,17.64,14.352,31.999,32,31.999c17.655,0,31.999-14.359,31.999-31.999V309.316C295.004,303.426,290.238,298.644,284.347,298.644z
	 M270.544,476.856c-4.164,4.156-10.914,4.156-15.078,0c-4.172-4.172-4.172-10.922,0-15.094c4.164-4.155,10.914-4.155,15.078,0
	C274.723,465.934,274.723,472.684,270.544,476.856z"/>
<path style="fill:#CCD1D9;" d="M381.469,33.155c0,0-73.169,21.156-118.706,105.667c-65.771,122.073-17.891,147.87-17.891,147.87
	s44.288,32.482,113.645-96.278c4.983-9.234,9.218-18.109,12.827-26.608C406.375,81.184,381.469,33.155,381.469,33.155z"/>
<path style="fill:#AAB2BC;" d="M390.937,28.233c0,0,0,0-0.016-0.016c-0.062-0.109-0.125-0.234-0.203-0.344
	c-0.094-0.172-0.188-0.344-0.281-0.5c-0.078-0.125-0.172-0.25-0.266-0.375c-0.094-0.141-0.203-0.281-0.312-0.422
	c-0.094-0.125-0.188-0.234-0.281-0.344c-0.125-0.141-0.234-0.281-0.359-0.406c-0.109-0.109-0.203-0.219-0.312-0.312
	c-0.141-0.141-0.281-0.266-0.422-0.391c-0.109-0.094-0.203-0.172-0.312-0.266c-0.172-0.141-0.344-0.266-0.516-0.391
	c-0.094-0.062-0.188-0.125-0.281-0.188c-0.25-0.172-0.516-0.328-0.781-0.484c-0.031-0.016-0.047-0.031-0.062-0.031
	s-0.016-0.016-0.016-0.016c-0.297-0.156-0.609-0.297-0.922-0.438c-0.094-0.031-0.188-0.062-0.281-0.109
	c-0.219-0.078-0.422-0.156-0.641-0.219c-0.125-0.047-0.266-0.078-0.391-0.109c-0.188-0.062-0.375-0.109-0.547-0.141
	c-0.156-0.031-0.297-0.062-0.438-0.094c-0.188-0.031-0.359-0.047-0.547-0.078c-0.141-0.016-0.281-0.031-0.422-0.047
	c-0.203-0.016-0.406-0.016-0.594-0.016c-0.125,0-0.25-0.016-0.375-0.016c-0.25,0-0.484,0.016-0.734,0.047
	c-0.078,0-0.156,0-0.234,0.016c-0.328,0.031-0.656,0.078-0.984,0.141c-0.062,0.016-0.109,0.031-0.172,0.047
	c-0.25,0.047-0.484,0.094-0.734,0.172c-0.016,0-0.047,0.016-0.094,0.031l0,0c-1.672,0.484-20.655,6.296-45.092,22.452
	c-22.905,15.14-55.372,42.764-79.942,88.372c-28.437,52.779-40.123,95.372-34.726,126.588c4.133,23.938,17.101,33.266,20.499,35.344
	c2.227,1.469,9.07,5.312,19.945,5.312l0,0c14.727,0,30.272-6.858,46.193-20.405c20.53-17.438,41.592-46.077,62.622-85.138
	c4.953-9.171,9.406-18.421,13.25-27.483C417.733,81.715,392.047,30.389,390.937,28.233z M361.516,159.65
	c-3.578,8.453-7.75,17.108-12.391,25.702c-45.857,85.137-78.246,94.325-90.035,94.325c-4.664,0-7.383-1.344-8.039-1.703
	c-0.445-0.359-0.523-0.359-1.117-0.672c-0.078-0.047-7.57-4.969-10.273-20.593c-3.133-18.141-0.039-52.452,32.5-112.84
	c22.265-41.342,51.544-66.435,72.169-80.185c4.515-3.016,8.812-5.624,12.812-7.874l-106.48,197.648
	c-2.797,5.187-0.859,11.655,4.328,14.452c1.609,0.859,3.344,1.266,5.055,1.266c3.797,0,7.469-2.031,9.398-5.609l108.792-201.93
	C381.031,82.121,380.265,115.448,361.516,159.65z"/>
<path style="fill:#CCD1D9;" d="M144.548,34.733c0,0,73.169,21.156,118.699,105.667c65.771,122.073,17.897,147.87,17.897,147.87
	s-44.288,32.482-113.66-96.278c-4.968-9.218-9.21-18.093-12.812-26.592C119.635,82.762,144.548,34.733,144.548,34.733z"/>
<path style="fill:#AAB2BC;" d="M272.645,135.338c-24.578-45.607-57.038-73.216-79.943-88.355
	c-25.054-16.562-44.389-22.265-45.193-22.499c-0.258-0.062-0.516-0.125-0.773-0.172c-0.047-0.016-0.086-0.031-0.133-0.031
	c-0.32-0.078-0.648-0.125-0.977-0.156c-0.078,0-0.148,0-0.219-0.016c-0.258-0.016-0.508-0.031-0.758-0.031c-0.117,0-0.234,0-0.359,0
	c-0.203,0.016-0.406,0.016-0.609,0.031c-0.141,0.016-0.273,0.031-0.414,0.047c-0.188,0.016-0.367,0.047-0.555,0.078
	c-0.141,0.031-0.281,0.047-0.43,0.078c-0.18,0.047-0.367,0.094-0.547,0.141c-0.133,0.047-0.266,0.078-0.398,0.109
	c-0.211,0.078-0.422,0.156-0.625,0.234c-0.102,0.031-0.203,0.062-0.297,0.109c-0.312,0.125-0.617,0.281-0.922,0.438h-0.008
	c-0.023,0.016-0.047,0.031-0.07,0.047c-0.266,0.141-0.523,0.297-0.781,0.469c-0.094,0.062-0.188,0.141-0.281,0.203
	c-0.172,0.125-0.344,0.25-0.508,0.391c-0.109,0.078-0.211,0.172-0.32,0.266c-0.141,0.125-0.281,0.25-0.414,0.375
	c-0.109,0.109-0.211,0.218-0.312,0.312c-0.125,0.141-0.242,0.266-0.359,0.406c-0.094,0.109-0.195,0.234-0.289,0.344
	c-0.109,0.141-0.211,0.297-0.312,0.438c-0.086,0.125-0.18,0.25-0.258,0.375c-0.102,0.156-0.195,0.328-0.289,0.484
	c-0.07,0.125-0.141,0.234-0.203,0.359c-0.008,0-0.008,0.016-0.008,0.016c-1.117,2.141-26.803,53.482,9.773,139.729
	c3.844,9.078,8.305,18.328,13.242,27.499c21.038,39.045,42.107,67.685,62.63,85.122c15.929,13.547,31.476,20.421,46.194,20.421
	c10.883,0,17.726-3.844,19.944-5.327c3.406-2.062,16.374-11.406,20.499-35.344C312.768,230.709,301.081,188.117,272.645,135.338z
	 M286.754,255.552c-2.109,16.78-9.608,22.577-10.812,23.39c-0.656,0.297-0.453,0.172-0.984,0.625
	c-0.672,0.375-3.398,1.688-8.039,1.688c-11.797,0-44.179-9.188-90.044-94.325c-4.625-8.594-8.797-17.234-12.383-25.702
	c-16.952-39.983-18.874-70.966-17.499-89.919c0.211-2.844,0.492-5.5,0.836-8l108.738,201.852c1.93,3.578,5.602,5.609,9.398,5.609
	c1.711,0,3.445-0.406,5.055-1.281c5.188-2.797,7.125-9.266,4.328-14.452L168.875,57.404c24.046,13.608,59.178,40.154,84.981,88.059
	C285.176,203.585,289.035,237.412,286.754,255.552z"/>
<g>
	<path style="fill:#E6E9ED;" d="M60.347,127.994c0,0,149.597,0,192.259,117.324c47.396,130.308,0,63.998,0,63.998L60.347,127.994z"
		/>
	<path style="fill:#E6E9ED;" d="M451.637,127.994c0,0-145.963,0-188.633,117.324c-47.39,130.308,0,63.998,0,63.998L451.637,127.994z
		"/>
</g>
<g>
	<path style="fill:#CCD1D9;" d="M262.637,241.678c-10.398-28.592-27.648-52.951-51.287-72.419
		c-18.703-15.421-41.39-27.765-67.412-36.702c-43.912-15.062-81.997-15.234-83.591-15.234c-4.374,0-8.304,2.672-9.913,6.734
		c-1.617,4.062-0.586,8.687,2.594,11.687l191.547,180.649c1.164,1.578,3.758,5,6.82,8.437c7.484,8.422,13.211,12.016,19.141,12.016
		c4.359,0,8.281-2.047,10.796-5.625C286.144,324.345,288.332,312.331,262.637,241.678z M125.892,149.228
		c3.375,4.281,8.733,12.968,8.218,21.233c-0.203,3.265-1.328,6.328-3.382,9.25L90.104,141.4
		C100.44,142.947,112.761,145.4,125.892,149.228z M146.313,194.398c5.461-6.75,8.578-14.421,9.086-22.624
		c0.273-4.312-0.188-8.437-1.078-12.312c16.522,7.219,31.178,16.093,43.732,26.468c20.515,16.983,35.498,38.187,44.529,63.029
		c9.109,25.062,14.211,41.53,17.039,52.311L146.313,194.398z"/>
	<path style="fill:#CCD1D9;" d="M461.528,123.995c-1.625-4.031-5.547-6.672-9.891-6.672c-1.562,0-38.811,0.172-81.841,15.265
		c-25.498,8.937-47.764,21.296-66.169,36.717c-23.218,19.468-40.264,43.811-50.646,72.372
		c-25.694,70.638-23.499,82.668-18.695,89.543c2.508,3.578,6.438,5.625,10.789,5.625c0,0,0,0,0.008,0
		c5.93,0,11.648-3.594,19.133-12.016c3.094-3.468,5.711-6.921,6.852-8.468l116.698-112.183l0.016-0.016l71.247-68.482
		C462.169,132.666,463.153,128.041,461.528,123.995z M255.989,301.254c2.836-10.78,7.93-27.249,17.047-52.295
		c9.03-24.858,23.857-46.077,44.028-63.076c10.375-8.734,22.219-16.406,35.358-22.921c-0.219,9.171,2.141,21.468,12.562,33.53
		L255.989,301.254z M380.406,181.664c-4.531-5.594-6.781-11.64-6.656-18.062c0.078-4.641,1.359-8.468,2.25-10.578
		c0.078-0.031,0.172-0.062,0.25-0.094c16.906-5.984,33.031-9.453,45.983-11.484L380.406,181.664z"/>
</g>
<path style="fill:#F5F7FA;" d="M263.005,10.655c0,0-63.998,53.342-63.998,149.338c0,138.651,63.998,138.651,63.998,138.651
	s63.997,7.594,63.997-138.651c0-10.484-0.547-20.312-1.562-29.499C315.611,41.123,263.005,10.655,263.005,10.655z"/>
<path style="fill:#E6E9ED;" d="M337.064,183.852c0.406-7.641,0.609-15.578,0.609-23.858c0-10.5-0.547-20.812-1.641-30.671
	C325.752,35.67,270.692,2.781,268.348,1.422c-0.039-0.016-0.086-0.031-0.125-0.062c-0.117-0.062-0.242-0.125-0.367-0.188
	c-0.156-0.078-0.312-0.156-0.477-0.234c-0.125-0.062-0.258-0.109-0.391-0.172c-0.172-0.062-0.352-0.125-0.531-0.188
	c-0.117-0.047-0.234-0.094-0.352-0.125c-0.289-0.094-0.578-0.156-0.867-0.219c-0.109-0.031-0.219-0.047-0.328-0.062
	c-0.211-0.031-0.422-0.078-0.641-0.094c-0.109-0.016-0.227-0.031-0.344-0.047c-0.25-0.016-0.5-0.031-0.75-0.031
	c-0.055,0-0.109,0-0.172,0c-0.016,0-0.031,0-0.055,0c-0.312,0-0.625,0.016-0.938,0.047c-0.117,0-0.227,0.016-0.336,0.031
	c-0.203,0.031-0.406,0.062-0.602,0.094c-0.141,0.031-0.266,0.047-0.398,0.078c-0.188,0.047-0.375,0.094-0.555,0.141
	c-0.125,0.047-0.242,0.078-0.367,0.109c-0.273,0.094-0.539,0.188-0.812,0.297c-0.117,0.047-0.234,0.109-0.352,0.156
	c-0.172,0.078-0.336,0.156-0.5,0.25c-0.125,0.062-0.242,0.125-0.352,0.188c-0.164,0.094-0.328,0.188-0.492,0.297
	c-0.102,0.062-0.203,0.125-0.305,0.203c-0.195,0.125-0.383,0.281-0.57,0.422c-0.055,0.047-0.117,0.094-0.172,0.14
	c0,0-0.016,0-0.023,0.016c-0.701,0.577-17.482,14.702-34.184,41.154c-15.351,24.312-33.647,64.216-33.647,116.371
	c0,141.87,66.139,148.963,73.998,149.307c0.516,0.031,1.281,0.077,2.258,0.077l0,0c7.359,0,26.296-2.312,43.264-23.717
	c16.952-21.375,26.733-55.499,29.187-101.622C337.049,183.977,337.064,183.914,337.064,183.852z M209.671,159.993
	c0-13.015,1.219-25.718,3.625-38.108c10.155,7.578,23.248,12.733,39.045,15.421v69.169c-26.632-7.093-38.397-19.327-42.037-23.937
	C209.897,175.508,209.671,168.009,209.671,159.993z M273.677,129.463c0.703,0.031,1.422,0.047,2.172,0.047
	c9.202,0,21.826-2.109,37.357-9.734c0.624,3.828,1.171,7.781,1.624,11.875c1,9.093,1.516,18.625,1.516,28.343
	c0,6.125-0.125,11.953-0.344,17.499c-18.765,10.844-33.826,12.312-42.325,11.953L273.677,129.463L273.677,129.463z M308.471,98.183
	c-16.421,9.078-28.155,10.343-34.795,9.937V33.655c2.875,3.062,5.968,6.656,9.108,10.843
	C291.347,55.888,301.581,73.434,308.471,98.183z M239.583,55.717c4.359-6.969,8.734-12.984,12.758-18.031v77.919
	c-20.648-4.219-29.569-12.734-32.929-17.125C224.31,83.653,231.036,69.371,239.583,55.717z M291.16,272.411
	c-11.516,14.516-23.241,15.641-26.562,15.641c-0.195,0-0.344,0-0.438-0.016c-0.547-0.078-0.508-0.078-1.07-0.062
	c-1.344-0.078-13.312-1.188-25.609-15.422c-8.679-10.047-18.507-27.952-23.842-59.56c9.335,5.844,21.975,11.625,38.701,15.453
	v38.201c0,5.891,4.773,10.672,10.664,10.672s10.672-4.781,10.672-10.672v-55.904c0.734,0.031,1.484,0.047,2.266,0.047
	c1.812,0,3.765-0.078,5.827-0.219c10.609-0.766,21.562-3.609,32.404-8.312C309.862,240.74,299.878,261.411,291.16,272.411z"/>
<path style="fill:#AC92EB;" d="M314.752,282.38c-1.952-3.156-5.374-5.062-9.077-5.062h-85.333c-3.703,0-7.132,1.906-9.077,5.062
	c-1.945,3.141-2.117,7.062-0.469,10.375l21.334,42.653c1.805,3.625,5.5,5.906,9.539,5.906h42.679c4.031,0,7.734-2.281,9.531-5.906
	l21.342-42.653C316.861,289.442,316.689,285.52,314.752,282.38z"/>
<g>
</g>
<g>
</g>
<g>
</g>
<g>
</g>
<g>
</g>
<g>
</g>
<g>
</g>
<g>
</g>
<g>
</g>
<g>
</g>
<g>
</g>
<g>
</g>
<g>
</g>
<g>
</g>
<g>
</g>
</svg>
