<?xml version="1.0" encoding="iso-8859-1"?>
<!-- Generator: Adobe Illustrator 19.0.0, SVG Export Plug-In . SVG Version: 6.00 Build 0)  -->
<svg version="1.1" id="Layer_1" xmlns="http://www.w3.org/2000/svg" xmlns:xlink="http://www.w3.org/1999/xlink" x="0px" y="0px"
	 viewBox="0 0 511.973 511.973" style="enable-background:new 0 0 511.973 511.973;" xml:space="preserve">
<path style="fill:#F4BE8E;" d="M502.613,54.624c-0.016,0-0.016,0-0.016,0l0,0l0,0l-253.6,253.615l-45.248-45.265l253.6-253.6
	C463.396,3.328,471.427,0,479.973,0c8.547,0,16.593,3.328,22.624,9.374c6.047,6.039,9.375,14.078,9.375,22.625
	S508.644,48.577,502.613,54.624z"/>
<path style="opacity:0.2;fill:#FFFFFF;enable-background:new    ;" d="M504.441,24.453c0,8.546-3.328,16.585-9.375,22.624v0.008l0,0
	L241.451,300.676l7.547,7.562l253.6-253.615l0,0c0,0,0,0,0.016,0c6.031-6.047,9.359-14.078,9.359-22.625s-3.328-16.585-9.375-22.625
	c-1.266-1.281-2.641-2.43-4.078-3.461C502.363,11.297,504.441,17.711,504.441,24.453z"/>
<path style="fill:#434A54;" d="M221.842,229.796c-4.172-4.171-10.921-4.171-15.077,0l-65.998,65.991c-2,2-3.125,4.718-3.125,7.546
	s1.125,5.531,3.125,7.53l60.342,60.342c4.156,4.172,10.906,4.172,15.077,0l65.998-65.997c4.156-4.156,4.156-10.905,0-15.077
	L221.842,229.796z"/>
<path style="fill:#656D78;" d="M121.065,252.85c-35.968-1.992-70.247,12.202-99.105,41.062L3.117,312.769l196.102,196.087
	l18.843-18.843c28.858-28.859,43.062-63.123,41.062-99.105c-1.828-33.046-17.75-66.171-44.827-93.23
	C187.234,270.607,154.127,254.686,121.065,252.85z"/>
<path style="opacity:0.1;fill:#FFFFFF;enable-background:new    ;" d="M244.045,375.83c1.984,35.968-12.203,70.247-41.061,99.09
	l-18.859,18.843l15.094,15.094l18.843-18.843c28.858-28.859,43.062-63.123,41.062-99.105c-1.828-33.046-17.75-66.171-44.827-93.23
	c-2.53-2.531-5.124-4.984-7.765-7.312C229.155,315.863,242.373,345.862,244.045,375.83z"/>
<path style="fill:#434A54;" d="M214.296,508.856c-4.155,4.156-10.905,4.156-15.077,0L3.117,312.754
	c-4.156-4.171-4.156-10.921,0-15.076c4.171-4.172,10.921-4.172,15.093,0l196.086,196.084
	C218.467,497.934,218.467,504.7,214.296,508.856z"/>
<path style="fill:#656D78;" d="M244.466,252.421l-15.077,15.085c-4.172,4.164-4.172,10.922,0,15.078
	c4.155,4.172,10.905,4.172,15.077,0l15.094-15.078L244.466,252.421z"/>
<g>
</g>
<g>
</g>
<g>
</g>
<g>
</g>
<g>
</g>
<g>
</g>
<g>
</g>
<g>
</g>
<g>
</g>
<g>
</g>
<g>
</g>
<g>
</g>
<g>
</g>
<g>
</g>
<g>
</g>
</svg>
