<?xml version="1.0" encoding="iso-8859-1"?>
<!-- Generator: Adobe Illustrator 19.0.0, SVG Export Plug-In . SVG Version: 6.00 Build 0)  -->
<svg version="1.1" id="Layer_1" xmlns="http://www.w3.org/2000/svg" xmlns:xlink="http://www.w3.org/1999/xlink" x="0px" y="0px"
	 viewBox="0 0 511.989 511.989" style="enable-background:new 0 0 511.989 511.989;" xml:space="preserve">
<g>
	<path style="fill:#AAB2BC;" d="M197.71,199.238c-4.156,4.171-10.921,4.171-15.078,0l-7.546-7.539
		c-4.172-4.171-4.172-10.921,0-15.085c4.172-4.171,10.921-4.171,15.078,0l7.546,7.539
		C201.882,188.317,201.882,195.074,197.71,199.238z"/>
	<path style="fill:#AAB2BC;" d="M167.539,229.409c-4.156,4.163-10.921,4.171-15.078,0l-7.546-7.539
		c-4.172-4.164-4.172-10.922,0-15.086c4.156-4.164,10.921-4.164,15.078,0l7.546,7.539
		C171.711,218.488,171.711,225.245,167.539,229.409z"/>
	<path style="fill:#AAB2BC;" d="M137.369,259.587c-4.156,4.164-10.921,4.164-15.078,0l-7.546-7.546
		c-4.172-4.164-4.172-10.922,0-15.086c4.155-4.164,10.921-4.164,15.077,0l7.546,7.539
		C141.54,248.666,141.54,255.416,137.369,259.587z"/>
</g>
<path style="fill:#CCD1D9;" d="M333.486,48.385c-4.172-4.172-10.922-4.172-15.094,0L122.291,244.494
	c-4.172,4.172-4.172,10.922,0,15.093l45.249,45.265c2,2,4.718,3.125,7.546,3.125s5.547-1.125,7.546-3.125L378.75,108.727
	c2-2,3.109-4.719,3.109-7.547c0-2.828-1.109-5.539-3.109-7.539L333.486,48.385z"/>
<path style="fill:#AAB2BC;" d="M182.632,259.579c-4.171,4.172-10.921,4.172-15.093,0c-4.156-4.163-4.156-10.913,0-15.085
	l39.608-39.6c4.156-4.164,10.921-4.164,15.078,0c4.171,4.172,4.171,10.922,0,15.086L182.632,259.579z"/>
<path style="fill:#ED5564;" d="M303.315,78.555c-4.172-4.164-10.921-4.164-15.093,0l-49.17,49.17l-26.249,26.257
	c-5.562,5.562-12.531,17.78-8.734,59.427c1.297,14.406,3.469,27.788,4.766,35.061L36.341,420.957
	c-20.796,20.795-20.796,54.638,0,75.434c20.796,20.797,54.639,20.797,75.435,0L358.469,249.69
	c18.265,7.547,66.904,23.601,95.699-5.195c4.172-4.164,4.172-10.922,0-15.085L303.315,78.555z M84.73,458.674
	c0,5.89-4.781,10.671-10.671,10.671s-10.671-4.781-10.671-10.671c0-5.891,4.781-10.672,10.671-10.672S84.73,452.783,84.73,458.674z"
	/>
<path style="fill:#DA4453;" d="M303.315,78.555c-4.172-4.164-10.921-4.164-15.093,0L273.145,93.64
	c4.156-4.164,10.921-4.164,15.077,0l150.869,150.854c2.453,2.469,3.453,5.836,3,9.047c4.281-2.344,8.359-5.312,12.078-9.047
	c4.172-4.164,4.172-10.922,0-15.085L303.315,78.555z"/>
<path style="fill:#ED5564;" d="M378.734,3.128c-4.156-4.171-10.906-4.171-15.078,0l-45.264,45.256c-2,2-3.125,4.711-3.125,7.539
	s1.125,5.546,3.125,7.546l150.87,150.854c2.781,2.781,6.859,3.812,10.624,2.672c1.719-0.523,3.234-1.445,4.453-2.672
	c1.469-1.461,2.5-3.344,2.922-5.445c0.156-0.812,3.984-20.163,3.984-43.584c0-32.96-7.406-57.068-21.983-71.654L378.734,3.128z"/>
<path style="fill:#E6E9ED;" d="M212.804,153.982c-4.312,4.312-9.453,12.609-9.797,35.459l55.045,55.052
	c0.531,0.523,1.094,0.977,1.672,1.367c4.141,2.734,9.781,2.281,13.422-1.367l30.17-30.17c4.172-4.164,4.172-10.922,0-15.085
	l-67.888-67.888L212.804,153.982z"/>
<polygon style="fill:#CCD1D9;" points="235.427,221.87 280.691,176.614 265.599,161.529 220.35,206.785 "/>
<g>
	<path style="fill:#DA4453;" d="M258.052,289.759l-146.275,146.29c-4.172,4.156-10.922,4.156-15.093,0
		c-4.156-4.172-4.156-10.921,0-15.092l146.291-146.292c4.156-4.164,10.921-4.164,15.078,0
		C262.224,278.837,262.224,285.587,258.052,289.759z"/>
	<path style="fill:#DA4453;" d="M317.689,49.174c-0.156,0.18-0.281,0.375-0.422,0.562c-0.062,0.094-0.141,0.18-0.203,0.281
		c-0.172,0.242-0.312,0.5-0.453,0.758c-0.031,0.047-0.062,0.086-0.078,0.133c-0.141,0.266-0.266,0.539-0.391,0.82
		c-0.016,0.039-0.047,0.078-0.062,0.125c-0.109,0.266-0.203,0.539-0.281,0.805c-0.031,0.062-0.047,0.117-0.062,0.18
		c-0.078,0.25-0.141,0.508-0.203,0.766c-0.016,0.086-0.031,0.164-0.047,0.25c-0.062,0.242-0.094,0.492-0.125,0.742
		c0,0.094-0.031,0.188-0.031,0.289c-0.031,0.328-0.047,0.656-0.047,0.984c0,0.023-0.016,0.047,0,0.062
		c0,0.352,0.016,0.695,0.047,1.039c0,0.078,0.016,0.164,0.031,0.25c0.031,0.266,0.062,0.523,0.125,0.781
		c0,0.07,0.031,0.141,0.047,0.211c0.062,0.266,0.125,0.539,0.203,0.805c0.016,0.047,0.031,0.086,0.047,0.133
		c0.094,0.289,0.188,0.57,0.297,0.852c0.016,0.023,0.031,0.046,0.031,0.07c0.125,0.296,0.266,0.585,0.422,0.875
		c0,0.016,0.016,0.039,0.031,0.055c0.156,0.289,0.328,0.562,0.5,0.836c0.031,0.055,0.078,0.102,0.109,0.156
		c0.172,0.234,0.328,0.461,0.516,0.688c0.156,0.188,0.328,0.367,0.5,0.547c0.062,0.078,0.141,0.164,0.203,0.242l50.295,50.288
		l100.575,100.565c0.234,0.234,0.469,0.445,0.719,0.656c0.062,0.055,0.125,0.102,0.188,0.156c0.219,0.172,0.453,0.344,0.688,0.5
		c0.031,0.023,0.062,0.047,0.094,0.07c0.25,0.164,0.516,0.312,0.766,0.453c0.094,0.047,0.188,0.094,0.281,0.141
		c0.203,0.109,0.422,0.203,0.625,0.289c0.078,0.031,0.141,0.07,0.219,0.094c0.266,0.109,0.531,0.203,0.812,0.289
		c0.094,0.031,0.188,0.055,0.281,0.078c0.219,0.062,0.453,0.117,0.688,0.172c0.062,0.008,0.141,0.031,0.203,0.039
		c0.297,0.055,0.594,0.102,0.891,0.133c0.062,0.008,0.125,0.008,0.188,0.016c0.266,0.016,0.516,0.031,0.781,0.031
		c0.062,0.008,0.125,0.008,0.188,0.008c0.312-0.008,0.624-0.016,0.937-0.047c0.031,0,0.062-0.008,0.094-0.016
		c0.266-0.023,0.531-0.062,0.797-0.109c0.094-0.016,0.188-0.039,0.266-0.055c0.25-0.047,0.484-0.109,0.719-0.172
		c0.062-0.023,0.125-0.031,0.188-0.055c0.281-0.078,0.547-0.18,0.812-0.281c0.094-0.031,0.172-0.07,0.266-0.109
		c0.25-0.109,0.516-0.219,0.75-0.352c0.062-0.031,0.125-0.062,0.172-0.094c0.234-0.117,0.453-0.25,0.672-0.391
		c0.062-0.047,0.141-0.086,0.203-0.133c0.25-0.164,0.484-0.344,0.734-0.531c0.047-0.039,0.094-0.086,0.141-0.125
		c0.25-0.203,0.484-0.422,0.719-0.656h0.016c1.453-1.469,2.484-3.352,2.906-5.445c0.062-0.289,0.562-2.867,1.203-7.094
		c-1.516-0.508-2.922-1.352-4.125-2.546L333.486,48.385c-2.469-2.469-3.453-5.836-3-9.047c-4.297,2.344-8.359,5.312-12.094,9.047
		C318.142,48.635,317.908,48.9,317.689,49.174z"/>
</g>
<g>
</g>
<g>
</g>
<g>
</g>
<g>
</g>
<g>
</g>
<g>
</g>
<g>
</g>
<g>
</g>
<g>
</g>
<g>
</g>
<g>
</g>
<g>
</g>
<g>
</g>
<g>
</g>
<g>
</g>
</svg>
