<?xml version="1.0" encoding="iso-8859-1"?>
<!-- Generator: Adobe Illustrator 19.0.0, SVG Export Plug-In . SVG Version: 6.00 Build 0)  -->
<svg version="1.1" id="Layer_1" xmlns="http://www.w3.org/2000/svg" xmlns:xlink="http://www.w3.org/1999/xlink" x="0px" y="0px"
	 viewBox="0 0 511.98 511.98" style="enable-background:new 0 0 511.98 511.98;" xml:space="preserve">
<path style="fill:#967ADC;" d="M501.324,191.996H63.997c-2.828,0-5.531,1.109-7.531,3.109L3.125,248.448
	c-2.75,2.75-3.781,6.797-2.688,10.546l53.326,181.328c1.188,4.031,4.641,7,8.812,7.562l383.985,53.342
	c0.469,0.062,0.953,0.094,1.422,0.094c2.812,0,5.531-1.125,7.547-3.125l53.326-53.342c2-2,3.125-4.719,3.125-7.531v-234.67
	C511.98,196.762,507.215,191.996,501.324,191.996z"/>
<path style="opacity:0.1;fill:#080808;enable-background:new    ;" d="M385.391,492.945l61.169,8.281
	c0.469,0.062,0.953,0.094,1.422,0.094c2.812,0,5.531-1.125,7.547-3.125l53.326-53.342c2-2,3.125-4.719,3.125-7.531v-234.67
	c0-2.937-1.188-5.609-3.125-7.546l-60.873,60.889L385.391,492.945z"/>
<path style="fill:#AC92EB;" d="M447.982,245.323H10.671C4.78,245.323,0,250.089,0,255.995v234.64
	c0,5.904,4.781,10.686,10.671,10.686h437.311c5.891,0,10.672-4.781,10.672-10.686v-234.64
	C458.654,250.088,453.873,245.323,447.982,245.323z"/>
<g>
	<path style="fill:#E6E9ED;" d="M131.12,141.78c-4.156,4.172-4.156,10.922,0,15.094c4.171,4.156,10.921,4.156,15.093,0
		c4.156-4.172,4.156-10.922,0-15.094C142.041,137.623,135.291,137.623,131.12,141.78z"/>
	<path style="fill:#E6E9ED;" d="M74.669,22.003c-29.405,0-53.326,23.921-53.326,53.326s23.921,53.326,53.326,53.326
		s53.326-23.921,53.326-53.326S104.074,22.003,74.669,22.003z"/>
	<path style="fill:#E6E9ED;" d="M287.223,10.659c-23.53,0-42.67,19.14-42.67,42.671c0,23.53,19.14,42.67,42.67,42.67
		s42.67-19.14,42.67-42.67S310.754,10.659,287.223,10.659z"/>
	<path style="fill:#E6E9ED;" d="M234.662,117.327c-17.64,0-31.999,14.359-31.999,31.999s14.359,31.999,31.999,31.999
		s32-14.359,32-31.999S252.302,117.327,234.662,117.327z"/>
</g>
<g>
</g>
<g>
</g>
<g>
</g>
<g>
</g>
<g>
</g>
<g>
</g>
<g>
</g>
<g>
</g>
<g>
</g>
<g>
</g>
<g>
</g>
<g>
</g>
<g>
</g>
<g>
</g>
<g>
</g>
</svg>
