<?xml version="1.0" encoding="iso-8859-1"?>
<!-- Generator: Adobe Illustrator 19.0.0, SVG Export Plug-In . SVG Version: 6.00 Build 0)  -->
<svg version="1.1" id="Layer_1" xmlns="http://www.w3.org/2000/svg" xmlns:xlink="http://www.w3.org/1999/xlink" x="0px" y="0px"
	 viewBox="0 0 511.98 511.98" style="enable-background:new 0 0 511.98 511.98;" xml:space="preserve">
<g>
	<path style="fill:#FFD2A6;" d="M153.948,358.031l141.917-141.917l0,0c-8.328-8.328-8.328-21.843,0-30.171
		c7.327-7.312,18.639-8.203,26.936-2.656l72.936-172.619L10.664,410.826c0,0,52.787,37.701,82.958,7.531l15.085-15.078
		c0,0,5.648-35.827,15.077-45.248C133.214,348.609,153.948,358.031,153.948,358.031z"/>
	<path style="fill:#FFD2A6;" d="M328.691,189.178c5.547,8.296,4.656,19.608-2.656,26.937c-8.328,8.328-21.843,8.328-30.17,0
		L153.948,358.031c0,0,9.43,20.733,0.008,30.171c-9.429,9.421-45.248,15.077-45.248,15.077l-15.085,15.078
		c-30.171,30.17,7.539,82.965,7.539,82.965l400.148-385.08L328.691,189.178z"/>
</g>
<g>
	<path style="fill:#F4BE8E;" d="M131.324,365.577c2.289-2.297,11.851-0.688,18.218,2.156c4.047,1.844,8.805,0.984,11.953-2.156
		L305.427,221.63c-3.5-0.938-6.812-2.766-9.562-5.516s-4.578-6.062-5.516-9.562L151.214,345.687
		c-9.171-2.781-24.819-5.344-34.968,4.797c-3.421,3.422-8.569,10.358-13.866,31.062c-1.719,6.719-2.938,12.905-3.609,16.577
		l-12.695,12.703c-16.359,16.358-43.482,5.734-58.458-2.234L363.502,59.527l-50.794,120.245c4.858,0.406,9.608,2.453,13.327,6.172
		c1.938,1.953,3.422,4.172,4.453,6.546l75.076-177.681c2-4.734,0.328-10.219-3.969-13.046c-4.281-2.828-9.984-2.203-13.547,1.515
		L2.977,403.42c-2.148,2.234-3.218,5.297-2.93,8.375c0.227,2.5,1.328,4.812,3.078,6.562c0.414,0.422,0.859,0.797,1.343,1.141
		c0.586,0.422,14.71,10.436,32.991,16.514c33.217,11.078,52.975,0.625,63.701-10.108l15.085-15.077
		c1.594-1.594,2.641-3.656,2.992-5.891C121.66,389.624,127.215,369.686,131.324,365.577z"/>
	<path style="fill:#F4BE8E;" d="M510.216,110.368c-2.828-4.281-8.312-5.953-13.062-3.953L319.488,181.49
		c2.375,1.031,4.594,2.516,6.547,4.453c3.719,3.719,5.766,8.468,6.172,13.328l120.229-50.795L103.387,484.37
		c-2.422-4.562-5.093-10.297-7.187-16.594c-6.125-18.374-4.453-32.452,4.96-41.873l12.695-12.687
		c3.679-0.672,9.858-1.891,16.577-3.609c20.71-5.297,27.647-10.453,31.062-13.875c10.147-10.14,7.578-25.796,4.804-34.968
		L305.427,221.63c-3.5-0.938-6.812-2.766-9.562-5.516s-4.578-6.062-5.516-9.562l-143.94,143.933
		c-3.141,3.141-4.008,7.906-2.164,11.952c2.867,6.312,4.429,15.953,2.164,18.219c-4.156,4.156-23.718,9.609-39.366,12.094
		c-2.227,0.344-4.289,1.39-5.883,2.983l-15.085,15.094c-10.726,10.719-21.187,30.482-10.117,63.7
		c6.094,18.28,16.101,32.39,16.523,32.983c0.344,0.484,0.727,0.938,1.141,1.344c1.742,1.75,4.062,2.859,6.554,3.078
		c3.086,0.297,6.148-0.781,8.383-2.922L508.7,123.93C512.419,120.367,513.044,114.665,510.216,110.368z"/>
</g>
<g>
	<path style="fill:#656D78;" d="M309.192,217.973c-0.469-5.875-5.594-10.266-11.469-9.797l-122.487,9.594
		c-3.703-1.219-7.929-0.375-10.874,2.578c-4.164,4.156-4.164,10.921,0,15.077l0.679,0.688c0.031,0.031,0.055,0.062,0.086,0.094
		c0.023,0.016,0.047,0.031,0.07,0.062l25.101,25.093c4.164,4.156,10.914,4.156,15.078,0c4.164-4.171,4.164-10.921,0-15.078
		l-8.789-8.797l102.808-8.046C305.255,228.973,309.645,223.848,309.192,217.973z"/>
	<path style="fill:#656D78;" d="M276.553,347.625L276.553,347.625l-25.922-25.937c-4.164-4.156-4.164-10.922,0-15.077
		c4.164-4.172,10.914-4.172,15.086,0l0,0l25.913,25.92c4.172,4.172,4.172,10.922,0,15.094
		C287.474,351.781,280.724,351.781,276.553,347.625z"/>
	<path style="fill:#656D78;" d="M288.318,223.661L288.318,223.661c-12.468-12.484-12.468-32.78,0-45.249
		c6.047-6.046,14.077-9.375,22.624-9.375c8.546,0,16.593,3.328,22.624,9.375c12.483,12.469,12.483,32.765,0,45.249
		C321.097,236.128,300.802,236.128,288.318,223.661z M318.488,193.49c-2.016-2.015-4.688-3.125-7.546-3.125
		c-2.844,0-5.516,1.109-7.531,3.125c-4.156,4.156-4.156,10.921,0,15.078s10.921,4.156,15.077,0S322.644,197.646,318.488,193.49z"/>
</g>
<g>
</g>
<g>
</g>
<g>
</g>
<g>
</g>
<g>
</g>
<g>
</g>
<g>
</g>
<g>
</g>
<g>
</g>
<g>
</g>
<g>
</g>
<g>
</g>
<g>
</g>
<g>
</g>
<g>
</g>
</svg>
