<?xml version="1.0" encoding="iso-8859-1"?>
<!-- Generator: Adobe Illustrator 19.0.0, SVG Export Plug-In . SVG Version: 6.00 Build 0)  -->
<svg version="1.1" id="Layer_1" xmlns="http://www.w3.org/2000/svg" xmlns:xlink="http://www.w3.org/1999/xlink" x="0px" y="0px"
	 viewBox="0 0 511.977 511.977" style="enable-background:new 0 0 511.977 511.977;" xml:space="preserve">
<g>
	<path style="fill:#DA4453;" d="M37.739,141.965l0.594,0.438l11.312-18.108c-4.718-2.953-10.968-1.797-14.281,2.781
		C31.903,131.841,32.965,138.512,37.739,141.965z"/>
	<path style="fill:#DA4453;" d="M432.886,402.017l-297.128-215.35h-36.35l320.965,232.616c1.891,1.375,4.078,2.031,6.25,2.031
		c3.311,0,6.561-1.531,8.654-4.406C438.73,412.142,437.668,405.47,432.886,402.017z"/>
</g>
<g>
	<path style="fill:#ED5564;" d="M376.202,186.667L79.065,402.017c-4.766,3.453-5.828,10.125-2.375,14.891
		c2.086,2.875,5.344,4.406,8.648,4.406c2.164,0,4.359-0.656,6.25-2.031L412.56,186.667H376.202z"/>
	<path style="fill:#ED5564;" d="M473.636,142.403l0.594-0.438c4.765-3.453,5.827-10.125,2.375-14.89
		c-3.312-4.578-9.578-5.734-14.281-2.781L473.636,142.403z"/>
</g>
<g>
	<path style="fill:#CCD1D9;" d="M378.296,197.322c-4.547,0-8.766-2.938-10.188-7.515l-26.326-85.325
		c-1.734-5.64,1.422-11.608,7.046-13.343c5.625-1.734,11.594,1.422,13.343,7.046l26.328,85.325
		c1.734,5.641-1.422,11.609-7.047,13.343C380.405,197.182,379.343,197.322,378.296,197.322z"/>
	<path style="fill:#CCD1D9;" d="M255.98,197.322c-5.891,0-10.664-4.766-10.664-10.656v-85.341c0-5.89,4.773-10.655,10.664-10.655
		c5.891,0,10.672,4.765,10.672,10.655v85.341C266.652,192.557,261.871,197.322,255.98,197.322z"/>
	<path style="fill:#CCD1D9;" d="M133.657,197.322c-1.039,0-2.093-0.141-3.14-0.469c-5.633-1.734-8.789-7.703-7.047-13.343
		l26.327-85.325c1.734-5.625,7.711-8.781,13.336-7.046c5.632,1.734,8.788,7.703,7.046,13.343l-26.327,85.325
		C142.438,194.385,138.219,197.322,133.657,197.322z"/>
</g>
<path style="fill:#E6E9ED;" d="M501.306,197.322L501.306,197.322H10.661c-3.875,0-7.445-2.094-9.328-5.484
	c-1.875-3.406-1.765-7.546,0.289-10.828l53.326-85.325c1.953-3.125,5.367-5.015,9.046-5.015h383.969
	c3.672,0,7.094,1.891,9.047,5.015l53.061,84.887c1.203,1.734,1.906,3.828,1.906,6.094
	C511.978,192.557,507.197,197.322,501.306,197.322z M29.911,175.995h452.146l-39.999-63.997H69.909L29.911,175.995z"/>
<g>
</g>
<g>
</g>
<g>
</g>
<g>
</g>
<g>
</g>
<g>
</g>
<g>
</g>
<g>
</g>
<g>
</g>
<g>
</g>
<g>
</g>
<g>
</g>
<g>
</g>
<g>
</g>
<g>
</g>
</svg>
