<?xml version="1.0" encoding="iso-8859-1"?>
<!-- Generator: Adobe Illustrator 19.0.0, SVG Export Plug-In . SVG Version: 6.00 Build 0)  -->
<svg version="1.1" id="Layer_1" xmlns="http://www.w3.org/2000/svg" xmlns:xlink="http://www.w3.org/1999/xlink" x="0px" y="0px"
	 viewBox="0 0 511.981 511.981" style="enable-background:new 0 0 511.981 511.981;" xml:space="preserve">
<path style="fill:#FFCE54;" d="M415.988,479.982c0,11.781-9.562,21.343-21.343,21.343h-277.31c-11.78,0-21.335-9.562-21.335-21.343
	V31.999c0-11.781,9.555-21.335,21.335-21.335h277.311c11.781,0,21.343,9.555,21.343,21.335v447.983H415.988z"/>
<path style="fill:#F6BB42;" d="M394.645,511.981h-277.31c-17.647,0-31.999-14.344-31.999-31.999V31.999
	C85.336,14.351,99.688,0,117.335,0h277.311c17.655,0,31.999,14.351,31.999,31.999v447.983
	C426.644,497.637,412.301,511.981,394.645,511.981z M117.335,21.336c-5.882,0-10.671,4.781-10.671,10.664v447.983
	c0,5.875,4.789,10.656,10.671,10.656h277.311c5.891,0,10.688-4.781,10.688-10.656V31.999c0-5.882-4.797-10.664-10.688-10.664
	L117.335,21.336L117.335,21.336z"/>
<g>
	<path style="fill:#434A54;" d="M263.533,45.788c4.172,4.164,4.172,10.922,0,15.085c-4.164,4.164-10.914,4.164-15.078,0
		c-4.172-4.163-4.172-10.921,0-15.085C252.619,41.624,259.369,41.624,263.533,45.788z"/>
	<path style="fill:#434A54;" d="M263.533,451.108c4.172,4.156,4.172,10.921,0,15.093c-4.164,4.156-10.914,4.156-15.078,0
		c-4.172-4.172-4.172-10.937,0-15.093C252.619,446.952,259.369,446.952,263.533,451.108z"/>
	<rect x="202.66" y="138.661" style="fill:#434A54;" width="106.68" height="117.33"/>
</g>
<rect x="202.66" y="255.991" style="fill:#656D78;" width="106.68" height="117.34"/>
<rect x="202.66" y="351.991" style="fill:#434A54;" width="106.68" height="21.343"/>
<path style="fill:#F6BB42;" d="M319.991,394.641H191.996c-5.891,0-10.664-4.765-10.664-10.655V127.995
	c0-5.89,4.773-10.664,10.664-10.664h127.995c5.891,0,10.656,4.773,10.656,10.664v255.991
	C330.647,389.877,325.882,394.641,319.991,394.641z M202.66,373.33h106.676V138.659H202.66V373.33z"/>
<path style="fill:#AAB2BC;" d="M255.994,223.992c-5.891,0-10.664-4.773-10.664-10.664v-42.67c0-5.89,4.773-10.664,10.664-10.664
	c5.891,0,10.664,4.773,10.664,10.664v42.67C266.658,219.219,261.885,223.992,255.994,223.992z"/>
<path style="fill:#CCD1D9;" d="M255.994,330.643c-17.945,0-31.999-11.702-31.999-26.654s14.054-26.655,31.999-26.655
	c17.938,0,31.999,11.703,31.999,26.655S273.931,330.643,255.994,330.643z M255.994,298.645c-6.617,0-10.664,3.469-10.664,5.344
	s4.047,5.344,10.664,5.344s10.664-3.469,10.664-5.344S262.611,298.645,255.994,298.645z"/>
<g>
</g>
<g>
</g>
<g>
</g>
<g>
</g>
<g>
</g>
<g>
</g>
<g>
</g>
<g>
</g>
<g>
</g>
<g>
</g>
<g>
</g>
<g>
</g>
<g>
</g>
<g>
</g>
<g>
</g>
</svg>
