<?xml version="1.0" encoding="iso-8859-1"?>
<!-- Generator: Adobe Illustrator 19.0.0, SVG Export Plug-In . SVG Version: 6.00 Build 0)  -->
<svg version="1.1" id="Layer_1" xmlns="http://www.w3.org/2000/svg" xmlns:xlink="http://www.w3.org/1999/xlink" x="0px" y="0px"
	 viewBox="0 0 511.98 511.98" style="enable-background:new 0 0 511.98 511.98;" xml:space="preserve">
<path style="fill:#434A54;" d="M307.924,152.275c-2.719,0-5.453-1.047-7.547-3.125l-43.67-43.686
	c-4.164-4.172-4.164-10.921,0-15.077c4.164-4.188,10.922-4.188,15.086,0l43.677,43.669c4.156,4.172,4.156,10.922,0,15.094
	C313.392,151.228,310.658,152.275,307.924,152.275z"/>
<path style="fill:#E6E9ED;" d="M349.422,46.42c-8.577-10.219-25.265-21.562-44.623-30.312C288.55,8.749,263.277,0,235.114,0
	c-24.022,0-46.162,8.39-62.357,23.593c-16.671,15.671-25.85,37.576-25.85,61.685v10.671h42.67v74.669h85.333v-64.779l77.012-23.312
	V49.388L349.422,46.42z"/>
<path style="fill:#AC92EB;" d="M317.579,22.468v70.466l34.343-10.406v-33.14l-2.5-2.969
	C342.798,38.529,331.36,29.983,317.579,22.468z"/>
<rect x="189.58" y="127.95" style="fill:#CCD1D9;" width="85.33" height="53.34"/>
<path style="fill:#AC92EB;" d="M286.425,237.802l-0.844-77.965c-0.062-5.843-4.828-10.546-10.671-10.546h-74.662h-10.671
	c-3.211,0-6.234,1.438-8.266,3.906c-31.319,38.389-37.693,109.104-39.998,210.194c-1.688,74.216,5.594,138.495,5.664,139.136
	c0.617,5.391,5.179,9.453,10.593,9.453h202.68c5.89,0,10.671-4.781,10.671-10.656V341.299
	C370.921,287.473,306.767,248.74,286.425,237.802z"/>
<path style="opacity:0.2;fill:#FFFFFF;enable-background:new    ;" d="M286.425,237.802l-0.844-77.965
	c-0.062-5.843-4.828-10.546-10.671-10.546h-21.328c5.844,0,10.602,4.703,10.664,10.546l0.852,77.965
	c20.343,10.938,84.48,49.671,84.48,103.496v160.025c0,5.875-4.765,10.656-10.671,10.656h21.343c5.89,0,10.671-4.781,10.671-10.656
	V341.299C370.921,287.473,306.767,248.74,286.425,237.802z"/>
<g>
	<path style="fill:#967ADC;" d="M167.023,351.955c5.89,0,10.664-4.766,10.664-10.656s-4.773-10.672-10.664-10.672h-24.757
		c-0.258,6.938-0.477,14.062-0.672,21.328H167.023z"/>
	<path style="fill:#967ADC;" d="M176.389,383.954c0-5.875-4.773-10.656-10.664-10.656H141.14c-0.086,7.25-0.102,14.375-0.047,21.343
		h24.632C171.616,394.64,176.389,389.86,176.389,383.954z"/>
	<path style="fill:#967ADC;" d="M167.437,309.285c5.882,0,10.656-4.766,10.656-10.656s-4.773-10.671-10.656-10.671H144.5
		c-0.492,6.906-0.93,14.015-1.305,21.327H167.437z"/>
	<path style="fill:#967ADC;" d="M172.991,266.63c5.891,0,10.671-4.781,10.671-10.671c0-5.906-4.781-10.672-10.671-10.672h-24.155
		c-0.953,6.844-1.789,13.952-2.531,21.343H172.991z"/>
</g>
<g>
</g>
<g>
</g>
<g>
</g>
<g>
</g>
<g>
</g>
<g>
</g>
<g>
</g>
<g>
</g>
<g>
</g>
<g>
</g>
<g>
</g>
<g>
</g>
<g>
</g>
<g>
</g>
<g>
</g>
</svg>
