<?xml version="1.0" encoding="iso-8859-1"?>
<!-- Generator: Adobe Illustrator 19.0.0, SVG Export Plug-In . SVG Version: 6.00 Build 0)  -->
<svg version="1.1" id="Layer_1" xmlns="http://www.w3.org/2000/svg" xmlns:xlink="http://www.w3.org/1999/xlink" x="0px" y="0px"
	 viewBox="0 0 511.98 511.98" style="enable-background:new 0 0 511.98 511.98;" xml:space="preserve">
<path style="fill:#AAB2BC;" d="M485.856,71.259c-18.016-36.029-51.155-55.888-78.2-55.888H106.668l-10.672,362.65h330.66
	c27.045,0,41.186-19.844,59.2-55.873c16.843-33.686,26.124-78.24,26.124-125.441C511.98,149.49,502.699,104.945,485.856,71.259z"/>
<path style="fill:#E6E9ED;" d="M485.856,71.259c-18.016-36.029-42.827-55.888-69.872-55.888H95.996l21.342,21.343
	c18.265,0,36.78,16.062,50.795,44.092c15.39,30.78,23.858,71.935,23.858,115.902v284.998l32.827,14.498l20.515-10.248l21.328,10.654
	l21.327-10.654l21.343,10.654l21.327-10.654l21.327,10.654l21.343-10.654l21.328,10.654l21.327-10.654l21.342,10.654l21.328-10.654
	l20.515,10.248l32.812-14.498V196.707C511.98,149.49,502.699,104.945,485.856,71.259z"/>
<path style="fill:#CCD1D9;" d="M165.868,71.259c-18.014-36.03-42.826-55.889-69.872-55.889S44.139,35.229,26.123,71.258
	C9.281,104.945,0,149.49,0,196.707c0,47.201,9.281,91.756,26.124,125.441c18.015,36.029,42.826,55.873,69.873,55.873
	c27.045,0,51.857-19.844,69.872-55.873c16.843-33.686,26.124-78.24,26.124-125.441C191.992,149.49,182.711,104.945,165.868,71.259z"
	/>
<path style="fill:#656D78;" d="M117.339,196.707c0,23.562-9.562,42.654-21.342,42.654c-11.781,0-21.328-19.092-21.328-42.654
	s9.546-42.67,21.328-42.67C107.777,154.037,117.339,173.146,117.339,196.707z"/>
<path style="fill:#AAB2BC;" d="M95.996,250.033c-9.938,0-18.687-6.531-24.625-18.39c-4.75-9.515-7.375-21.921-7.375-34.936
	c0-13.031,2.625-25.437,7.375-34.936c5.938-11.875,14.687-18.406,24.625-18.406c9.953,0,18.703,6.531,24.624,18.406
	c4.766,9.5,7.375,21.905,7.375,34.936c0,13.015-2.609,25.421-7.375,34.936C114.699,243.502,105.949,250.033,95.996,250.033z
	 M95.996,164.709c-0.359,0-2.812,1.141-5.547,6.593c-3.25,6.515-5.109,15.765-5.109,25.405c0,9.625,1.859,18.89,5.109,25.39
	c2.734,5.453,5.188,6.609,5.547,6.609c0.375,0,2.828-1.156,5.546-6.609c3.25-6.5,5.125-15.766,5.125-25.39
	c0-9.64-1.875-18.89-5.125-25.405C98.824,165.849,96.371,164.709,95.996,164.709z"/>
<g>
	<path style="fill:#CCD1D9;" d="M234.662,207.363h-31.999c-5.89,0-10.671-4.766-10.671-10.656s4.781-10.671,10.671-10.671h31.999
		c5.891,0,10.672,4.781,10.672,10.671S240.553,207.363,234.662,207.363z"/>
	<path style="fill:#CCD1D9;" d="M435.795,207.363h-67.044c-5.891,0-10.671-4.766-10.671-10.656s4.78-10.671,10.671-10.671h67.044
		c5.892,0,10.672,4.781,10.672,10.671S441.685,207.363,435.795,207.363z M335.237,207.363h-67.06
		c-5.892,0-10.656-4.766-10.656-10.656s4.766-10.671,10.656-10.671h67.06c5.875,0,10.655,4.781,10.655,10.671
		S341.112,207.363,335.237,207.363z"/>
	<path style="fill:#CCD1D9;" d="M501.324,207.363h-31.998c-5.906,0-10.672-4.766-10.672-10.656s4.766-10.671,10.672-10.671h31.998
		c5.891,0,10.656,4.781,10.656,10.671C511.98,202.597,507.215,207.363,501.324,207.363z"/>
</g>
<g>
</g>
<g>
</g>
<g>
</g>
<g>
</g>
<g>
</g>
<g>
</g>
<g>
</g>
<g>
</g>
<g>
</g>
<g>
</g>
<g>
</g>
<g>
</g>
<g>
</g>
<g>
</g>
<g>
</g>
</svg>
