<?xml version="1.0" encoding="iso-8859-1"?>
<!-- Generator: Adobe Illustrator 19.0.0, SVG Export Plug-In . SVG Version: 6.00 Build 0)  -->
<svg version="1.1" id="Layer_1" xmlns="http://www.w3.org/2000/svg" xmlns:xlink="http://www.w3.org/1999/xlink" x="0px" y="0px"
	 viewBox="0 0 511.981 511.981" style="enable-background:new 0 0 511.981 511.981;" xml:space="preserve">
<g>
	<path style="fill:#FFCE54;" d="M464.107,85.387h-32c-5.904,0-10.686-4.781-10.686-10.672c0-5.898,4.781-10.679,10.686-10.679h32
		c5.906,0,10.688,4.781,10.688,10.679C474.795,80.606,470.013,85.387,464.107,85.387z"/>
	<path style="fill:#FFCE54;" d="M464.107,42.693h-32c-5.904,0-10.686-4.781-10.686-10.671c0-5.898,4.781-10.679,10.686-10.679h32
		c5.906,0,10.688,4.781,10.688,10.679C474.795,37.912,470.013,42.693,464.107,42.693z"/>
</g>
<path style="fill:#ED5564;" d="M325.362,149.424H101.23c-23.546,0-42.693-19.148-42.693-42.694
	c0-23.538,19.147-42.694,42.693-42.694h266.817c5.906,0,10.688-4.772,10.688-10.671c0-5.891-4.781-10.672-10.688-10.672H101.23
	c-35.312,0-64.045,28.725-64.045,64.037c0,35.311,28.733,64.044,64.045,64.044h224.132c23.546,0,42.686,19.148,42.686,42.686
	c0,23.545-19.14,42.694-42.686,42.694H143.924c-35.311,0-64.044,28.741-64.044,64.052c0,35.312,28.733,64.029,64.044,64.029h85.38
	c23.546,0,42.687,19.155,42.687,42.686h0.031c0,0.125-0.031,0.219-0.031,0.344v74.028c0,5.906,4.781,10.688,10.687,10.688
	c5.891,0,10.672-4.781,10.672-10.688v-74.028c0-0.125-0.016-0.219-0.016-0.344h0.016c0-35.311-28.733-64.029-64.045-64.029h-85.38
	c-23.546,0-42.693-19.155-42.693-42.686c0-23.561,19.147-42.701,42.693-42.701h181.438c35.312,0,64.045-28.733,64.045-64.044
	C389.407,178.149,360.674,149.424,325.362,149.424z"/>
<path style="fill:#434A54;" d="M432.107,0h-21.356c-29.422,0-53.358,23.937-53.358,53.365s23.937,53.365,53.358,53.365h21.356
	c5.875,0,10.656-4.773,10.656-10.671V10.671C442.763,4.78,437.982,0,432.107,0z"/>
<g>
</g>
<g>
</g>
<g>
</g>
<g>
</g>
<g>
</g>
<g>
</g>
<g>
</g>
<g>
</g>
<g>
</g>
<g>
</g>
<g>
</g>
<g>
</g>
<g>
</g>
<g>
</g>
<g>
</g>
</svg>
